<svg xmlns="http://www.w3.org/2000/svg" xmlns:xlink="http://www.w3.org/1999/xlink" viewBox="0 0 640.34 636.71"><defs><style>.cls-1{fill:#fff;}.cls-2{fill:#0cf;}.cls-3{fill:#f4767a;}.cls-4{fill:#ed5561;}.cls-5{fill:#d8395a;}.cls-6{fill:#933e31;}.cls-7{fill:#606060;}.cls-8{fill:#9d4d36;}.cls-9{fill:#bbcee1;}.cls-10{fill:#a7bcce;}.cls-11{fill:#e8ebf5;}.cls-12{fill:#0b3b56;}.cls-13{fill:#07304b;}.cls-14{fill:url(#Degradado_sin_nombre_2);}.cls-15{fill:#fed4bd;}.cls-16{fill:#f4c5a2;}.cls-17{fill:#de495a;}.cls-18{fill:#ef4136;}.cls-19{fill:#91a6b7;}.cls-20{fill:#79ff68;}.cls-21{fill:#50e85e;}.cls-22{fill:#3cc743;}.cls-23{fill:#9263c1;}.cls-24{fill:#8444b2;}.cls-25{fill:#7231a3;}.cls-26{fill:#ffa8e1;}.cls-27{fill:#ff7ad2;}.cls-28{fill:#de64c6;}.cls-29{fill:#fcec32;}.cls-30{fill:#f5d012;}.cls-31{fill:#eaa10c;}.cls-32{fill:#edf0f8;}.cls-33{fill:#f0cec9;}.cls-34{fill:#fffbf0;}.cls-35{fill:#f5ddd8;}.cls-36{fill:#dfbab8;}</style><linearGradient id="Degradado_sin_nombre_2" x1="-326.48" y1="-704.36" x2="-279.24" y2="-549.01" gradientTransform="matrix(1, 0, 0, -1, 564, -342.59)" gradientUnits="userSpaceOnUse"><stop offset="0" stop-color="#1c75bc"/><stop offset="0.28" stop-color="#2077bc"/><stop offset="0.54" stop-color="#2b7ebc"/><stop offset="0.8" stop-color="#3e88bc"/><stop offset="1" stop-color="#5394bc"/></linearGradient></defs><title>Recurso 1</title><g id="Capa_2" data-name="Capa 2"><g id="About_me" data-name="About me"><polygon class="cls-1" points="307.5 78.08 307.5 81 321.14 88.06 321.14 85.15 307.5 78.08"/><polygon class="cls-1" points="307.5 83.4 307.5 86.35 321.14 93.41 321.14 90.49 307.5 83.4"/><polygon class="cls-1" points="307.5 88.75 307.5 91.67 321.14 98.76 321.14 95.81 307.5 88.75"/><polygon class="cls-1" points="400.26 150.61 400.26 147.67 323.87 103.6 323.87 106.54 400.26 150.61"/><polygon class="cls-1" points="307.5 94.09 307.5 97.01 321.14 104.08 321.14 101.16 307.5 94.09"/><polygon class="cls-1" points="307.5 99.41 307.5 102.33 321.14 109.43 321.14 106.48 307.5 99.41"/><polygon class="cls-1" points="400.26 155.96 400.26 153.01 323.87 108.94 323.87 111.89 400.26 155.96"/><polygon class="cls-1" points="307.5 115.43 307.5 118.35 321.14 125.41 321.14 122.49 307.5 115.43"/><polygon class="cls-1" points="307.5 120.75 307.5 123.67 321.14 130.76 321.14 127.84 307.5 120.75"/><polygon class="cls-1" points="307.5 142.11 307.5 145.03 321.14 152.09 321.14 149.18 307.5 142.11"/><polygon class="cls-1" points="307.5 147.43 307.5 150.35 321.14 157.41 321.14 154.5 307.5 147.43"/><polygon class="cls-1" points="372.97 185.07 323.87 156.73 323.87 159.74 372.97 188.08 372.97 185.07"/><polygon class="cls-1" points="375.7 186.47 375.7 189.29 400.26 203.46 400.26 200.64 375.7 186.47"/><polygon class="cls-1" points="348.42 165.81 323.87 151.62 323.87 154.61 348.42 168.8 348.42 165.81"/><polygon class="cls-1" points="351.15 167.15 351.15 170.07 400.26 198.39 400.26 195.48 351.15 167.15"/><polygon class="cls-1" points="394.8 175.77 394.8 178.69 400.26 182.4 400.26 179.48 394.8 175.77"/><polygon class="cls-1" points="359.33 149.79 326.6 130.91 326.6 133.72 359.33 152.6 359.33 149.79"/><polygon class="cls-1" points="342.96 99.17 323.87 88.17 323.87 90.95 342.96 101.95 342.96 99.17"/><polygon class="cls-1" points="378.43 118.28 348.42 100.96 348.42 103.84 378.43 121.17 378.43 118.28"/><polygon class="cls-1" points="359.33 113.58 337.51 101.01 337.51 103.99 359.33 116.56 359.33 113.58"/><polygon class="cls-1" points="381.16 126.27 362.06 115.24 362.06 118.04 381.16 129.06 381.16 126.27"/><polygon class="cls-1" points="383.89 127.55 383.89 130.64 400.26 140.08 400.26 136.99 383.89 127.55"/><polygon class="cls-1" points="329.32 100.66 329.32 103.62 345.69 113.07 345.69 110.1 329.32 100.66"/><polygon class="cls-1" points="394.8 138.4 348.42 111.67 348.42 114.56 394.8 141.29 394.8 138.4"/><polygon class="cls-1" points="367.52 138.92 337.51 121.62 337.51 124.49 367.52 141.78 367.52 138.92"/><polygon class="cls-1" points="394.8 154.58 370.25 140.43 370.25 143.38 394.8 157.54 394.8 154.58"/><polygon class="cls-1" points="392.07 168.94 362.06 151.63 362.06 154.53 392.07 171.84 392.07 168.94"/><polygon class="cls-1" points="375.7 164.85 375.7 167.76 392.07 177.2 392.07 174.29 375.7 164.85"/><polygon class="cls-1" points="329.32 139.22 323.87 136.08 323.87 138.77 329.32 141.92 329.32 139.22"/><polygon class="cls-1" points="342.96 145.88 342.96 148.72 372.97 166.03 372.97 163.18 342.96 145.88"/><polygon class="cls-1" points="340.24 144.15 334.78 141.01 334.78 143.64 340.24 146.78 340.24 144.15"/><polygon class="cls-1" points="367.52 165.21 334.78 146.34 334.78 149.18 367.52 168.06 367.52 165.21"/><polygon class="cls-1" points="372.97 30.02 321.14 0 321.14 2.64 372.97 32.66 372.97 30.02"/><polygon class="cls-1" points="321.14 7.68 400.26 53.44 400.26 50.82 321.14 5.05 321.14 7.68"/><polygon class="cls-1" points="375.7 31.4 375.7 34.08 400.26 48.32 400.26 45.64 375.7 31.4"/><polygon class="cls-1" points="372.97 39.92 321.14 9.9 321.14 12.54 372.97 42.56 372.97 39.92"/><polygon class="cls-1" points="321.14 17.61 400.26 63.35 400.26 60.72 321.14 14.98 321.14 17.61"/><polygon class="cls-1" points="375.7 43.98 400.26 58.22 400.26 55.54 375.7 41.33 375.7 43.98"/><polygon class="cls-1" points="372.97 56.29 321.14 26.27 321.14 28.91 372.97 58.93 372.97 56.29"/><polygon class="cls-1" points="321.14 33.98 400.26 79.72 400.26 77.09 321.14 31.35 321.14 33.98"/><polygon class="cls-1" points="375.7 60.35 400.26 74.59 400.26 71.91 375.7 57.7 375.7 60.35"/><polygon class="cls-1" points="372.97 66.22 321.14 36.2 321.14 38.84 372.97 68.86 372.97 66.22"/><polygon class="cls-1" points="321.14 43.88 400.26 89.64 400.26 87.02 321.14 41.25 321.14 43.88"/><polygon class="cls-1" points="375.7 70.28 400.26 84.49 400.26 81.84 375.7 67.61 375.7 70.28"/><polygon class="cls-1" points="372.97 82.59 321.14 52.57 321.14 55.21 372.97 85.23 372.97 82.59"/><polygon class="cls-1" points="321.14 60.25 400.26 106.01 400.26 103.39 321.14 57.62 321.14 60.25"/><polygon class="cls-1" points="375.7 86.65 400.26 100.86 400.26 98.18 375.7 83.97 375.7 86.65"/><polygon class="cls-1" points="372.97 92.49 321.14 62.47 321.14 65.11 372.97 95.13 372.97 92.49"/><polygon class="cls-1" points="321.14 70.15 400.26 115.92 400.26 113.29 321.14 67.52 321.14 70.15"/><polygon class="cls-1" points="375.7 96.55 400.26 110.79 400.26 108.11 375.7 93.88 375.7 96.55"/><path class="cls-2" d="M236,66.54,197.18,44.23a2.79,2.79,0,0,0-4.26,2.46V93.17a6.24,6.24,0,0,0,3.18,5.58L235,121.23a2.78,2.78,0,0,0,3.87-.73,2.83,2.83,0,0,0,.48-1.81V72.12A6.57,6.57,0,0,0,236,66.54Z"/><path class="cls-3" d="M218.79,105.3,169.08,76.64a4.65,4.65,0,0,0-5,.19h0l-10.89,6.29L158.27,90l1.91,2.17v49.25a8.17,8.17,0,0,0,4.08,7.1l37.22,21.54.38,2.06,7.59,10.65,11.68-6.89h0a3.7,3.7,0,0,0,1.8-3.18V112.82A8.55,8.55,0,0,0,218.79,105.3Z"/><path class="cls-4" d="M207.64,112.17l-50.21-29a3.66,3.66,0,0,0-5,1.45,3.6,3.6,0,0,0-.45,1.73v60.15a8.16,8.16,0,0,0,4.1,7.1l50.26,29.07a3.76,3.76,0,0,0,5.65-3.26V119.59A8.53,8.53,0,0,0,207.64,112.17Z"/><path class="cls-5" d="M212,177.46V121.24a8.11,8.11,0,0,0-.53-2.71l10.94-6.31a7.67,7.67,0,0,1,.51,2.55V171a3.49,3.49,0,0,1-1.69,3h0l-10.86,6.39A3.47,3.47,0,0,0,212,177.46Z"/><path class="cls-1" d="M163.52,111.91l-6.07-3.55v22.07l2.73,2.35v-7.86l3,1a6.71,6.71,0,0,0,5.45,1.31c1.29-.52,1.94-2,1.94-4.34a10.72,10.72,0,0,0-1.8-6.19A15.08,15.08,0,0,0,163.52,111.91Zm.73,10.72a3.75,3.75,0,0,1-2.73-.76l-1.34-.77v-6.55l1.86,1.07a7,7,0,0,1,2.42,2.21,5.17,5.17,0,0,1,.79,2.86C165.2,121.78,164.87,122.44,164.25,122.63Z"/><polygon class="cls-1" points="184.7 133.03 176.55 128.3 176.55 119.82 173.82 117.47 173.82 139.54 176.55 141.89 176.58 132.21 184.73 136.92 184.73 146.28 187.46 148.63 187.46 126.56 184.73 124.21 184.7 133.03"/><path class="cls-1" d="M204.12,137.09a15.13,15.13,0,0,0-5.29-4.8l-5.91-3.55v22.07l2.73,2.35v-7.83l2.85,1a6.8,6.8,0,0,0,5.46,1.28c1.28-.52,1.93-1.94,1.93-4.34A10.71,10.71,0,0,0,204.12,137.09ZM199.71,143a3.83,3.83,0,0,1-2.73-.79l-1.33-.77v-6.55L197.5,136a6.88,6.88,0,0,1,2.43,2.21,5.25,5.25,0,0,1,.79,2.89C200.77,142.16,200.45,142.82,199.71,143Z"/><polygon class="cls-1" points="100.16 107.49 100.16 110.41 113.8 117.5 113.8 114.58 100.16 107.49"/><polygon class="cls-1" points="100.16 112.84 100.16 115.75 113.8 122.82 113.8 119.9 100.16 112.84"/><polygon class="cls-1" points="100.16 118.16 100.16 121.08 113.8 128.17 113.8 125.25 100.16 118.16"/><polygon class="cls-1" points="195.65 180.02 195.65 177.08 119.26 133.03 119.26 135.98 195.65 180.02"/><polygon class="cls-1" points="100.16 123.5 100.16 126.42 113.8 133.49 113.8 130.57 100.16 123.5"/><polygon class="cls-1" points="100.16 128.82 100.16 131.77 113.8 138.84 113.8 135.92 100.16 128.82"/><polygon class="cls-1" points="195.65 185.37 195.65 182.42 119.26 138.35 119.26 141.3 195.65 185.37"/><polygon class="cls-1" points="100.16 144.84 100.16 147.76 113.8 154.85 113.8 151.93 100.16 144.84"/><polygon class="cls-1" points="100.16 150.18 100.16 153.1 113.8 160.17 113.8 157.25 100.16 150.18"/><polygon class="cls-1" points="100.16 171.52 100.16 174.44 113.8 181.5 113.8 178.58 100.16 171.52"/><polygon class="cls-1" points="100.16 176.84 100.16 179.76 113.8 186.85 113.8 183.93 100.16 176.84"/><polygon class="cls-1" points="165.64 214.48 116.53 186.14 116.53 189.15 165.64 217.49 165.64 214.48"/><polygon class="cls-1" points="168.37 215.88 168.37 218.7 192.92 232.87 192.92 230.05 168.37 215.88"/><polygon class="cls-1" points="143.81 195.22 119.26 181.06 119.26 184.05 143.81 198.21 143.81 195.22"/><polygon class="cls-1" points="143.81 196.57 143.81 199.48 192.92 227.79 192.92 224.88 143.81 196.57"/><polygon class="cls-1" points="187.46 205.18 187.46 208.1 192.92 211.84 192.92 208.92 187.46 205.18"/><polygon class="cls-1" points="152 179.23 119.26 160.31 119.26 163.12 152 182.04 152 179.23"/><polygon class="cls-1" points="138.35 128.58 119.26 117.58 119.26 120.36 138.35 131.36 138.35 128.58"/><polygon class="cls-1" points="171.09 147.69 141.08 130.4 141.08 133.28 171.09 150.57 171.09 147.69"/><polygon class="cls-1" points="154.72 142.99 132.9 130.42 132.9 133.4 154.72 145.97 154.72 142.99"/><polygon class="cls-1" points="176.55 155.68 157.45 144.68 157.45 147.47 176.55 158.47 176.55 155.68"/><polygon class="cls-1" points="179.28 156.96 179.28 160.05 195.65 169.49 195.65 166.4 179.28 156.96"/><polygon class="cls-1" points="121.99 130.09 121.99 133.06 138.35 142.5 138.35 139.54 121.99 130.09"/><polygon class="cls-1" points="187.46 167.81 141.08 141.07 141.08 143.97 187.46 170.72 187.46 167.81"/><polygon class="cls-1" points="160.18 168.35 130.17 151.03 130.17 153.9 160.18 171.22 160.18 168.35"/><polygon class="cls-1" points="187.46 183.99 162.91 169.84 162.91 172.79 187.46 186.94 187.46 183.99"/><polygon class="cls-1" points="184.73 198.35 154.72 181.04 154.72 183.94 184.73 201.25 184.73 198.35"/><polygon class="cls-1" points="168.37 194.26 168.37 197.17 184.73 206.64 184.73 203.73 168.37 194.26"/><polygon class="cls-1" points="124.72 168.63 119.26 165.49 119.26 168.18 124.72 171.32 124.72 168.63"/><polygon class="cls-1" points="135.63 175.31 135.63 178.16 165.64 195.47 165.64 192.62 135.63 175.31"/><polygon class="cls-1" points="132.9 173.56 127.44 170.42 127.44 173.05 132.9 176.19 132.9 173.56"/><polygon class="cls-1" points="160.18 194.62 127.44 175.75 127.44 178.59 160.18 197.46 160.18 194.62"/><path class="cls-2" d="M467.92,145.11,429.08,122.8a2.8,2.8,0,0,0-3.85.88,2.75,2.75,0,0,0-.42,1.6v46.49a6.32,6.32,0,0,0,3.15,5.58l38.85,22.45a2.8,2.8,0,0,0,4.38-2.51V150.77A6.58,6.58,0,0,0,467.92,145.11Z"/><path class="cls-2" d="M519.76,57.21,480.91,34.9a2.8,2.8,0,0,0-4.27,2.46v46.4a6.26,6.26,0,0,0,3.18,5.58l38.85,22.48a2.79,2.79,0,0,0,3.88-.73,2.77,2.77,0,0,0,.47-1.81V63A6.48,6.48,0,0,0,519.76,57.21Z"/><path class="cls-2" d="M637.07,295.05l-38.85-22.31a2.78,2.78,0,0,0-3.84.88,2.82,2.82,0,0,0-.43,1.57v46.52a6.27,6.27,0,0,0,3.18,5.58L636,349.77a2.79,2.79,0,0,0,3.89-.69,2.76,2.76,0,0,0,.49-1.85v-46.3A6.47,6.47,0,0,0,637.07,295.05Z"/><path class="cls-2" d="M306.94,183.11,268.09,160.8a2.79,2.79,0,0,0-4.24,2.49v46.49a6.34,6.34,0,0,0,3.15,5.57l38.85,22.45a2.78,2.78,0,0,0,3.88-.68,2.83,2.83,0,0,0,.5-1.83V188.78A6.57,6.57,0,0,0,306.94,183.11Z"/><path class="cls-6" d="M162.71,557.3c-10.1,0-6.8-7.58-6.8-7.58-14.95-4.56-22.31-2-22.31-2a68.77,68.77,0,0,0-2.38,24.39c0,1.55,1.09,2.51,2.57,3.08,8.05,3,15.38,5,30.36,3.52,11-1.09,22.73-11.29,20.08-21.82C182.57,550.37,172.94,557.19,162.71,557.3Z"/><path class="cls-7" d="M158.37,462.47c-3-3.84-8-7.12-16.37-4.91L51.81,475l3.38,23.16a35.94,35.94,0,0,0,38,11.32,140.63,140.63,0,0,0,39.89-18.22l-3.11,64A36.1,36.1,0,0,0,156.73,552c2.1-1.28,4.07-62.94,4.72-78.76A14.51,14.51,0,0,0,158.37,462.47Z"/><path class="cls-8" d="M206,575.8c-10.47,0-7-7.88-7-7.88-15.55-4.72-23.19-2.11-23.19-2.11a72.62,72.62,0,0,0-2.48,25.32,3.44,3.44,0,0,0,2.73,3.22c8.37,3.11,16,5.16,31.54,3.66,11.45-1.12,23.59-11.73,20.84-22.65C226.63,568.6,216.61,575.69,206,575.8Z"/><polygon class="cls-9" points="102.86 550.11 26.5 505.96 26.5 516.72 102.89 560.74 102.86 550.11"/><polygon class="cls-1" points="96.44 465.15 26.05 505.58 103.48 550.35 173.95 509.86 96.44 465.15"/><polygon class="cls-10" points="173.82 509.69 102.89 550.44 102.92 561.29 173.82 520.26 173.82 509.69"/><path class="cls-7" d="M201.5,477.31c-3.06-4-8.18-7.39-17.05-5.1L90.79,490.27l3.58,24a37.32,37.32,0,0,0,39.44,11.76,145.44,145.44,0,0,0,41.42-18.94l-3.17,66.38a37.35,37.35,0,0,0,27.78-3.33c2.21-1.34,4.25-65.34,4.91-81.84A15,15,0,0,0,201.5,477.31Z"/><path class="cls-11" d="M34.16,341.84l159.92-92.76a21.81,21.81,0,0,1,21.82,0L467.82,394.82a9.62,9.62,0,0,1,0,16.69L311.47,502.28a26,26,0,0,1-26.05,0L34.07,356.87a8.61,8.61,0,0,1,.09-15Z"/><path class="cls-10" d="M33.56,357l250.81,145.1a25.92,25.92,0,0,0,26,0l156-90.57a9.58,9.58,0,0,0,4.79-8.17v12.14h0a9.48,9.48,0,0,1-4.77,8.17l-156,90.52a25.92,25.92,0,0,1-26,0L33.56,369a8.59,8.59,0,0,1-4.33-7.55h0V349.57A8.49,8.49,0,0,0,33.56,357Z"/><path class="cls-9" d="M33.56,356.85,284.7,502.14a25.91,25.91,0,0,0,11.89,3.41v12a26,26,0,0,1-11.89-3.4L33.56,368.9a8.62,8.62,0,0,1-4.33-7.55h0V349.41A8.51,8.51,0,0,0,33.56,356.85Z"/><path class="cls-7" d="M152.31,375.39l27.15-15.69a4.15,4.15,0,0,1,4.12,0l83.83,48.48a1.83,1.83,0,0,1,.63,2.51,1.73,1.73,0,0,1-.63.63l-26.49,15.31a4.89,4.89,0,0,1-4.88,0l-83.73-48.4a1.65,1.65,0,0,1-.59-2.27A1.47,1.47,0,0,1,152.31,375.39Z"/><path class="cls-12" d="M152.79,378.12l84.1,48.61a4.93,4.93,0,0,0,4.9,0l26.61-15.38a1.81,1.81,0,0,0,.91-1.58V413h0a2,2,0,0,1-.91,1.56l-26.61,15.29a4.88,4.88,0,0,1-4.9,0l-84.1-48.5a1.56,1.56,0,0,1-.79-1.43h0v-3.23A1.7,1.7,0,0,0,152.79,378.12Z"/><polygon class="cls-7" points="179.16 364.1 182.54 362.13 186.41 364.34 183.03 366.31 179.16 364.1"/><polygon class="cls-7" points="183.96 366.88 187.37 364.89 191.22 367.13 187.83 369.09 183.96 366.88"/><polygon class="cls-7" points="188.79 369.63 192.17 367.67 196.04 369.91 192.66 371.87 188.79 369.63"/><polygon class="cls-7" points="193.59 372.42 197 370.45 200.87 372.66 197.46 374.63 193.59 372.42"/><polygon class="cls-7" points="198.42 375.2 201.83 373.21 205.67 375.45 202.29 377.41 198.42 375.2"/><polygon class="cls-7" points="203.25 377.96 206.63 375.99 210.5 378.23 207.12 380.19 203.25 377.96"/><polygon class="cls-7" points="208.05 380.74 211.46 378.77 215.3 380.98 211.92 382.95 208.05 380.74"/><polygon class="cls-7" points="212.88 383.52 216.26 381.53 220.13 383.77 216.75 385.73 212.88 383.52"/><polygon class="cls-7" points="217.68 386.28 221.09 384.31 224.93 386.55 221.55 388.51 217.68 386.28"/><polygon class="cls-7" points="222.51 389.06 225.92 387.1 229.76 389.31 226.38 391.27 222.51 389.06"/><polygon class="cls-7" points="227.34 391.81 230.72 389.85 234.59 392.09 231.21 394.05 227.34 391.81"/><polygon class="cls-7" points="232.14 394.6 235.55 392.63 239.39 394.87 236.01 396.81 232.14 394.6"/><polygon class="cls-7" points="240.35 395.39 244.22 397.63 240.84 399.59 236.97 397.38 240.35 395.39"/><polygon class="cls-7" points="178.61 368.87 174.76 366.63 178.15 364.67 182.02 366.91 178.61 368.87"/><polygon class="cls-7" points="186.82 369.66 183.44 371.63 179.57 369.42 182.98 367.45 186.82 369.66"/><polygon class="cls-7" points="191.65 372.44 188.27 374.41 184.39 372.2 187.78 370.21 191.65 372.44"/><polygon class="cls-7" points="196.45 375.23 193.07 377.19 189.2 374.95 192.61 372.99 196.45 375.23"/><polygon class="cls-7" points="201.28 377.98 197.9 379.95 194.03 377.74 197.41 375.77 201.28 377.98"/><polygon class="cls-7" points="206.11 380.77 202.7 382.73 198.83 380.52 202.24 378.53 206.11 380.77"/><polygon class="cls-7" points="210.91 383.55 207.53 385.51 203.66 383.28 207.06 381.31 210.91 383.55"/><polygon class="cls-7" points="215.74 386.3 212.36 388.27 208.48 386.06 211.87 384.09 215.74 386.3"/><polygon class="cls-7" points="220.54 389.09 217.16 391.05 213.28 388.84 216.69 386.85 220.54 389.09"/><polygon class="cls-7" points="225.37 391.87 221.99 393.83 218.11 391.6 221.5 389.63 225.37 391.87"/><polygon class="cls-7" points="230.2 394.63 226.79 396.59 222.92 394.38 226.33 392.42 230.2 394.63"/><polygon class="cls-7" points="235 397.41 231.62 399.37 227.74 397.16 231.13 395.17 235 397.41"/><polygon class="cls-7" points="235.96 397.95 239.83 400.16 236.45 402.15 232.57 399.92 235.96 397.95"/><polygon class="cls-7" points="174.22 371.41 170.34 369.2 173.75 367.23 177.6 369.44 174.22 371.41"/><polygon class="cls-7" points="182.43 372.23 179.05 374.19 175.17 371.95 178.56 369.99 182.43 372.23"/><polygon class="cls-7" points="179.97 374.74 183.38 372.77 187.26 374.98 183.85 376.95 179.97 374.74"/><polygon class="cls-7" points="192.06 377.76 188.68 379.73 184.8 377.52 188.21 375.53 192.06 377.76"/><polygon class="cls-7" points="196.89 380.55 193.51 382.51 189.63 380.27 193.01 378.31 196.89 380.55"/><polygon class="cls-7" points="201.69 383.3 198.31 385.27 194.43 383.06 197.84 381.09 201.69 383.3"/><polygon class="cls-7" points="206.52 386.09 203.14 388.05 199.26 385.84 202.65 383.85 206.52 386.09"/><polygon class="cls-7" points="211.35 388.87 207.94 390.83 204.06 388.6 207.47 386.63 211.35 388.87"/><polygon class="cls-7" points="216.15 391.62 212.77 393.59 208.89 391.38 212.3 389.41 216.15 391.62"/><polygon class="cls-7" points="220.98 394.41 217.6 396.37 213.72 394.16 217.1 392.17 220.98 394.41"/><polygon class="cls-7" points="225.78 397.19 222.4 399.15 218.52 396.92 221.93 394.95 225.78 397.19"/><polygon class="cls-7" points="223.35 399.7 226.74 397.74 230.61 399.94 227.23 401.91 223.35 399.7"/><polygon class="cls-7" points="231.56 400.49 235.44 402.73 232.03 404.69 228.15 402.45 231.56 400.49"/><polygon class="cls-7" points="169.83 373.97 165.95 371.74 169.36 369.77 173.21 372.01 169.83 373.97"/><polygon class="cls-7" points="170.78 374.52 174.16 372.53 178.04 374.76 174.66 376.73 170.78 374.52"/><polygon class="cls-7" points="175.58 377.27 178.99 375.31 182.84 377.55 179.46 379.51 175.58 377.27"/><polygon class="cls-7" points="180.41 380.06 183.82 378.09 187.67 380.3 184.28 382.27 180.41 380.06"/><polygon class="cls-7" points="185.21 382.84 188.62 380.85 192.5 383.08 189.09 385.05 185.21 382.84"/><polygon class="cls-7" points="190.04 385.6 193.45 383.63 197.3 385.87 193.92 387.83 190.04 385.6"/><polygon class="cls-7" points="194.87 388.38 198.25 386.41 202.13 388.62 198.74 390.59 194.87 388.38"/><polygon class="cls-7" points="199.67 391.16 203.08 389.17 206.93 391.41 203.55 393.37 199.67 391.16"/><polygon class="cls-7" points="204.5 393.92 207.88 391.95 211.76 394.19 208.38 396.15 204.5 393.92"/><polygon class="cls-7" points="209.3 396.7 212.71 394.73 216.59 396.94 213.18 398.91 209.3 396.7"/><polygon class="cls-7" points="214.13 399.48 217.54 397.49 221.39 399.73 218 401.69 214.13 399.48"/><polygon class="cls-7" points="218.96 402.24 222.34 400.27 226.22 402.51 222.83 404.47 218.96 402.24"/><polygon class="cls-7" points="227.17 403.06 231.02 405.26 227.63 407.23 223.76 405.02 227.17 403.06"/><polygon class="cls-7" points="165.43 376.51 161.56 374.3 164.97 372.31 168.82 374.55 165.43 376.51"/><polygon class="cls-7" points="166.36 377.06 169.77 375.09 173.65 377.3 170.26 379.26 166.36 377.06"/><polygon class="cls-7" points="171.19 379.84 174.6 377.87 178.45 380.08 175.06 382.05 171.19 379.84"/><polygon class="cls-7" points="176.02 382.59 179.4 380.63 183.28 382.87 179.89 384.83 176.02 382.59"/><polygon class="cls-7" points="180.82 385.38 184.23 383.41 188.08 385.65 184.69 387.61 180.82 385.38"/><polygon class="cls-7" points="185.65 388.16 189.06 386.17 192.91 388.4 189.52 390.37 185.65 388.16"/><polygon class="cls-7" points="190.45 390.92 193.86 388.95 197.74 391.19 194.32 393.15 190.45 390.92"/><polygon class="cls-7" points="195.28 393.7 198.69 391.73 202.54 393.94 199.15 395.91 195.28 393.7"/><polygon class="cls-7" points="200.11 396.48 203.49 394.49 207.37 396.73 203.98 398.69 200.11 396.48"/><polygon class="cls-7" points="204.91 399.24 208.32 397.27 212.17 399.51 208.78 401.47 204.91 399.24"/><polygon class="cls-7" points="209.74 402.02 213.12 400.05 217 402.26 213.61 404.23 209.74 402.02"/><polygon class="cls-7" points="214.54 404.8 217.95 402.81 221.82 405.05 218.41 407.01 214.54 404.8"/><polygon class="cls-7" points="222.78 405.59 226.63 407.83 223.24 409.79 219.37 407.56 222.78 405.59"/><polygon class="cls-7" points="160.55 374.87 164.42 377.08 161.04 379.05 157.17 376.84 160.55 374.87"/><polygon class="cls-7" points="169.23 379.87 165.84 381.83 161.97 379.59 165.38 377.63 169.23 379.87"/><polygon class="cls-7" points="174.06 382.65 170.67 384.61 166.8 382.38 170.18 380.41 174.06 382.65"/><polygon class="cls-7" points="178.88 385.4 175.5 387.37 171.63 385.16 175.01 383.17 178.88 385.4"/><polygon class="cls-7" points="183.69 388.19 180.3 390.15 176.43 387.91 179.84 385.95 183.69 388.19"/><polygon class="cls-7" points="188.51 390.94 185.13 392.91 181.26 390.7 184.64 388.73 188.51 390.94"/><polygon class="cls-7" points="189.47 391.51 194.27 392.76 194.3 392.76 195.22 394.82 199.1 397.05 199.1 397.05 201.06 398.17 203.93 399.81 203.93 399.81 206.96 401.58 212.6 404.83 209.22 406.79 203.33 403.38 200.52 401.8 200.52 401.8 197.6 400.11 195.69 398.22 195.72 398.22 191.9 396.83 190.89 396.23 190.89 396.23 186.06 393.48 189.47 391.51"/><polygon class="cls-7" points="217.41 407.58 214.02 409.55 210.15 407.34 213.56 405.37 217.41 407.58"/><polygon class="cls-7" points="222.23 410.37 218.85 412.33 214.98 410.12 218.36 408.13 222.23 410.37"/><polygon class="cls-7" points="246.6 402.92 249.98 400.95 253.85 403.16 250.47 405.13 246.6 402.92"/><polygon class="cls-7" points="251.43 405.7 254.81 403.71 258.68 405.95 255.27 407.91 251.43 405.7"/><polygon class="cls-7" points="256.23 408.46 259.64 406.49 263.48 408.73 260.1 410.69 256.23 408.46"/><polygon class="cls-7" points="249.46 405.73 246.08 407.69 242.2 405.45 245.59 403.49 249.46 405.73"/><polygon class="cls-7" points="254.26 408.48 250.88 410.45 247 408.24 250.41 406.27 254.26 408.48"/><polygon class="cls-7" points="259.09 411.27 255.71 413.23 251.83 411.02 255.22 409.03 259.09 411.27"/><polygon class="cls-7" points="245.07 408.26 241.66 410.23 237.81 408.02 241.19 406.03 245.07 408.26"/><polygon class="cls-7" points="249.87 411.05 246.49 413.01 242.61 410.77 246.02 408.81 249.87 411.05"/><polygon class="cls-7" points="254.7 413.8 251.31 415.77 247.44 413.56 250.82 411.59 254.7 413.8"/><polygon class="cls-7" points="233.39 410.56 236.8 408.59 240.68 410.8 237.27 412.77 233.39 410.56"/><polygon class="cls-7" points="238.22 413.34 241.6 411.35 245.48 413.58 242.09 415.55 238.22 413.34"/><polygon class="cls-7" points="243.02 416.1 246.43 414.13 250.31 416.37 246.9 418.33 243.02 416.1"/><polygon class="cls-7" points="229 413.09 232.41 411.13 236.26 413.37 232.87 415.33 229 413.09"/><polygon class="cls-7" points="233.83 415.88 237.21 413.91 241.09 416.12 237.7 418.09 233.83 415.88"/><polygon class="cls-7" points="238.63 418.66 242.04 416.67 245.91 418.9 242.5 420.87 238.63 418.66"/><polygon class="cls-7" points="231.86 415.9 228.48 417.87 224.61 415.66 228.02 413.69 231.86 415.9"/><polygon class="cls-7" points="236.69 418.69 233.31 420.65 229.44 418.41 232.82 416.45 236.69 418.69"/><path class="cls-7" d="M212.52,349.37l26.71-15.5a3.58,3.58,0,0,1,3.66,0l63.34,36.58a1.61,1.61,0,0,1,.51,2.22,1.55,1.55,0,0,1-.51.51l-26.11,15.14a4.21,4.21,0,0,1-4.33,0l-63.27-36.5a1.44,1.44,0,0,1-.46-2A1.27,1.27,0,0,1,212.52,349.37Z"/><path class="cls-13" d="M212.73,351.79l63.44,36.61a4.29,4.29,0,0,0,4.35,0l26.19-15.19a1.62,1.62,0,0,0,.79-1.39v3.36h0a1.59,1.59,0,0,1-.79,1.37L280.52,391.6a4.34,4.34,0,0,1-4.35,0L212.73,355a1.47,1.47,0,0,1-.72-1.26h0v-3.15A1.45,1.45,0,0,0,212.73,351.79Z"/><path class="cls-12" d="M212.72,352l62.82,36.24a4.17,4.17,0,0,0,1.95.57V392a4,4,0,0,1-1.95-.54l-62.82-36.27A1.46,1.46,0,0,1,212,354h0v-3.19A1.46,1.46,0,0,0,212.72,352Z"/><polygon class="cls-7" points="282.95 351.79 233.84 323.34 233.84 347.68 282.95 376.1 282.95 351.79"/><polygon class="cls-13" points="239.42 319.36 232.57 323.28 281.79 351.79 288.66 347.84 239.42 319.36"/><polygon class="cls-13" points="288.4 347.84 280.22 351.79 280.22 376.15 288.4 372.17 288.4 347.84"/><polygon class="cls-14" points="182 198.9 332.05 285.93 332.05 396.32 182 308.96 182 198.9"/><polygon class="cls-13" points="332.05 285.96 337.51 282.94 337.51 393.07 332.05 396.07 332.05 285.96"/><polygon class="cls-7" points="182.78 199.15 187.89 196.21 337.42 282.94 332.45 285.96 182.78 199.15"/><path class="cls-12" d="M182,198.93V309l150,87.36V285.93ZM329.32,389.42l-141.86-82.5V205.83l141.86,82.23Z"/><path class="cls-15" d="M127.38,335.12c-1.56,15.75-13.15,27.48-25.92,26.22s-21.83-15-20.27-30.77,13.15-27.45,25.89-26.19S128.93,319.41,127.38,335.12Z"/><path class="cls-16" d="M146.45,371.79s5.45,1.34,7.47,1.53,9.22,1.72,12.2.82-2.73-2.9-4-3.9-1.31-3.61,1.69-4.51,9.82-.49,13.42-1-3.57-11.4-9.44-12.41a24.87,24.87,0,0,0-16.07,2.18c-5,2.46-7.72,6.63-10,7.42Z"/><path class="cls-4" d="M147.1,357l-37.95,9.52-1.91,24.09L152,375.17C153,366.69,147.1,357,147.1,357Z"/><path class="cls-4" d="M53.44,367.15s-10.5,13.21,0,31.43c0,0,7.34,10.15,27.48.19Z"/><path class="cls-17" d="M84.63,351.71s16.37-1.12,29.16,7.83a9.86,9.86,0,0,0,3.52,4.42c2.56,1.72,15.3,6.82,15.3,6.82s-5.62,74.67.82,111c0,0-27.63,21.58-70.93,0,0,0-6.3-91.7-9.08-114.59C53.44,367.15,60.73,358.26,84.63,351.71Z"/><polygon class="cls-9" points="77.42 474.97 0 430.2 26.05 505.69 103.5 550.35 77.42 474.97"/><polygon class="cls-1" points="8.54 425.23 0 430.2 77.42 474.97 86.07 469.95 8.54 425.23"/><polygon class="cls-10" points="86.07 469.95 77.42 474.97 103.5 550.35 112.23 545.33 86.07 469.95"/><path class="cls-16" d="M197.46,404.88s4.23-4.25,5.84-5.45,7.28-6.58,10.48-7.29-2.24,4.83-2.92,6.55,3.27-1.39,6.24-2.51a14.71,14.71,0,0,1,10.15.35c7.34,2.73,7,17.27,1,15.55-9.85-2.72-14.27,5-20.17,6.61a60,60,0,0,1-8.32,1.52Z"/><path class="cls-4" d="M132.56,370.78l32,42.42,33.28-9.82s7.15,9,4.83,18.53L158.26,439.2l-36.09-39.69S110.13,374.3,132.56,370.78Z"/><path class="cls-8" d="M114.77,290.93s2.46,5.92-9.33,7.53-26.32,7.45-30.17,19.89c-2.46,7.94.38,16.36,4.39,23.4a44.23,44.23,0,0,0,4.67,6.82,25.43,25.43,0,0,0,17.37-3,30.2,30.2,0,0,0,9.36-11.4s7,2.92,9.2-2.92c1.61-4.31,6.68-5.46,9.44-7.72C129.83,323.56,145.6,297.56,114.77,290.93Z"/><polygon class="cls-9" points="555.76 516.9 503.93 486.83 503.93 506.23 555.76 536.22 555.76 516.9"/><polygon class="cls-1" points="555.94 456.61 502.9 487.08 554.22 516.85 607.31 486.35 555.94 456.61"/><polygon class="cls-10" points="607.59 486.93 555.76 516.71 555.76 535.38 607.59 505.39 607.59 486.93"/><polygon class="cls-9" points="555.76 485.53 503.93 455.43 503.93 474.83 555.76 504.81 555.76 485.53"/><polygon class="cls-1" points="555.94 425.21 502.9 455.68 554.22 485.47 607.31 454.94 555.94 425.21"/><polygon class="cls-10" points="607.59 455.53 555.76 485.34 555.76 503.98 607.59 473.99 607.59 455.53"/><polygon class="cls-9" points="468.43 567.15 416.63 537.06 416.63 556.46 468.46 586.44 468.43 567.15"/><polygon class="cls-1" points="469.18 506.83 416.15 537.31 467.44 567.1 520.55 536.57 469.18 506.83"/><polygon class="cls-10" points="520.29 537.17 468.46 566.96 468.49 585.6 520.29 555.62 520.29 537.17"/><polygon class="cls-9" points="468.43 535.75 416.63 505.69 416.63 525.06 468.46 555.07 468.43 535.75"/><polygon class="cls-1" points="469.18 475.46 416.15 505.93 467.44 535.7 520.55 505.2 469.18 475.46"/><polygon class="cls-10" points="520.29 505.8 468.46 535.56 468.49 554.22 520.29 524.24 520.29 505.8"/><polygon class="cls-9" points="381.16 617.38 329.32 587.3 329.32 606.68 381.16 636.71 381.16 617.38"/><polygon class="cls-1" points="382.43 557.09 329.39 587.56 380.68 617.32 433.8 586.82 382.43 557.09"/><polygon class="cls-10" points="432.99 587.42 381.16 617.18 381.16 635.85 432.99 605.87 432.99 587.42"/><polygon class="cls-9" points="381.16 585.98 329.32 555.9 329.32 575.31 381.16 605.31 381.16 585.98"/><polygon class="cls-1" points="382.43 525.68 329.39 556.16 380.68 585.92 433.8 555.42 382.43 525.68"/><polygon class="cls-10" points="432.99 556.02 381.16 585.78 381.16 604.45 432.99 574.47 432.99 556.02"/><path class="cls-7" d="M396.7,567.15l-3.22-1.88a55.2,55.2,0,0,1-6.86,1.83v3h-8.19v-2.46a35.68,35.68,0,0,1-7.9-1.64l-3.33,1.69-5.71-2.9,3.37-1.67a9.38,9.38,0,0,1-3.31-3.93h-4.94v-5.46h5.11a9.2,9.2,0,0,1,3.11-4.93l-3.11-1.74,5.46-3.22,3.22,1.85a58,58,0,0,1,8-1.8v-1.07h8.19v2.46a36.4,36.4,0,0,1,7.92,1.62l3.34-1.67,5.7,2.9-3.36,1.67a9.38,9.38,0,0,1,3.31,3.93h4.91v5.46H402.1c-.63.32-1.7,1.83-3.11,3l3.22,1.85Zm-22-7.5a16.06,16.06,0,0,0,14.54,0c4-2.35,4-6.11,0-8.43a16,16,0,0,0-14.51,0c-4,2.32-4,6.08,0,8.43"/><polygon class="cls-18" points="473.08 492.02 478.08 502.66 483.07 513.33 464.65 510.46 446.24 507.62 459.66 499.82 473.08 492.02"/><path class="cls-19" d="M535.86,452.68c-2.73-1.61-1.53-3.93,3.76-7a23.49,23.49,0,0,1,7-2.73,7.28,7.28,0,0,1,5,.44A3.63,3.63,0,0,1,553,444.6a6.07,6.07,0,0,1,.63,1.4l4.86-1.2a6,6,0,0,0-1.29-2.11,8,8,0,0,0-2.07-1.58,14.61,14.61,0,0,0-9-1.66,27.92,27.92,0,0,0-10.91,3.79,13.63,13.63,0,0,0-6.52,6.22c-.66,2,.3,3.71,2.73,5.21a14.08,14.08,0,0,0,5.45,1.83l3.77-2.18A14.49,14.49,0,0,1,535.86,452.68Z"/><path class="cls-19" d="M558.91,458.54a4.79,4.79,0,0,0,0-3.57,4.69,4.69,0,0,1-.38-2.48,2.42,2.42,0,0,1,1.34-1.56,5.38,5.38,0,0,1,2.4-.76,4.23,4.23,0,0,1,2.26.52,4.9,4.9,0,0,1,1.45,1.23,11.47,11.47,0,0,1,.79,1.36l4.8-1.15a8.21,8.21,0,0,0-3.6-3.79,11.46,11.46,0,0,0-6.11-1.53,12.51,12.51,0,0,0-6.28,1.75,9.07,9.07,0,0,0-2.29,1.8,4.56,4.56,0,0,0-.9,1.88,5.59,5.59,0,0,0,.3,2.43,5.1,5.1,0,0,1,.33,2.73,2.41,2.41,0,0,1-1.34,1.64,4.91,4.91,0,0,1-2.43.68,4.79,4.79,0,0,1-2.53-.66,7.08,7.08,0,0,1-3.06-3.71l-4.17,2.43a9.31,9.31,0,0,0,3.93,3.63,12,12,0,0,0,6.38,1.72,13.18,13.18,0,0,0,6.49-1.91A6.27,6.27,0,0,0,558.91,458.54Z"/><path class="cls-19" d="M581.15,456a11.7,11.7,0,0,0-6.11-1.56,13,13,0,0,0-6.28,1.78,8.06,8.06,0,0,0-2.26,1.8,3.88,3.88,0,0,0-.9,1.88,4.91,4.91,0,0,0,.3,2.4,5.42,5.42,0,0,1,.32,2.73,2.7,2.7,0,0,1-1.33,1.63,5.21,5.21,0,0,1-2.46.69,4.72,4.72,0,0,1-2.51-.66,7,7,0,0,1-3-3.71l-4.18,2.43a9.11,9.11,0,0,0,3.9,3.63,12.48,12.48,0,0,0,6.39,1.72,13.29,13.29,0,0,0,6.52-1.91,6.51,6.51,0,0,0,2.73-2.57,4.77,4.77,0,0,0,0-3.6,4.92,4.92,0,0,1-.39-2.45,2.58,2.58,0,0,1,1.37-1.59,5.47,5.47,0,0,1,2.4-.73,4,4,0,0,1,2.26.52,4.39,4.39,0,0,1,1.42,1.22,8.12,8.12,0,0,1,.79,1.37l4.8-1.18A8.13,8.13,0,0,0,581.15,456Z"/><path class="cls-20" d="M554.35,284.71,504.61,256a4.6,4.6,0,0,0-4.95.19h0l-10.89,6.29,5.09,6.89,1.88,2.17v49.25a8.14,8.14,0,0,0,4.11,7.1l37.21,21.54.38,2.07,7.6,10.64,11.68-6.89h0a3.73,3.73,0,0,0,1.77-3.18V292.22A8.53,8.53,0,0,0,554.35,284.71Z"/><path class="cls-21" d="M540.52,291.57l-50.25-29a3.67,3.67,0,0,0-5,1.45,3.6,3.6,0,0,0-.45,1.73V326a8.15,8.15,0,0,0,4.1,7.13l50.23,29a3.81,3.81,0,0,0,5.69-3.26v-60.1A8.55,8.55,0,0,0,540.52,291.57Z"/><path class="cls-22" d="M544.85,356.85V300.48a7.64,7.64,0,0,0-.57-2.71l11-6.31a8.2,8.2,0,0,1,.51,2.55v56.22a3.54,3.54,0,0,1-1.66,3h0l-10.86,6.38A3.48,3.48,0,0,0,544.85,356.85Z"/><path class="cls-23" d="M608.94,164.7,559.2,136a4.71,4.71,0,0,0-5,.19h0l-10.89,6.32,5.09,6.86,1.88,2.18v49.24a8.18,8.18,0,0,0,4.11,7.13l37.22,21.51.38,2.07,7.59,10.64,11.68-6.86h0a3.68,3.68,0,0,0,1.77-3.18V172.21A8.43,8.43,0,0,0,608.94,164.7Z"/><path class="cls-24" d="M597.84,171.55l-50.28-29a3.71,3.71,0,0,0-5,1.52,3.82,3.82,0,0,0-.43,1.69V206a8.13,8.13,0,0,0,4.11,7.1l50.25,29.06a3.78,3.78,0,0,0,5.16-1.41,3.85,3.85,0,0,0,.5-1.85V178.78A8.43,8.43,0,0,0,597.84,171.55Z"/><path class="cls-25" d="M602.14,236.82V180.44a7.4,7.4,0,0,0-.54-2.71l11-6.31a8.24,8.24,0,0,1,.49,2.55V230.2a3.47,3.47,0,0,1-1.66,3h0l-10.89,6.39A3.51,3.51,0,0,0,602.14,236.82Z"/><path class="cls-26" d="M442.6,165.57l-49.81-28.69a4.69,4.69,0,0,0-5,.19h0l-10.89,6.29,5.09,6.88,1.88,2.18v49.24A8.16,8.16,0,0,0,388,208.8l37.21,21.5.38,2.07,7.6,10.65,11.67-6.86h0a3.72,3.72,0,0,0,1.77-3.19V173.08A8.4,8.4,0,0,0,442.6,165.57Z"/><path class="cls-27" d="M431.42,172.42l-50.28-29a3.66,3.66,0,0,0-5,1.45,3.61,3.61,0,0,0-.46,1.76v60.15a8.18,8.18,0,0,0,4.11,7.13L430.06,243a3.77,3.77,0,0,0,5.16-1.41,3.65,3.65,0,0,0,.5-1.86V179.85A8.43,8.43,0,0,0,431.42,172.42Z"/><path class="cls-28" d="M435.72,237.7V181.48a7.4,7.4,0,0,0-.54-2.71l11-6.32a8.34,8.34,0,0,1,.48,2.56v56.22a3.47,3.47,0,0,1-1.66,3h0l-10.88,6.39A3.51,3.51,0,0,0,435.72,237.7Z"/><path class="cls-29" d="M333.45,49.19,283.66,20.63a4.71,4.71,0,0,0-5,.19h0l-10.89,6.32L272.86,34l1.9,2.17V85.42a8.16,8.16,0,0,0,4.09,7.13l37.21,21.51.38,2.07L324,126.77l11.68-6.86h0a3.65,3.65,0,0,0,1.8-3.19V56.84A8.48,8.48,0,0,0,333.45,49.19Z"/><path class="cls-30" d="M322.27,56.05,272,27a3.71,3.71,0,0,0-5,1.52,3.82,3.82,0,0,0-.43,1.69V90.4a8.14,8.14,0,0,0,4.1,7.09l50.26,29.05a3.79,3.79,0,0,0,5.16-1.41,3.86,3.86,0,0,0,.5-1.86V63.44A8.4,8.4,0,0,0,322.27,56.05Z"/><path class="cls-31" d="M326.6,121.32V65.09a8.32,8.32,0,0,0-.54-2.7L337,56.07a7.73,7.73,0,0,1,.51,2.56v56.22a3.42,3.42,0,0,1-1.69,3h0L325,124.23A3.56,3.56,0,0,0,326.6,121.32Z"/><path class="cls-1" d="M421.88,184.2a32,32,0,0,0-11.08-11.7,11.15,11.15,0,0,0-11.13-1.12c-5.46,3.11-6.08,12.47-1.85,21.83L384.18,201l4,6.9,13.64-7.8a29.75,29.75,0,0,0,8.92,8.35,11.16,11.16,0,0,0,11.08,1.12C428,206.19,428,194.79,421.88,184.2Zm-4.07,18.58a7.11,7.11,0,0,1-7.09-.71,20.17,20.17,0,0,1-7.09-7.47c-3.9-6.77-3.9-14.08,0-16.37a7.16,7.16,0,0,1,7.09.71,20.65,20.65,0,0,1,7.09,7.5C421.74,193.23,421.74,200.57,417.81,202.78Z"/><path class="cls-24" d="M283.22,61.17a10.63,10.63,0,0,1,2.29,1.77c.76.76,1.53,1.55,2.29,2.43l1.42-3.25a24.3,24.3,0,0,0-6-5.1,8.91,8.91,0,0,0-5.11-1.47,4.15,4.15,0,0,0-3.35,2.29,12,12,0,0,0-1.17,5.75A21.61,21.61,0,0,0,276,73.88a17.38,17.38,0,0,0,6.82,7,14.16,14.16,0,0,0,5.62,2V78.79A15.84,15.84,0,0,1,283.19,77c-3.41-2-5.13-5.46-5.1-10.92a7.26,7.26,0,0,1,1.34-5.1C280.49,60.18,281.64,60.21,283.22,61.17Z"/><polygon class="cls-24" points="299.34 70.76 296.59 69.17 296.56 75.36 291.13 72.21 291.13 75.72 296.59 78.89 296.56 85.15 299.31 86.72 299.34 80.64 304.77 83.76 304.8 80.25 299.31 77.08 299.34 70.76"/><polygon class="cls-24" points="315.68 86.52 315.71 80.2 312.96 78.6 312.93 84.77 307.5 81.65 307.5 85.16 312.96 88.33 312.93 94.56 315.68 96.16 315.71 90.05 321.14 93.2 321.14 89.69 315.68 86.52"/><path class="cls-1" d="M559.28,167.71a4.62,4.62,0,0,0-.79,3.17v7.4c0,1.47-.47,2.26-1.41,2.35a7.54,7.54,0,0,1-4.05-1.35v4.64a13.67,13.67,0,0,1,4,3.33,6.67,6.67,0,0,1,1.42,4.25v7a10,10,0,0,0,.77,4.15,10.49,10.49,0,0,0,2.66,3.37,26.26,26.26,0,0,0,4.75,3.35v-4.6a15.06,15.06,0,0,1-2.85-2.43c-.46-.84.12-2.73.12-2.73v-7.2l-5.45-7.48v-.27l5.45-2.51v-6.82s-.55-1.77-.06-2,2.79.71,2.79.71v-4.76a19,19,0,0,0-4.71-2.12A2.66,2.66,0,0,0,559.28,167.71Z"/><path class="cls-1" d="M587.15,198.12a6.38,6.38,0,0,1-1.38-4v-7.25a9.63,9.63,0,0,0-1.84-5.95,20.31,20.31,0,0,0-6.35-5.07v4.69a14.82,14.82,0,0,1,2.78,2.4c.47.83-.05,2.73-.05,2.73v6.82l5.46,7.77v.28a9.06,9.06,0,0,0-3.53-.36c-.79.38-1.93,2.73-1.93,2.73v7s.48,1.77,0,2-2.75-.74-2.75-.74V216a11.55,11.55,0,0,0,6.36,2.26c1.21-.24,1.83-1.51,1.83-3.81v-7.06c0-1.59.47-2.47,1.38-2.62a7.31,7.31,0,0,1,4.07,1.35v-4.77A14.28,14.28,0,0,1,587.15,198.12Z"/><polygon class="cls-7" points="490.28 302.54 506.65 319.51 506.65 313.93 496.74 302.61 509.38 303.1 509.38 300 490.28 299.95 490.28 302.54"/><polygon class="cls-7" points="509.1 322.88 513.46 325.38 522.14 303.86 517.75 301.35 509.1 322.88"/><polygon class="cls-7" points="523.02 307.64 523.02 312.4 534.41 324.35 525.75 323.23 525.75 327.57 539.39 328.66 539.39 326.49 523.02 307.64"/><polygon class="cls-30" points="201.1 222.04 201.1 224.96 214.74 232.03 214.74 229.11 201.1 222.04"/><polygon class="cls-32" points="201.1 227.36 201.1 230.28 214.74 237.38 214.74 234.46 201.1 227.36"/><polygon class="cls-32" points="201.1 232.71 201.1 235.63 214.74 242.69 214.74 239.78 201.1 232.71"/><polygon class="cls-32" points="293.86 294.57 293.86 291.62 217.47 247.57 217.47 250.51 293.86 294.57"/><polygon class="cls-32" points="201.1 238.03 201.1 240.95 214.74 248.04 214.74 245.12 201.1 238.03"/><polygon class="cls-32" points="201.1 243.38 201.1 246.3 214.74 253.36 214.74 250.44 201.1 243.38"/><polygon class="cls-21" points="293.86 299.89 293.86 296.94 217.47 252.91 217.47 255.83 293.86 299.89"/><polygon class="cls-32" points="201.1 259.36 201.1 262.28 214.74 269.38 214.74 266.46 201.1 259.36"/><polygon class="cls-30" points="201.1 264.71 201.1 267.63 214.74 274.7 214.74 271.78 201.1 264.71"/><polygon class="cls-32" points="201.1 286.05 201.1 288.96 214.74 296.06 214.74 293.11 201.1 286.05"/><polygon class="cls-32" points="201.1 291.39 201.1 294.31 214.74 301.38 214.74 298.46 201.1 291.39"/><polygon class="cls-21" points="266.58 329 217.47 300.68 217.47 303.68 266.58 332 266.58 329"/><polygon class="cls-32" points="269.31 330.42 269.31 333.26 293.86 347.39 293.86 344.57 269.31 330.42"/><polygon class="cls-32" points="242.02 309.74 217.47 295.59 217.47 298.58 242.02 312.73 242.02 309.74"/><polygon class="cls-32" points="244.75 311.12 244.75 314.01 293.86 342.35 293.86 339.43 244.75 311.12"/><polygon class="cls-32" points="288.4 319.71 288.4 322.63 293.86 326.37 293.86 323.45 288.4 319.71"/><polygon class="cls-4" points="252.94 293.75 220.2 274.88 220.2 277.68 252.94 296.56 252.94 293.75"/><polygon class="cls-32" points="236.57 243.14 217.47 232.11 217.47 234.89 236.57 245.91 236.57 243.14"/><polygon class="cls-32" points="272.03 262.25 242.02 244.92 242.02 247.81 272.03 265.13 272.03 262.25"/><polygon class="cls-32" points="252.94 257.55 231.11 244.94 231.11 247.92 252.94 260.53 252.94 257.55"/><polygon class="cls-4" points="274.76 270.2 255.66 259.21 255.66 262 274.76 273.03 274.76 270.2"/><polygon class="cls-32" points="277.49 271.51 277.49 274.6 293.86 284.04 293.86 280.95 277.49 271.51"/><polygon class="cls-4" points="222.93 244.62 222.93 247.59 239.3 257.03 239.3 254.07 222.93 244.62"/><polygon class="cls-32" points="288.4 282.37 242.02 255.59 242.02 258.49 288.4 285.26 288.4 282.37"/><polygon class="cls-32" points="261.12 282.88 231.11 265.56 231.11 268.42 261.12 285.74 261.12 282.88"/><polygon class="cls-32" points="288.4 298.52 263.85 284.37 263.85 287.32 288.4 301.47 288.4 298.52"/><polygon class="cls-32" points="285.67 312.88 255.66 295.57 255.66 298.47 285.67 315.78 285.67 312.88"/><polygon class="cls-21" points="269.31 308.8 269.31 311.71 285.67 321.15 285.67 318.25 269.31 308.8"/><polygon class="cls-32" points="222.93 283.16 217.47 280.02 217.47 282.71 222.93 285.85 222.93 283.16"/><polygon class="cls-32" points="236.57 289.84 236.57 292.69 266.58 310 266.58 307.15 236.57 289.84"/><polygon class="cls-32" points="233.84 288.12 228.38 284.97 228.38 287.6 233.84 290.75 233.84 288.12"/><polygon class="cls-32" points="261.12 309.15 228.38 290.27 228.38 293.11 261.12 311.99 261.12 309.15"/><polygon class="cls-32" points="299.31 278.54 299.31 279.33 302.04 281.3 302.04 280.48 299.31 278.54"/><polygon class="cls-32" points="299.31 280.02 299.31 280.81 302.04 282.77 302.04 281.95 299.31 280.02"/><polygon class="cls-32" points="299.31 281.49 299.31 282.28 302.04 284.25 302.04 283.43 299.31 281.49"/><polygon class="cls-32" points="326.6 298.75 326.6 297.92 304.77 285.34 304.77 286.17 326.6 298.75"/><polygon class="cls-32" points="299.31 282.96 299.31 283.75 302.04 285.69 302.04 284.9 299.31 282.96"/><polygon class="cls-32" points="299.31 284.41 299.31 285.23 302.04 287.16 302.04 286.37 299.31 284.41"/><polygon class="cls-32" points="326.6 300.23 326.6 299.4 304.77 286.82 304.77 287.64 326.6 300.23"/><polygon class="cls-32" points="299.31 288.83 299.31 289.65 302.04 291.58 302.04 290.79 299.31 288.83"/><polygon class="cls-32" points="299.31 290.3 299.31 291.09 302.04 293.06 302.04 292.24 299.31 290.3"/><polygon class="cls-32" points="299.31 296.17 299.31 296.99 302.04 298.95 302.04 298.13 299.31 296.17"/><polygon class="cls-32" points="299.31 297.64 299.31 298.46 302.04 300.39 302.04 299.6 299.31 297.64"/><polygon class="cls-32" points="318.41 308.04 304.77 300.19 304.77 301.01 318.41 308.86 318.41 308.04"/><polygon class="cls-32" points="318.41 308.33 318.41 309.13 326.6 313.16 326.6 312.37 318.41 308.33"/><polygon class="cls-32" points="310.23 302.69 304.77 298.87 304.77 299.66 310.23 303.48 310.23 302.69"/><polygon class="cls-32" points="310.23 303.04 310.23 303.87 323.87 311.72 323.87 310.92 310.23 303.04"/><polygon class="cls-32" points="323.87 305.47 323.87 306.26 326.6 307.3 326.6 306.48 323.87 305.47"/><polygon class="cls-32" points="312.96 298.38 304.77 292.98 304.77 293.79 312.96 299.19 312.96 298.38"/><polygon class="cls-32" points="310.23 284.39 304.77 281.25 304.77 282.05 310.23 285.2 310.23 284.39"/><polygon class="cls-32" points="318.41 289.59 310.23 284.89 310.23 285.66 318.41 290.36 318.41 289.59"/><polygon class="cls-32" points="312.96 288.21 307.5 285.06 307.5 285.79 312.96 288.94 312.96 288.21"/><polygon class="cls-32" points="321.14 291.85 315.68 288.7 315.68 289.52 321.14 292.67 321.14 291.85"/><polygon class="cls-32" points="321.14 292.26 321.14 293.08 326.6 295.54 326.6 294.72 321.14 292.26"/><polygon class="cls-32" points="304.77 284.79 304.77 285.61 310.23 288.15 310.23 287.36 304.77 284.79"/><polygon class="cls-32" points="323.87 295.37 310.23 287.53 310.23 288.37 323.87 296.24 323.87 295.37"/><polygon class="cls-32" points="315.68 295.3 307.5 290.56 307.5 291.34 315.68 296.07 315.68 295.3"/><polygon class="cls-32" points="321.14 299.6 315.68 295.76 315.68 296.55 321.14 300.39 321.14 299.6"/><polygon class="cls-32" points="321.14 303.55 312.96 298.83 312.96 299.64 321.14 304.36 321.14 303.55"/><polygon class="cls-32" points="318.41 302.44 318.41 303.26 323.87 305.85 323.87 305.06 318.41 302.44"/><polygon class="cls-32" points="307.5 295.4 304.77 294.45 304.77 295.27 307.5 296.19 307.5 295.4"/><polygon class="cls-32" points="307.5 297.25 307.5 298.04 315.68 302.75 315.68 301.96 307.5 297.25"/><polygon class="cls-32" points="307.5 296.77 304.77 295.79 304.77 296.6 307.5 297.56 307.5 296.77"/><polygon class="cls-32" points="315.68 302.61 307.5 297.26 307.5 298.08 315.68 303.42 315.68 302.61"/><polygon class="cls-32" points="299.31 303.42 299.31 304.21 302.04 306.18 302.04 305.36 299.31 303.42"/><polygon class="cls-32" points="299.31 304.87 299.31 305.69 302.04 307.65 302.04 306.83 299.31 304.87"/><polygon class="cls-32" points="299.31 306.34 299.31 307.16 302.04 309.1 302.04 308.31 299.31 306.34"/><polygon class="cls-32" points="326.6 323.63 326.6 322.81 304.77 310.22 304.77 311.05 326.6 323.63"/><polygon class="cls-32" points="299.31 307.82 299.31 308.63 302.04 310.57 302.04 309.78 299.31 307.82"/><polygon class="cls-32" points="299.31 309.29 299.31 310.11 302.04 312.04 302.04 311.25 299.31 309.29"/><polygon class="cls-32" points="326.6 325.11 326.6 324.28 304.77 311.67 304.77 312.52 326.6 325.11"/><polygon class="cls-32" points="299.31 313.71 299.31 314.5 302.04 316.46 302.04 315.64 299.31 313.71"/><polygon class="cls-32" points="299.31 315.18 299.31 315.97 302.04 317.94 302.04 317.12 299.31 315.18"/><polygon class="cls-32" points="299.31 321.05 299.31 321.87 302.04 323.8 302.04 323.01 299.31 321.05"/><polygon class="cls-32" points="299.31 322.52 299.31 323.34 302.04 325.28 302.04 324.49 299.31 322.52"/><polygon class="cls-32" points="318.41 332.93 304.77 325.05 304.77 325.89 318.41 333.74 318.41 332.93"/><polygon class="cls-32" points="318.41 333.19 318.41 334.01 326.6 338.04 326.6 337.23 318.41 333.19"/><polygon class="cls-32" points="310.23 327.54 304.77 323.75 304.77 324.54 310.23 328.36 310.23 327.54"/><polygon class="cls-32" points="310.23 327.92 310.23 328.72 323.87 336.6 323.87 335.8 310.23 327.92"/><polygon class="cls-32" points="323.87 330.32 323.87 331.14 326.6 332.15 326.6 331.36 323.87 330.32"/><polygon class="cls-32" points="312.96 323.26 304.77 317.86 304.77 318.65 312.96 324.07 312.96 323.26"/><polygon class="cls-32" points="310.23 309.27 304.77 306.13 304.77 306.91 310.23 310.05 310.23 309.27"/><polygon class="cls-32" points="318.41 314.47 310.23 309.77 310.23 310.54 318.41 315.25 318.41 314.47"/><polygon class="cls-32" points="312.96 313.07 307.5 309.94 307.5 310.67 312.96 313.83 312.96 313.07"/><polygon class="cls-32" points="321.14 316.73 315.68 313.58 315.68 314.4 321.14 317.55 321.14 316.73"/><polygon class="cls-32" points="321.14 317.15 321.14 317.94 326.6 320.39 326.6 319.6 321.14 317.15"/><polygon class="cls-32" points="304.77 309.67 304.77 310.46 310.23 313.03 310.23 312.24 304.77 309.67"/><polygon class="cls-32" points="323.87 320.25 310.23 312.38 310.23 313.25 323.87 321.09 323.87 320.25"/><polygon class="cls-32" points="315.68 320.18 307.5 315.42 307.5 316.22 315.68 320.95 315.68 320.18"/><polygon class="cls-32" points="321.14 324.49 315.68 320.61 315.68 321.43 321.14 325.28 321.14 324.49"/><polygon class="cls-32" points="321.14 328.44 312.96 323.71 312.96 324.49 321.14 329.21 321.14 328.44"/><polygon class="cls-32" points="318.41 327.32 318.41 328.11 323.87 330.73 323.87 329.94 318.41 327.32"/><polygon class="cls-32" points="307.5 320.26 304.77 319.33 304.77 320.12 307.5 321.07 307.5 320.26"/><polygon class="cls-32" points="307.5 322.13 307.5 322.89 315.68 327.63 315.68 326.84 307.5 322.13"/><polygon class="cls-32" points="307.5 321.62 304.77 320.67 304.77 321.46 307.5 322.44 307.5 321.62"/><polygon class="cls-32" points="315.68 327.49 307.5 322.14 307.5 322.93 315.68 328.28 315.68 327.49"/><polygon class="cls-32" points="299.31 328.28 299.31 329.1 302.04 331.03 302.04 330.24 299.31 328.28"/><polygon class="cls-32" points="299.31 329.75 299.31 330.57 302.04 332.5 302.04 331.71 299.31 329.75"/><polygon class="cls-32" points="299.31 331.22 299.31 332.04 302.04 333.98 302.04 333.19 299.31 331.22"/><polygon class="cls-32" points="326.6 348.51 326.6 347.66 304.77 335.08 304.77 335.93 326.6 348.51"/><polygon class="cls-32" points="299.31 332.7 299.31 333.51 302.04 335.45 302.04 334.66 299.31 332.7"/><polygon class="cls-32" points="299.31 334.17 299.31 334.96 302.04 336.93 302.04 336.11 299.31 334.17"/><polygon class="cls-32" points="326.6 349.99 326.6 349.13 304.77 336.55 304.77 337.4 326.6 349.99"/><polygon class="cls-32" points="299.31 338.59 299.31 339.38 302.04 341.32 302.04 340.53 299.31 338.59"/><polygon class="cls-32" points="299.31 340.04 299.31 340.85 302.04 342.79 302.04 342 299.31 340.04"/><polygon class="cls-32" points="299.31 345.93 299.31 346.72 302.04 348.68 302.04 347.87 299.31 345.93"/><polygon class="cls-32" points="299.31 347.4 299.31 348.19 302.04 350.16 302.04 349.34 299.31 347.4"/><polygon class="cls-32" points="318.41 357.78 304.77 349.93 304.77 350.77 318.41 358.63 318.41 357.78"/><polygon class="cls-32" points="318.41 358.07 318.41 358.89 326.6 362.92 326.6 362.11 318.41 358.07"/><polygon class="cls-32" points="310.23 352.42 304.77 348.6 304.77 349.42 310.23 353.24 310.23 352.42"/><polygon class="cls-32" points="310.23 352.8 310.23 353.6 323.87 361.48 323.87 360.65 310.23 352.8"/><polygon class="cls-32" points="323.87 355.2 323.87 355.99 326.6 357.03 326.6 356.24 323.87 355.2"/><polygon class="cls-32" points="312.96 348.14 304.77 342.74 304.77 343.53 312.96 348.93 312.96 348.14"/><polygon class="cls-32" points="310.23 334.15 304.77 331.01 304.77 331.79 310.23 334.93 310.23 334.15"/><polygon class="cls-32" points="318.41 339.33 310.23 334.63 310.23 335.42 318.41 340.13 318.41 339.33"/><polygon class="cls-32" points="312.96 337.95 307.5 334.79 307.5 335.55 312.96 338.68 312.96 337.95"/><polygon class="cls-32" points="321.14 341.61 315.68 338.46 315.68 339.25 321.14 342.4 321.14 341.61"/><polygon class="cls-32" points="321.14 342 321.14 342.82 326.6 345.27 326.6 344.48 321.14 342"/><polygon class="cls-32" points="304.77 334.52 304.77 335.34 310.23 337.91 310.23 337.09 304.77 334.52"/><polygon class="cls-32" points="323.87 345.14 310.23 337.26 310.23 338.1 323.87 345.97 323.87 345.14"/><polygon class="cls-32" points="315.68 345.03 307.5 340.3 307.5 341.07 315.68 345.83 315.68 345.03"/><polygon class="cls-32" points="321.14 349.34 315.68 345.49 315.68 346.28 321.14 350.16 321.14 349.34"/><polygon class="cls-32" points="321.14 353.29 312.96 348.56 312.96 349.37 321.14 354.09 321.14 353.29"/><polygon class="cls-32" points="318.41 352.2 318.41 352.99 323.87 355.61 323.87 354.79 318.41 352.2"/><polygon class="cls-32" points="307.5 345.14 304.77 344.21 304.77 345 307.5 345.93 307.5 345.14"/><polygon class="cls-32" points="307.5 347.01 307.5 347.77 315.68 352.48 315.68 351.72 307.5 347.01"/><polygon class="cls-32" points="307.5 346.5 304.77 345.55 304.77 346.34 307.5 347.29 307.5 346.5"/><polygon class="cls-32" points="315.68 352.37 307.5 347.02 307.5 347.81 315.68 353.16 315.68 352.37"/><polygon class="cls-32" points="299.31 353.16 299.31 353.98 302.04 355.91 302.04 355.12 299.31 353.16"/><polygon class="cls-32" points="299.31 354.63 299.31 355.42 302.04 357.39 302.04 356.57 299.31 354.63"/><polygon class="cls-32" points="299.31 356.1 299.31 356.89 302.04 358.86 302.04 358.04 299.31 356.1"/><polygon class="cls-32" points="326.6 373.39 326.6 372.54 304.77 359.96 304.77 360.81 326.6 373.39"/><polygon class="cls-32" points="299.31 357.58 299.31 358.37 302.04 360.33 302.04 359.51 299.31 357.58"/><polygon class="cls-32" points="299.31 359.05 299.31 359.84 302.04 361.78 302.04 360.99 299.31 359.05"/><polygon class="cls-32" points="326.6 374.84 326.6 374.01 304.77 361.43 304.77 362.26 326.6 374.84"/><polygon class="cls-32" points="299.31 363.44 299.31 364.26 302.04 366.2 302.04 365.41 299.31 363.44"/><polygon class="cls-32" points="299.31 364.92 299.31 365.73 302.04 367.67 302.04 366.88 299.31 364.92"/><polygon class="cls-32" points="323.87 380.08 323.87 380.88 326.6 381.91 326.6 381.09 323.87 380.08"/><polygon class="cls-32" points="312.96 373.02 304.77 367.59 304.77 368.41 312.96 373.81 312.96 373.02"/><polygon class="cls-32" points="310.23 359 304.77 355.86 304.77 356.67 310.23 359.81 310.23 359"/><polygon class="cls-32" points="318.41 364.21 310.23 359.5 310.23 360.3 318.41 365.01 318.41 364.21"/><polygon class="cls-32" points="312.96 362.83 307.5 359.67 307.5 360.43 312.96 363.56 312.96 362.83"/><polygon class="cls-32" points="321.14 366.49 315.68 363.32 315.68 364.13 321.14 367.28 321.14 366.49"/><polygon class="cls-32" points="321.14 366.88 321.14 367.7 326.6 370.15 326.6 369.33 321.14 366.88"/><polygon class="cls-32" points="304.77 359.4 304.77 360.22 310.23 362.79 310.23 361.97 304.77 359.4"/><polygon class="cls-32" points="323.87 369.99 310.23 362.14 310.23 362.98 323.87 370.85 323.87 369.99"/><polygon class="cls-32" points="315.68 369.91 307.5 365.18 307.5 365.95 315.68 370.68 315.68 369.91"/><polygon class="cls-32" points="321.14 374.22 315.68 370.37 315.68 371.16 321.14 375.04 321.14 374.22"/><polygon class="cls-32" points="321.14 378.17 312.96 373.45 312.96 374.25 321.14 378.97 321.14 378.17"/><polygon class="cls-32" points="318.41 377.06 318.41 377.87 323.87 380.47 323.87 379.68 318.41 377.06"/><polygon class="cls-32" points="307.5 370.02 304.77 369.06 304.77 369.88 307.5 370.81 307.5 370.02"/><polygon class="cls-32" points="307.5 371.86 307.5 372.65 315.68 377.36 315.68 376.6 307.5 371.86"/><polygon class="cls-32" points="307.5 371.38 304.77 370.4 304.77 371.22 307.5 372.17 307.5 371.38"/><polygon class="cls-32" points="315.68 377.22 307.5 371.87 307.5 372.69 315.68 378.04 315.68 377.22"/><path class="cls-21" d="M193.56,217.51l-4-2.34a.3.3,0,0,0-.41.08c0,.06-.06.13-1.65.19v4.83a4.14,4.14,0,0,1,1.95.57l4,2.35a.31.31,0,0,0,.41-.13c0-.05,0-.09-.94-.14v-4.83C193.9,217.85,193.77,217.62,193.56,217.51Z"/><path class="cls-21" d="M193.56,224.74l-4-2.31a.28.28,0,0,0-.41.08c0,.05-.05.1-1.65.16v4.83a4.14,4.14,0,0,1,1.95.57l4,2.35a.31.31,0,0,0,.41-.13s0-.09-.94-.14v-4.81C193.89,225.1,193.77,224.87,193.56,224.74Z"/><path class="cls-21" d="M193.56,232l-4-2.32a.29.29,0,0,0-.41.09s-.05.1-1.65.16v4.86c1.61.23,1.75.45,1.95.57l4,2.32a.27.27,0,0,0,.38-.05c0-.06.07-.13-.91-.2v-4.83C193.89,232.33,193.77,232.1,193.56,232Z"/><path class="cls-21" d="M193.56,239.23l-4-2.35a.29.29,0,0,0-.41.09c0,.06-.06.12-1.65.19V242a4,4,0,0,1,1.95.57l4,2.35a.31.31,0,0,0,.41-.14s0-.09-.94-.14V239.8C193.9,239.56,193.77,239.34,193.56,239.23Z"/><path class="cls-21" d="M193.56,246.46l-4-2.32a.29.29,0,0,0-.41.09c0,.05-.05.1-1.65.16v4.83a4,4,0,0,1,1.95.57l4,2.34a.3.3,0,0,0,.41-.13s0-.09-.94-.14V247C193.86,246.74,193.74,246.56,193.56,246.46Z"/><path class="cls-21" d="M193.56,253.69l-4-2.32a.29.29,0,0,0-.41.09s-.05.1-1.65.16v4.85c1.61.24,1.75.46,1.95.58l4,2.31a.3.3,0,0,0,.41-.13s0-.07-.94-.11v-4.83C193.89,254.05,193.77,253.82,193.56,253.69Z"/><path class="cls-21" d="M193.56,261l-4-2.35a.29.29,0,0,0-.41.09c0,.05-.06.12-1.65.18v4.83a4.29,4.29,0,0,1,1.95.57l4,2.35a.3.3,0,0,0,.41-.13s0-.09-.94-.14v-4.83C193.9,261.28,193.77,261.05,193.56,261Z"/><path class="cls-21" d="M193.56,268.18l-4-2.35a.32.32,0,0,0-.43.16s0,.07-1.63.11v4.83a4.29,4.29,0,0,1,1.95.57l4,2.35a.3.3,0,0,0,.41-.13s0-.09-.94-.14v-4.8C193.9,268.53,193.77,268.3,193.56,268.18Z"/><path class="cls-21" d="M193.56,275.41l-4-2.32a.3.3,0,0,0-.41.08c0,.05-.05.11-1.65.16v4.86a4.13,4.13,0,0,1,1.95.54l4,2.35a.3.3,0,0,0,.41-.13s0-.08-.94-.12V276C193.89,275.76,193.77,275.53,193.56,275.41Z"/><path class="cls-21" d="M193.56,282.66l-4-2.34a.29.29,0,0,0-.41.08c0,.06-.06.12-1.65.19v4.83a3.94,3.94,0,0,1,1.95.57l4,2.32a.27.27,0,0,0,.38-.05c0-.06.07-.13-.91-.2v-4.82C193.9,283,193.77,282.77,193.56,282.66Z"/><path class="cls-21" d="M193.56,289.89l-4-2.34a.28.28,0,0,0-.41.08c0,.06-.06.12-1.65.19v4.83a4,4,0,0,1,1.95.57l4,2.35a.32.32,0,0,0,.41-.13c0-.05,0-.1-.94-.15V290.6C194,290.32,193.81,290,193.56,289.89Z"/><path class="cls-21" d="M193.56,297.12l-4-2.32a.29.29,0,0,0-.41.09c0,.05-.05.1-1.65.16v4.85a4.19,4.19,0,0,1,1.95.55l4,2.35a.32.32,0,0,0,.41-.13c0-.05,0-.1-.94-.15v-4.8C193.89,297.48,193.77,297.25,193.56,297.12Z"/><polygon class="cls-1" points="383.89 243.16 383.89 246.08 397.53 253.14 397.53 250.22 383.89 243.16"/><polygon class="cls-1" points="383.89 248.48 383.89 251.4 397.53 258.49 397.53 255.54 383.89 248.48"/><polygon class="cls-1" points="383.89 253.83 383.89 256.75 397.53 263.81 397.53 260.89 383.89 253.83"/><polygon class="cls-1" points="476.64 315.69 476.64 312.75 400.26 268.68 400.26 271.62 476.64 315.69"/><polygon class="cls-1" points="383.89 259.15 383.89 262.06 397.53 269.16 397.53 266.24 383.89 259.15"/><polygon class="cls-1" points="383.89 264.49 383.89 267.41 397.53 274.48 397.53 271.56 383.89 264.49"/><polygon class="cls-1" points="476.64 321.01 476.64 318.07 400.26 274.02 400.26 276.94 476.64 321.01"/><polygon class="cls-1" points="383.89 280.48 383.89 283.43 397.53 290.49 397.53 287.57 383.89 280.48"/><polygon class="cls-1" points="383.89 285.83 383.89 288.75 397.53 295.81 397.53 292.89 383.89 285.83"/><polygon class="cls-1" points="383.89 307.16 383.89 310.08 397.53 317.17 397.53 314.25 383.89 307.16"/><polygon class="cls-1" points="383.89 312.51 383.89 315.43 397.53 322.49 397.53 319.57 383.89 312.51"/><polygon class="cls-1" points="449.36 350.12 400.26 321.79 400.26 324.82 449.36 353.12 449.36 350.12"/><polygon class="cls-1" points="452.09 351.52 452.09 354.37 476.64 368.51 476.64 365.7 452.09 351.52"/><polygon class="cls-1" points="424.81 330.86 400.26 316.71 400.26 319.69 424.81 333.84 424.81 330.86"/><polygon class="cls-1" points="427.54 332.23 427.54 335.12 476.64 363.47 476.64 360.56 427.54 332.23"/><polygon class="cls-1" points="471.19 340.83 471.19 343.75 476.64 347.48 476.64 344.56 471.19 340.83"/><polygon class="cls-1" points="432.99 314.87 400.26 295.99 400.26 298.8 432.99 317.68 432.99 314.87"/><polygon class="cls-1" points="419.35 264.25 400.26 253.23 400.26 256 419.35 267.03 419.35 264.25"/><polygon class="cls-1" points="452.09 283.36 422.08 266.05 422.08 268.93 452.09 286.24 452.09 283.36"/><polygon class="cls-1" points="435.72 278.67 413.9 266.06 413.9 269.03 435.72 281.64 435.72 278.67"/><polygon class="cls-1" points="457.55 291.35 438.45 280.32 438.45 283.12 457.55 294.12 457.55 291.35"/><polygon class="cls-1" points="460.27 292.63 460.27 295.72 476.64 305.16 476.64 302.07 460.27 292.63"/><polygon class="cls-1" points="402.98 265.74 402.98 268.7 419.35 278.14 419.35 275.18 402.98 265.74"/><polygon class="cls-1" points="468.46 303.48 422.08 276.72 422.08 279.61 468.46 306.37 468.46 303.48"/><polygon class="cls-1" points="443.91 303.99 413.9 286.68 413.9 289.55 443.91 306.85 443.91 303.99"/><polygon class="cls-1" points="471.19 319.64 446.63 305.48 446.63 308.44 471.19 322.62 471.19 319.64"/><polygon class="cls-1" points="465.73 333.99 435.72 316.69 435.72 319.59 465.73 336.89 465.73 333.99"/><polygon class="cls-1" points="449.36 329.92 449.36 332.82 465.73 342.27 465.73 339.36 449.36 329.92"/><polygon class="cls-1" points="405.71 304.28 400.26 301.13 400.26 303.82 405.71 306.97 405.71 304.28"/><polygon class="cls-1" points="416.63 310.96 416.63 313.81 446.63 331.1 446.63 328.26 416.63 310.96"/><polygon class="cls-1" points="413.9 309.23 408.44 306.09 408.44 308.72 413.9 311.86 413.9 309.23"/><polygon class="cls-1" points="441.18 330.27 408.44 311.39 408.44 314.23 441.18 333.11 441.18 330.27"/><polygon class="cls-1" points="495.74 60.32 495.74 63.24 509.38 70.31 509.38 67.39 495.74 60.32"/><polygon class="cls-1" points="495.74 65.64 495.74 68.56 509.38 75.65 509.38 72.73 495.74 65.64"/><polygon class="cls-1" points="495.74 70.99 495.74 73.91 509.38 80.97 509.38 78.05 495.74 70.99"/><polygon class="cls-1" points="588.5 132.85 588.5 129.91 512.11 85.84 512.11 88.78 588.5 132.85"/><polygon class="cls-1" points="495.74 76.33 495.74 79.25 509.38 86.32 509.38 83.4 495.74 76.33"/><polygon class="cls-1" points="495.74 81.65 495.74 84.57 509.38 91.67 509.38 88.72 495.74 81.65"/><polygon class="cls-1" points="588.5 138.2 588.5 135.25 512.11 91.18 512.11 94.13 588.5 138.2"/><polygon class="cls-1" points="495.74 97.67 495.74 100.59 509.38 107.65 509.38 104.73 495.74 97.67"/><polygon class="cls-1" points="495.74 102.99 495.74 105.91 509.38 113 509.38 110.08 495.74 102.99"/><polygon class="cls-1" points="495.74 124.35 495.74 127.27 509.38 134.33 509.38 131.41 495.74 124.35"/><polygon class="cls-1" points="495.74 129.67 495.74 132.59 509.38 139.68 509.38 136.74 495.74 129.67"/><polygon class="cls-1" points="561.22 167.31 512.11 138.97 512.11 141.97 561.22 170.32 561.22 167.31"/><polygon class="cls-1" points="563.94 168.71 563.94 171.53 588.5 185.7 588.5 182.88 563.94 168.71"/><polygon class="cls-1" points="536.66 148.05 512.11 133.86 512.11 136.85 536.66 151.04 536.66 148.05"/><polygon class="cls-1" points="539.39 149.4 539.39 152.31 588.5 180.62 588.5 177.71 539.39 149.4"/><polygon class="cls-1" points="583.04 157.99 583.04 160.93 588.5 164.64 588.5 161.72 583.04 157.99"/><polygon class="cls-1" points="547.58 132.03 514.84 113.15 514.84 115.96 547.58 134.84 547.58 132.03"/><polygon class="cls-1" points="533.93 81.42 514.84 70.41 514.84 73.19 533.93 84.19 533.93 81.42"/><polygon class="cls-1" points="566.67 100.52 536.66 83.2 536.66 86.08 566.67 103.41 566.67 100.52"/><polygon class="cls-1" points="547.58 95.82 525.75 83.25 525.75 86.23 547.58 98.8 547.58 95.82"/><polygon class="cls-1" points="569.4 108.51 550.3 97.48 550.3 100.28 569.4 111.3 569.4 108.51"/><polygon class="cls-1" points="572.13 109.79 572.13 112.88 588.5 122.32 588.5 119.23 572.13 109.79"/><polygon class="cls-1" points="517.57 82.91 517.57 85.87 533.93 95.3 533.93 92.34 517.57 82.91"/><polygon class="cls-1" points="583.04 120.64 536.66 93.91 536.66 96.8 583.04 123.53 583.04 120.64"/><polygon class="cls-1" points="555.76 121.16 525.75 103.83 525.75 106.7 555.76 124.02 555.76 121.16"/><polygon class="cls-1" points="583.04 136.82 558.49 122.64 558.49 125.6 583.04 139.78 583.04 136.82"/><polygon class="cls-1" points="580.31 151.18 550.3 133.87 550.3 136.77 580.31 154.09 580.31 151.18"/><polygon class="cls-1" points="563.94 147.09 563.94 150 580.31 159.44 580.31 156.53 563.94 147.09"/><polygon class="cls-1" points="517.57 121.47 512.11 118.32 512.11 121.01 517.57 124.16 517.57 121.47"/><polygon class="cls-1" points="531.21 128.12 531.21 130.97 561.22 148.3 561.22 145.42 531.21 128.12"/><polygon class="cls-1" points="528.48 126.39 523.02 123.25 523.02 125.88 528.48 129.02 528.48 126.39"/><polygon class="cls-1" points="555.76 147.45 523.02 128.58 523.02 131.42 555.76 150.29 555.76 147.45"/><path class="cls-7" d="M274.42,435.19a16.39,16.39,0,0,0-15,2.29c-8.18,5.46-13.64,12.91-10.31,15.69s9.74,5.76,13.91,4.26S287.79,443.81,274.42,435.19Z"/><polygon class="cls-4" points="446.05 403.36 381.77 439.77 340.8 416.07 405.07 379.68 446.05 403.36"/><polygon class="cls-33" points="394.8 439.23 394.8 440.67 460.27 403.19 460.27 402.13 394.8 439.23"/><polygon class="cls-34" points="458.63 402.48 394.35 438.9 353.4 415.19 417.65 378.8 458.63 402.48"/><polygon class="cls-35" points="394.8 438.89 394.8 440.31 353.88 416.62 353.88 415.2 394.8 438.89"/><polygon class="cls-36" points="417.21 382.68 441.96 396.94 440.89 397.57 416.12 383.3 417.21 382.68"/><polygon class="cls-36" points="414.65 384.15 439.39 398.42 438.3 399.02 413.56 384.75 414.65 384.15"/><polygon class="cls-36" points="408.67 387.53 442.75 407.2 441.66 407.8 407.58 388.13 408.67 387.53"/><polygon class="cls-36" points="406.3 388.87 440.38 408.54 439.31 409.14 405.21 389.47 406.3 388.87"/><polygon class="cls-36" points="403.95 390.2 438.03 409.88 436.94 410.48 402.86 390.81 403.95 390.2"/><polygon class="cls-36" points="401.58 391.54 435.65 411.21 434.59 411.81 400.52 392.14 401.58 391.54"/><polygon class="cls-36" points="399.24 392.88 433.31 412.55 432.22 413.18 398.14 393.51 399.24 392.88"/><polygon class="cls-36" points="396.86 394.22 430.96 413.88 429.87 414.51 395.8 394.84 396.86 394.22"/><polygon class="cls-36" points="394.51 395.55 428.59 415.22 427.5 415.85 393.42 396.18 394.51 395.55"/><polygon class="cls-36" points="392.14 396.89 426.24 416.56 425.15 417.19 391.08 397.52 392.14 396.89"/><polygon class="cls-36" points="389.8 398.23 423.87 417.9 422.78 418.52 388.7 398.85 389.8 398.23"/><polygon class="cls-36" points="387.42 399.56 421.52 419.23 420.43 419.86 386.36 400.19 387.42 399.56"/><polygon class="cls-36" points="385.08 400.9 419.15 420.6 418.06 421.2 383.98 401.53 385.08 400.9"/><polygon class="cls-36" points="382.73 402.26 416.8 421.91 415.71 422.53 381.64 402.86 382.73 402.26"/><polygon class="cls-36" points="380.36 403.6 414.43 423.27 413.34 423.87 379.26 404.2 380.36 403.6"/><polygon class="cls-36" points="378.01 404.94 412.08 424.61 410.99 425.21 376.92 405.54 378.01 404.94"/><polygon class="cls-36" points="375.64 406.27 409.71 425.94 408.65 426.54 374.55 406.87 375.64 406.27"/><path class="cls-10" d="M347.86,422.77H343V431h4.12a4.07,4.07,0,0,1,4.07,4.06v10.89a4.24,4.24,0,0,1-4.31,4.14h-9.33v5.46h10.35c5.82.66,10.55-4.05,11.47-9.87V435.19c-.88-5.84-5.59-10.61-11.44-12.42Z"/><path class="cls-9" d="M345.69,420v36.51c0,5.67-8.54,10.25-19.08,10.25s-19.11-4.58-19.11-10.25V420Z"/><path class="cls-1" d="M307.92,421c0,5.65,8.43,10.26,18.86,10.26S345.6,426.63,345.6,421s-8.43-10.34-18.82-10.34S307.92,415.33,307.92,421Z"/><path class="cls-10" d="M311.69,420.84c0,4.45,6.74,8,15.09,8s15.08-3.57,15.08-8-6.76-8-15.08-8S311.69,416.42,311.69,420.84Z"/><path class="cls-8" d="M326.78,418.09c-6.61,0-12.2,2.26-14.27,5.45,2.07,3.14,7.66,5.46,14.27,5.46S339,426.73,341,423.54C339,420.35,333.38,418.09,326.78,418.09Z"/><path class="cls-10" d="M334.78,431.72v33.69a18.54,18.54,0,0,0,8.18-3.77v-33.7A18.56,18.56,0,0,1,334.78,431.72Z"/></g></g></svg>