<svg xmlns="http://www.w3.org/2000/svg" viewBox="0 0 416.29 353.88"><defs><style>.cls-1{fill:#262a51;stroke:#5bc5f2;stroke-miterlimit:10;stroke-width:4px;}.cls-2{fill:#fff;}.cls-3{fill:#5bc5f2;}</style></defs><title>boxing_1</title><g id="Capa_2" data-name="Capa 2"><g id="Capa_1-2" data-name="Capa 1"><path class="cls-1" d="M2,321.36l.15-316a3.16,3.16,0,0,1,4.4-2.91c19.91,8.45,105.18,41.9,207.54,41.9,101.12,0,176.83-33,195.66-42a3.17,3.17,0,0,1,4.54,2.85l-.05,313a3.16,3.16,0,0,1-4.72,2.76c-19-10.78-94-49.24-195.43-49.24C111.55,271.68,27,313.3,6.65,324.16A3.16,3.16,0,0,1,2,321.36Z"/><path class="cls-2" d="M67.53,68.66c11.22,3.79,17,12,18.24,23.41.79,7,.23,14.13.28,21.2.08,9.86,0,19.73,0,29.59,0,6.6-1.77,12.56-6.66,17.29-.41.41-.62.67-.1,1.18,5.37,5.21,6.71,11.91,6.74,19q.1,25,0,50.07c0,8.49-2.28,16.29-8,22.8l-1,1,0,0a34.54,34.54,0,0,1-4.85,3.41,39.42,39.42,0,0,1-6.46,2.13c-11.81,3.31-23.47,7.1-35.05,11.14a7.44,7.44,0,0,1-2.55.76V256.84c0-3,0-6.07,0-9.11,0-2.24.52-3,2.69-3.12,1.15-.05,2-.86,3.23-.71.54.07.73-.66.73-1.23V201.48c0-2.19,0-4.38-.06-6.56,0-4.82.06-9.64.05-14.45q0-17.59-.05-35.18v-.6c0-1.34.06-2.67.06-4q0-10.87,0-21.76c0-3.77,0-7.54-.05-11.31,0-7.61,0-15.21.07-22.82,0-.66-.19-1-.87-1.12-1.7-.36-3.37-.84-5.07-1.16-1.31-.25-.4-1.3-.79-1.87a.17.17,0,0,0,0-.24L28,57.56V56c2.16.26,4,1.31,5.95,1.93,3,.92,5.79,2.15,8.84,2.82,1.44.32,2.77,1.25,4.26,1.7q9.53,2.85,19,5.81a4.14,4.14,0,0,0,1.15.1l0,0C67.22,68.67,67.37,68.66,67.53,68.66Zm-15,137.39v32.11c0,.6-.11,1.26.88,1,3.2-.86,6.52-1.26,9.64-2.41a7.09,7.09,0,0,0,4.79-5.6,26.61,26.61,0,0,0,.43-5.34q0-17.1,0-34.19c0-4.23.08-8.46-.16-12.69-.25-4.46-1.9-6.2-6.34-6.35-2.63-.1-5.28.16-7.91.11-1.15,0-1.36.34-1.36,1.41C52.56,184.75,52.54,195.4,52.54,206.05Zm0-87.59v24.07c0,1.69,0,3.38,0,5.08,0,.56,0,.94.77.95,3.34,0,6.66.48,10,.31a4.29,4.29,0,0,0,4.44-3.64,14.07,14.07,0,0,0,.38-2.8c.33-9.47.11-18.94.15-28.4,0-5.13.15-10.27-.14-15.39-.26-4.54-2.17-6.93-6.53-8.06-2.55-.66-5.14-1.12-7.66-1.85-1.33-.38-1.43,0-1.43,1.18C52.56,99.42,52.54,108.94,52.54,118.46Z"/><path class="cls-2" d="M349.88,258.55c-8.75-5.74-11.95-14.47-13-24.31-.76-7.4-.31-14.84-.32-22.25q-.07-57,0-113.91a41,41,0,0,1,3.29-16.67c3.3-7.54,8.63-12.75,16.8-14.77,1.82-.45,3.6-1.1,5.39-1.65l.25-.14.32,0c7.16-2.15,14.26-4.49,21.26-7.08a27.35,27.35,0,0,0,4.45-1.58v1.4q0,26.76,0,53.51c0,1-.19,1.42-1.19,1.57-5.1.8-10.2,1.61-15.29,2.5-1.16.2-1.41-.09-1.4-1.22,0-8.47,0-16.94,0-25.4,0-1.26-.3-1.47-1.46-1.16-2.92.79-5.89,1.38-8.79,2.21-3.83,1.1-5.43,3.22-5.73,7.2-.44,5.82-.22,11.65-.22,17.48q0,55.59,0,111.2a31.16,31.16,0,0,0,.79,8.44,5.42,5.42,0,0,0,4.2,4.16L371.54,241v-1.75q0-30.56,0-61.13c0-1.42-.49-1.63-1.7-1.65-2.78,0-5.57-.21-8.36-.26-.84,0-1.06-.28-1.06-1.11,0-7.52,0-15.05,0-22.57,0-.85.15-1.2,1.12-1.24q13.14-.51,26.27-1.17c1.21-.07,1.44.28,1.44,1.42q0,59.28,0,118.54v1.64c-6.41-2.15-12.69-4.27-19-6.35-2.72-.9-5.45-1.77-8.21-2.55A75,75,0,0,1,349.88,258.55Z"/><path class="cls-2" d="M306.41,169.22l.11.89.2.57,0,.32.93,4.9.14,0V171c0-.8,0-1.6,0-2.4q.12-8.39-.19-16.75-.06-10.15-.11-20.32v-.29c0-.3,0-.61,0-.92.09-4,0-8-.19-11.94a16.56,16.56,0,0,0-.23-4.71c-.35-1.31.26-2.63.25-4q-.13-14.72-.24-29.44c0-.7-.11-1.26.92-1.47,7.73-1.56,15.43-3.22,23.22-5.18V85c0,3.39,0,6.77,0,10.16,0,.87-.11,1.34-1.16,1.42-1.42.12-2.82.6-4.25.73-1,.1-1.19.53-1.18,1.42,0,4.73,0,9.47,0,14.2q0,69.2,0,138.39c0,1.17-.23,1.39-1.39,1.12-4.89-1.1-9.8-2.12-14.71-3.13a1.42,1.42,0,0,1-1.34-1.28c-4.37-20.66-8.7-41.34-13.36-61.94-2.84-12.57-5.62-25.16-8.44-37.73a7.83,7.83,0,0,0-.44-1.09c0,1.13,0,2,0,2.82q.25,46.84.56,93.7c0,1.51-.63,1.4-1.66,1.24-5.85-.91-11.7-1.78-17.59-2.27a18.51,18.51,0,0,0-4.07-.35c-.67.09-.75-.28-.74-.87q.08-8.5.09-17c0-.95-.1-1.74,1.38-1.29a17.86,17.86,0,0,0,3.54.35c1.24.12,1.72-.5,1.63-1.67,0-.15,0-.3,0-.45V106.72c0-.5,0-1-.06-1.5s.14-1-.63-.84l-1.4.26c-1.24-.27-2.42.28-3.66.27-.71,0-.79-.24-.79-.85,0-5.87,0-11.73-.06-17.6,0-.62.3-.6.7-.65,2.69-.3,5.38-.59,8.06-.91,1.67-.2,3.33-.44,5-.67a1.71,1.71,0,0,0,1.19-.24l.31,0a3.24,3.24,0,0,0,1.81-.27l1.18-.09a1.9,1.9,0,0,0,1.19-.23,26.53,26.53,0,0,0,4.67-.64c1.46-.45,1.65.3,1.87,1.3.06.29.11.58.17.87l.18.24.07.64a16.66,16.66,0,0,0,.82,3.27,8.19,8.19,0,0,0,.41,2.13l.2.53.08.66.21.57a41.51,41.51,0,0,0,1,4.81l.16.31h0a2.4,2.4,0,0,0,.33,1.48l.07.59.21.61a4.86,4.86,0,0,0,.41,2.1l.2.56.07.63a.63.63,0,0,0,.21.62,3.3,3.3,0,0,0,.35,1.77,6.64,6.64,0,0,0,.57,2.36l.07.64.22.59c.4,2,.76,4,1.2,5.94,1.54,6.79,3.11,13.57,4.5,20.39.75,3.69,1.68,7.35,2.51,11,.23,1,.4,2,.6,3l.18.36.09.61c-.14.31,0,.55.19.79l.12.92.19.56.07.63.23.85.95,4.82a1.19,1.19,0,0,0,.25.87l.07.64.2.61.11.88.2.6.06.59a1.08,1.08,0,0,0,.25.88l.11.91.19.6,0,.3a1,1,0,0,0,.25.92l.11.89Z"/><path class="cls-2" d="M133.86,245.73l-3,.41-.61.19-1.19.11-.87.2c-4.51.53-9,1.43-13.41,2.27-2.64.49-5.28,1-8,.32-4.65-1.15-7.27-4.37-8.87-8.64a33,33,0,0,1-1.82-11.71q0-58.62,0-117.25c0-4.53,0-9.07.06-13.59A32.45,32.45,0,0,1,98,88.24a16.08,16.08,0,0,1,5.75-8.15l3-1.16c3.1-.74,6.16,0,9.23.28l.6.2.91.09a9.26,9.26,0,0,0,2.38.5,48.86,48.86,0,0,0,5.25.93,38,38,0,0,1,4.72.67c.26.22.53.48.81,0,2.17.1,4.06,1.37,6.22,1.5a.92.92,0,0,0,.92.6h0l.32.21a21.5,21.5,0,0,1,6.54,5.55c2.81,3.49,3.81,7.62,4.54,11.88a38.19,38.19,0,0,1,.3,6.41q0,57.61,0,115.24c0,6-1.4,11.6-5.31,16.36a18.64,18.64,0,0,1-8.78,5.89l-.5.22-.39,0A.65.65,0,0,0,133.86,245.73Zm-20-81.71h0c0,15.39,0,30.78,0,46.17a131.07,131.07,0,0,0,.26,13.73c.27,2.48.81,4.55,4.71,3.93,2.41-.38,4.83-.63,7.25-.94,3.65-.46,5.12-2,5.41-5.7.32-3.93.18-7.86.18-11.79q0-48,0-95.92c0-2.09,0-4.18-.22-6.27-.33-3.35-1.79-5.14-5.06-6a37.48,37.48,0,0,0-7.67-1c-2.66-.09-3.84.85-4.43,3.27a22,22,0,0,0-.47,5.18Q113.88,136.39,113.89,164Z"/><path class="cls-2" d="M213.73,107c-1.59,0-3.19.08-4.77,0-1.05-.07-1.32.41-1.56,1.28-1.85,6.78-3.75,13.55-5.63,20.32q-4.76,17.1-9.49,34.19a3.55,3.55,0,0,0-.09,2q6.74,24.26,13.42,48.52c0,.14.1.28.14.42l.22.54.12.66.16.32.09.57.21.61.38,1.48a.57.57,0,0,0,.23.58l.08.62.23.55c0,1.07.44,1.48,1.54,1.41,1.34-.09,2.69.05,4,0,.73,0,1.05.11,1,1q0,8.22,0,16.43c0,.8-.26,1-1,1q-8.52,0-17,.08c-.89,0-1-.36-1.21-1.08-3.58-14-7.18-28-10.85-42.28a20.37,20.37,0,0,0-1.31,4.53q-4.81,19.32-9.53,38.66a1.52,1.52,0,0,1-1.64,1.41c-5.7.48-11.39,1-17.08,1.59-.59,0-.79-.06-.79-.67q0-8.8,0-17.62c0-.57.16-.76.75-.78,1.24-.05,2.48-.25,3.72-.26,1,0,1.37-.34,1.58-1.31.5-2.27,1.15-4.5,1.74-6.75a.63.63,0,0,0,.22-.63l.05-.35.22-.54.1-.6a.65.65,0,0,0,.23-.6c.13-.59.27-1.19.41-1.78a3.73,3.73,0,0,0,.49-1.51,11.78,11.78,0,0,0,.67-2.69.62.62,0,0,0,.22-.6l.09-.56.16-.33.11-.63.24-.57,1.89-7.17a.56.56,0,0,0,.23-.61l5.7-20.47c1-3.62,2-7.26,3-10.89a4.12,4.12,0,0,0,0-2.31q-6.31-23.22-12.55-46.47-1.27-4.71-2.5-9.42c-.18-.68-.39-1.16-1.25-1.06a5.37,5.37,0,0,1-1.48-.16c-1.22-.23-3.06.4-3.51-.44s0-2.33,0-3.55c0-4.19,0-8.37,0-12.56a7.22,7.22,0,0,0,0-1c-.24-1.77-.14-1.6,1.57-1.59,2.72,0,5.34.8,8,.82,1.11,0,2.31,1,3.37-.19,0,0,.15,0,.21.08,1.31,1,2.84.7,4.29.75,1,0,1.2.44,1.46,1.36.89,3.08,1.7,6.21,2.42,9.29q1.45,6.2,2.92,12.4c1.62,6.84,3.39,13.65,5.1,20.47a3.15,3.15,0,0,0,.4.63c3.45-13.26,6.86-26.37,10.26-39.48a7.81,7.81,0,0,0,.36-2.28c-.05-1,.36-1.23,1.18-1.22a35.84,35.84,0,0,0,5.67.2l12.34.09c0,4.91.08,9.81.08,14.71A13.63,13.63,0,0,1,213.73,107Z"/><path class="cls-2" d="M229.88,88.18c5,.08,9.91-.44,14.85-.79,2.13-.15,4.26-.33,6.38-.5l1.2,0,.17.45c0,.55-.09,1.09-.09,1.63q0,8.3,0,16.59l-.05,0-1.53.24a2.38,2.38,0,0,0-.59,0c-1.43.18-3.27-.55-4.19.42s-.28,2.74-.28,4.16q0,52.16,0,104.3c0,1.84,0,3.69,0,5.53,0,2,0,2,2.08,1.95a5.8,5.8,0,0,0,2.11.21l2.36.1c.24,6.27.14,12.55.05,18.82-7.05-.45-14.11-.91-21.16-1.33-2.89-.17-5.77-.26-8.66-.35-.77,0-1.13-.19-1.13-1.07,0-5.38.07-10.75,0-16.12,0-1.07.36-1.23,1.26-1.17,1.34.08,2.7,0,4,.1,1,.08,1.27-.19,1.26-1.19,0-5,0-10,0-14.95q0-48.42,0-96.85c0-1.36-.36-1.73-1.67-1.56s-2.59.09-3.87.2c-.83.07-1-.25-1-1q0-8.22,0-16.44c0-.79.26-1,1-1,1.39,0,2.78-.07,4.18-.11A13,13,0,0,0,229.88,88.18Z"/><path class="cls-3" d="M3.45,326.32l78.74,27.14a7.6,7.6,0,0,0,5.68-.29c11.82-5.51,61-26.44,125.17-26.44,63.18,0,107.76,20.27,119.38,26.16a7.56,7.56,0,0,0,6.29.26l74.49-30.09S354.6,273.76,213,271.68,3.45,326.32,3.45,326.32Z"/></g></g></svg>