<svg xmlns="http://www.w3.org/2000/svg" viewBox="0 0 656.31 577.32"><defs><style>.cls-1,.cls-3{fill:#262a51;}.cls-1{stroke:#5bc5f2;stroke-miterlimit:10;stroke-width:5px;}.cls-2{fill:#6ec6d9;}.cls-3{font-size:276.92px;font-family:Impact;}</style></defs><title>coding_4</title><g id="Capa_2" data-name="Capa 2"><g id="Capa_1-2" data-name="Capa 1"><path class="cls-1" d="M328.16,480.69H65.25c-36.12,0-62.63-26.11-62.66-62.15q-.17-177.19,0-354.38C2.6,28.79,29.35,2.51,64.76,2.5H591.57c35.43,0,62.15,26.31,62.18,61.65q.15,177.44,0,354.87c0,22.51-9.69,40.08-28.54,52.4-9.87,6.45-20.81,9.29-32.63,9.29Q460.37,480.63,328.16,480.69Zm.25-458.18c-87.15,0-174.29.34-261.43-.22C42.5,22.14,22.4,39.78,22.47,66.14q.42,148.46,0,296.92c-.08,26.65,20.3,43.83,43.5,43.79q262.42-.47,524.85-.2c25.45,0,42.8-17.19,42.83-42.6q.18-149.21.06-298.41c0-7.06-1-14-4.33-20.3-8.67-16.2-22.4-23-40.57-22.92Q458.61,22.72,328.41,22.51Zm14.18,421.16a14.47,14.47,0,1,0-15.09,13.92A14.3,14.3,0,0,0,342.59,443.67Z"/><path class="cls-1" d="M333.4,574.66c-55.66,0-111.31-.17-167,.16-10.61.06-19.34-8.4-19.3-17.94.05-10.67,7.94-18.22,19.46-18.23,27,0,54-.11,81,.12,4,0,5.37-1.32,6.23-5,3.37-14.23,7.13-28.38,10.5-42.61.84-3.51,2.26-4.66,6-4.64q58,.24,116,0c3.54,0,4.88,1.05,5.67,4.38,3.39,14.23,7.14,28.38,10.5,42.62.9,3.81,2.21,5.27,6.54,5.23,31.16-.26,62.32-.16,93.48-.12a18.07,18.07,0,0,1,5.34,35.4c-2.45.74-5,.58-7.44.58Z"/><path class="cls-2" d="M328.41,22.51q130.2,0,260.42-.09c18.17,0,31.9,6.72,40.57,22.92,3.38,6.33,4.33,13.24,4.33,20.3q0,149.21-.06,298.41c0,25.41-17.38,42.59-42.83,42.6q-262.43.09-524.85.2c-23.2,0-43.58-17.14-43.5-43.79q.41-148.46,0-296.92c-.07-26.36,20-44,44.51-43.85C154.12,22.85,241.26,22.51,328.41,22.51Zm95.75,286c-.06-1.09.16-2.27-1-3,.61-2.76,4-1,5-3,3.27-1.35,6.64-1.15,11.32.23-4.35-3.39-7.81-3-11.32-2.23,0-.66,0-1.32,0-2,3.72-.37,7.38.44,11.08.57-3.61-2-7.23-3.65-11.12-.61-5-.48-10-3.06-15,0h0c-2.48.21-3.76,2-4.83,3.88-3.92,7-2,14.6-1.88,21.94,0,3,3.2,3.26,5.88,3.2s3.62-1.52,3.64-3.76c.07-5.26.64-10.5.79-15.7.15-4.76,1.53-4.1,4.4-2.56-1.23.25-4.05-.11-2.06,2.11,2.62,2.94,1.88,6.09,2,9.27.12,2.46-.2,5,.24,7.36.35,1.88,1.57,3.34,2.79.26,3.5.14,3.92-2.32,4-4.9.08-4,0-8.05,0-12.23C426.52,307.66,426.18,311.36,424.16,308.55Zm-197-8h0c.17-3.43-2.33-3.49-4.65-3.55-.82,0-1.66.57-2.89,1l2.83,1c-1.43,1.24-2.49,1.8-4.37.62s-5.43,1.66-4.66,3.64c2.24,5.74-.13,11.57.68,17.31.11.81.39,2.09-1.51,2.32-1.24-5.52.13-11.16-.65-16.69-.79,5.25-.69,10.48-.83,15.71-.09,3.52,1.18,6,4.82,6.22,3.85.22,5-2.65,5.17-5.88.17-3.48-.16-7,.13-10.46.23-2.73-.29-6.22,4.66-5.75C228.13,306.3,228.9,302.47,227.18,300.58Zm181-26c-2.73-5.18-10.16-6.9-15.26-2.93,6-3,10.31,1.29,15.23,3,.75,2.52,1.47,5,2.29,7.56.9,2.75.64,3.75-2.15,6.67a16.5,16.5,0,0,1,0-2.13A11.17,11.17,0,0,0,402.85,275c-4.29-2.27-8.16-1.49-12,2.47-2.88,2.95-1.91,6.54-1.15,9.84a5.27,5.27,0,0,0,5.34,4.34c1.88.09,5.35-1.45,5.36,1.31,0,2.53-3.53,1.27-5.52,1.59-.56.09-1.13.11-2.16.2a47.5,47.5,0,0,0,4.16,3.39c.64.41,2.63.68,2.21-.21-1.32-2.85,1.26-1.78,2-2.58,2.16-2.38,5.51-1.52,7.77-3.08C413.72,288.89,413.21,278.31,408.16,274.57Zm-21,26c-.92-5.15-5-3.64-8.27-4.05-2-.26-4.8,1.48-5.76-2.1-.61-2.29-.88-5.25-4.59-4.5-3.32.68-5.33,2.59-5.35,6.11-.05,6.48-.17,13,.06,19.43a13.17,13.17,0,0,0,4.08,9.28c2.84,2.69,6.58,4.44,10.3,3.32s8.54-1.8,8.53-7.5c2.23-2.43,3-5,1-8,.25-3-1.71-3-3.88-3-2.67,0-4.54,1-5.07,3.72-.32,1.71.21,4.18-2.55,3.87-2.59-.29-2.33-2.61-2.56-4.65-.47-4.08,1.25-5.41,5.1-4.93a27.61,27.61,0,0,0,5,0C387.7,307.28,388.82,305.27,387.15,300.58Zm-132,7c-3.19-.81-1.72-3.67-1.1-4.58,1.29-1.92.41-2.74-.81-3.66-4-3.06-12.84-2.92-16.83.2-4.56,3.56-7.58,12.73-5.43,17.46,1.61,3.56,2.25,8.38,6.28,9.78,6.09,2.11,12.67,3,19,1.11,4.23-1.26,4.49-4.73,1.71-8.1-2.53-3.08-6.07-1.65-9-2.43.77-4.4,5.47-5.76,6.22-9.74.25-.36.5-.72.72-1.09a4.19,4.19,0,0,0-.36-.25Zm69-9c-2.29-1-4.56-2.67-8.13,0h8.1c-1.76,1.81-6.2,2-9.26.74-9.54-4-17.1-2.79-20.3,5.6-2.37,6.22-1.75,12.69-.72,19.13.54,3.33,2.77,3.65,5.51,3.54,3.24-.13,3.71-2.35,3.78-4.79.09-3.5,0-7,0-10.49,0-2-.33-4.55,2.54-4.48s2.3,2.67,2.44,4.61c.26,3.8-.53,7.62.58,11.41.8,2.69,2.09,4.62,5.13,4.26s4.6-2.05,4.35-5.43-.07-7-.05-10.48c0-1.64-.27-3.63,2.29-3.51,2.12.1,2.67,1.66,2.67,3.51,0,4,.14,8,0,12s2.21,4.62,5.46,4.34c2.77-.24,3.53-2.46,4.28-4.72,4.85,4.77,5.64,5.09,9.63,4.13,7.5-1.81,10.45-5.43,10.59-13.92.06-3.78,1-6.11,4.94-7.42,4.77-1.56,5.25-4.29,2.13-8h0a4.3,4.3,0,0,0-4.35-1.45c-9,1.33-12.58,5.34-12.65,14.59,0,3.43-5.77,9.44-9.09,8.44-4.06-1.23-1.15-5.36-1.76-8.13-.13-.56.44-1.24.53-1.89A10.19,10.19,0,0,0,324.17,298.56Zm-118,21.14c2.5-10,2.4-20.17,1.66-30.34-.21-2.85-2.86-4-5.65-3.72s-4,2.08-4,4.79v8.44c-5.86-3.41-12-1.8-16.62,3.85-3.44,4.2-3.38,15.89.1,19.81,5.22,5.88,12,7.25,17.92,3.44-2.21-.87-4.33,1.82-6.41,0,10-3.91,12-6.79,12-17.43V289.65C205.93,299.65,206.72,309.65,206.17,319.7Zm84-2.38c.29-2.16-.29-4.72-.83-7.33-1.48-7.18-4.89-11.74-9.66-12.41-9.29-1.29-13.85.46-17.09,8-1.95,4.52-3.32,9.59-.36,14.58,4.12,6.94,9.81,9.23,17.07,6.27,1.84-.75,2.31.8,3.42,1.19,3.25,1.13,5.38.47,6.63-2.92A18.9,18.9,0,0,0,290.13,317.32Zm159-6.25c.5,14.64,8.83,17.91,19.31,17.43,2.23-.1,3.43-1.47,4.18-3.62.82-2.35.79-4.93-1.17-5.85-5.2-2.45-2.2-4.59-.24-7,1.06-1.27,2.16-2.52,3.11-3.86,2.41-3.42,1.51-5.74-1.9-8.22-5.44-3.95-10.74-3.59-16.27-.86S449.34,306.76,449.08,311.07Zm-6.19,12.87c-.57-5.63-.29-11.36-3.84-16.23-.8-1.09-.65-3.26-2.85-2.57-1.12.35-3.59.6-2.74,2.07,3.2,5.51,1,11.35,1.66,17,.41,3.51,2.87,4.24,5.63,4.32s4.3-1.63,4.35-4.38c.08-4.82.06-9.64,0-14.46a6.18,6.18,0,0,0-1.84-4.31C442.63,311.89,445.51,317.87,442.89,323.94Zm-40.74-23.77-1.5,0c-.22,7.56,1,15.21-.75,22.7a164.35,164.35,0,0,1-.76-18.8c0-1.43.32-3.27-1.93-3.34s-2,1.74-2,3.2c0,5.82,0,11.64,0,17.46,0,1.15-.17,2.72,1.26,2.91,5.19.7-.83,2.67.32,3.73.47.05.83.2,1.08.09,3.22-1.45,4.54-3.85,4.41-7.49C402,313.83,402.15,307,402.15,300.17Zm74.93,23c-.48,3.89,2.16,5.19,5.95,5.44,4.07.26,5.61-2.24,6-5.66.43-3.87-1.93-6.29-5.78-6.34C479.18,316.52,477.17,318.55,477.08,323.14ZM394,298.55c-2.66,4.31-2.51,24.6.25,27.88C392.38,317.15,393,307.85,394,298.55Zm35.31,26.22,1.26.32V308.53C428.17,313.88,429.83,319.36,429.31,324.77Zm13.85-22.21c-.58-.63-.9-1.22-1.39-1.47s-1.39-.12-1.19.77a2.57,2.57,0,0,0,1.19,1.32C442,303.3,442.49,302.87,443.16,302.56Zm-16,25,1.18-.48c-.26-.17-.51-.46-.78-.47-.46,0-1.21,0-1.32.25C425.92,327.53,426.61,327.43,427.12,327.6Z"/><path class="cls-2" d="M342.59,443.67a14.3,14.3,0,0,1-15.09,13.92,14.5,14.5,0,1,1,15.09-13.92Z"/><rect class="cls-2" x="122.68" y="241.61" width="434.57" height="129.46"/><text class="cls-3" transform="translate(125.74 366.85)">&lt;/&gt;</text></g></g></svg>