<svg xmlns="http://www.w3.org/2000/svg" viewBox="0 0 345.93 364.08"><defs><style>.cls-1{fill:#fefefe;}.cls-2{fill:#262a51;stroke-width:4px;}.cls-2,.cls-7{stroke:#5bc5f2;stroke-miterlimit:10;}.cls-3{fill:#f2f2f2;}.cls-4{fill:#5bc5f2;}.cls-5{fill:#f3ec88;}.cls-6{fill:#f7b043;}.cls-7{font-size:163.62px;fill:#fff;stroke-width:0.75px;font-family:RiverRocksFree-Regular, River Rocks Free;}</style></defs><title>food_1</title><g id="Capa_2" data-name="Capa 2"><g id="Capa_1-2" data-name="Capa 1"><path class="cls-1" d="M185.93,94.84,214.67,97l12.58,1.46s-2.32,24.18-4.08,24.64S173,126.23,173,126.23s-7.07-11.71-5.16-13.15S185.93,94.84,185.93,94.84Z"/><path class="cls-2" d="M343.83,169.45c.47,7.84-.89,15.56-2.08,23.23-3.59,23.21-10.06,45.58-20.81,66.57-21.3,41.58-54.24,68.65-99.94,79.58-24,5.73-48.22,6.62-72.68,4-21.87-2.35-42.64-8.13-62-18.71-23.67-12.91-41.88-31.4-55.57-54.44C16.26,245.32,8,218.82,4,190.88c-1-7.08-2.33-14.16-1.88-21.38l1.2,2.7a14.85,14.85,0,0,0,3,6.69,6.31,6.31,0,0,0,2.14,3.2,18.55,18.55,0,0,0,4.68,5.67,6.53,6.53,0,0,0,2.76,2.65c1.54,1.58,3,3.26,5.09,4.19a6.51,6.51,0,0,0,3.12,2.33,17.4,17.4,0,0,0,5.72,3.65,7,7,0,0,0,3.33,2A19.64,19.64,0,0,0,39,205.69a10.93,10.93,0,0,0,4.54,2.17,24.76,24.76,0,0,0,7.29,3.06c.53.82,1.46.75,2.24,1a29,29,0,0,0,7.54,2.67,8.24,8.24,0,0,0,3.76,1.4c2.87,1,5.68,2.21,8.76,2.5.61.75,1.5.61,2.31.71a32.59,32.59,0,0,0,8.85,2.23c.86.87,2,.6,3.06.75a34.73,34.73,0,0,0,9.67,2l2.35.67c3.43.56,6.77,1.69,10.3,1.56a5.1,5.1,0,0,0,3.06.7c2.69.3,5.32,1.15,8.07.91,1.7.95,3.54.7,5.35.65a28.16,28.16,0,0,0,8.77.84,6.24,6.24,0,0,0,3.87.57l5.1.17c3,1.05,6,.65,9.06.6l.85.05a235.08,235.08,0,0,0,38.36,0l2.37-.07c2.53.1,5.08.38,7.54-.58,2.94-.12,5.95.46,8.8-.77l3.81-.11,12.59-1.51a10.39,10.39,0,0,0,4.55-.68,64.37,64.37,0,0,0,13.29-2.26c1.61.34,3.06-.32,4.55-.74a117.12,117.12,0,0,0,14.11-3.09c.4.06.72,0,.78-.5h0a9.23,9.23,0,0,0,4.42-.89,93.67,93.67,0,0,0,16.28-5.17,15.07,15.07,0,0,0,6.1-2.15,101,101,0,0,0,19.31-8.57.43.43,0,0,0,.5-.38l1-.61a70.52,70.52,0,0,0,21.89-16.17c3.85-4.16,7.32-8.68,8.49-14.47l.06-.15a1.32,1.32,0,0,0,.59-1.36Zm-170.49,92a22.38,22.38,0,1,0,22.54,22.37A22.47,22.47,0,0,0,173.34,261.43Z"/><path class="cls-2" d="M207.22,115.76q15.19-31.94,30.38-63.87c7.46-15.73,14.92-31.45,22.26-47.24,1.1-2.37,1.8-3.11,4.48-1.65q15,8.12,30.3,15.61c2.76,1.35,2.46,2.37,1.22,4.61q-21,38-41.78,76c-.65,1.19-1.17,2.44-1.75,3.66L243,120.13c-3.91,6.16,4.28,2.08,3.94,5.14-1.18,0-2.65,0-4.11,0s-2.8-.23-3.54,1.33c-1.93,4.07-4.77,7.68-6.08,12.07-.11.13-.21.27-.32.41l.39-.34c1.47.15,2.6-.7,3.81-1.31a71.78,71.78,0,0,1,14.51-5.65c5.45-1.37,10.86-3.91,16.66-2.3,5.12,1.42,10.16,3.14,15.14,5,2.21.83,4.69,1.33,7.22,3.69-6.61-1.36-12.36-.74-18.16-.34a83.6,83.6,0,0,0-37.87,11.79c-2.88,1.72-4,3.22-1.41,6.15a21.22,21.22,0,0,1,3.5,5.67c1.13,2.61,2.17,2.16,4,.69a69.16,69.16,0,0,1,22.64-11.63c12.32-3.92,25-4.8,37.76-4.44a14.32,14.32,0,0,1,13.57,10.19,5.05,5.05,0,0,1-3.25.24,128.39,128.39,0,0,0-29.26,0c-13.27,1.56-25.52,5.7-36.28,13.86-2.62,2-3.62,4.07-2.11,7.26a21,21,0,0,1,1.91,6.37c.42,3.52,1.87,2.65,3.7,1.2a76.93,76.93,0,0,1,14.23-8.68c9.93-4.85,20.52-7,31.44-8,5-.43,9.87.51,14.8.85,1,.07,3.17.53,1.5,2.2-3.52,3.52-6.74,7.45-12.67,7.25-16.22-.54-30.75,4.59-43.43,14.51A26.69,26.69,0,0,1,242,199.14c-2.75.38-3.25-.22-3.63-2.82-1.94-13.24-6.14-25.7-13.79-36.84-1.31-1.92-2-2.47-3.34.1q-5.46,10.48-11.42,20.71a9.51,9.51,0,0,0-.85,9.08,60.79,60.79,0,0,1,2.6,10c.26,1.22.88,3.29-.66,3.64a21.42,21.42,0,0,1-7.74.24c-1.92-.28-1.47-2.64-1.79-4.07-4.27-19.28-15.66-33.59-31.2-45.06-2.13-1.58-2.82-.81-3.47,1.4q-2.28,7.83-5,15.53c-.59,1.7,0,2.65,1,3.91a69.91,69.91,0,0,1,13.59,27c.25.93.82,1.92-.21,2.7-2.42,1.85-9.15-.32-10.07-3.23-6.9-21.62-21.38-35-43.43-40.45-6.75-1.67-12.37-1.7-16.44,5.22-1.44,2.46-1.63,3.05,1.18,3.85a55.53,55.53,0,0,1,19.22,9.43c7.21,5.6,12.79,12.39,15.36,21.33.3,1,1.06,2.13,0,3.07-1.54,1.31-9.2-.49-10-2.41-6-14-17.8-19.83-31.76-22.77-1.95-.41-2.68.21-3.44,1.7-2.14,4.2-4.4,8.36-5.67,12.91-.76,2.7-2.3,3.16-4.67,2.47a28.89,28.89,0,0,0-2.89-.69c-2.25-.42-3-1.33-2.16-3.82a90.35,90.35,0,0,1,19.43-33.45,144.52,144.52,0,0,1,37.15-29.35,7.53,7.53,0,0,0,4.19-6c.35-2.34,1-4.64,1.58-7l2.48-11.75c1-1.09,1.61-2.24.84-3.71v0c.39-.11.65-.31.55-.77.26-1,.22-2.2,1-3.09,3.79-11.86,6.37-24,9.52-36.07,4.85-18.49,9.49-37,14.15-55.58.55-2.19,1.06-3,3.68-2.22,11,3.29,22.06,6.31,33.15,9.26,2.76.74,2.91,1.87,2.1,4.39Q195.43,64.72,180,113.58c-.11.35-.17.72-.25,1.08-.78,2-.93,3.6,2.09,3.24a3.9,3.9,0,0,1,2.5.3c4.58,3.44,10.36,4.41,15.14,7.37,2,1.25,3.05.67,3.9-1.34C204.56,121.38,205.92,118.58,207.22,115.76Zm-17.17,35.63c.95-.18.38-1.13.8-1.58l-.06.09c.84-.13.53-.85.68-1.33,1.92-3.83,3.86-7.65,5.75-11.49.72-1.47-.12-2.28-1.35-2.93a102.11,102.11,0,0,0-17.74-7.33c-1.75-.54-2.44.06-2.91,1.63-1.24,4.12-2.47,8.25-3.85,12.33a2.15,2.15,0,0,0,1,3c5.6,3.41,10.36,7.9,15.43,12,1.42.09-.19-1.37.78-1.51l-.05.09c1.05-.13.18-1.23.79-1.58l-.05.09c1-.16.28-1.18.8-1.58ZM121.5,151c3.87,1.09,7.09,1.88,10.23,2.91,1.68.54,2.05.4,2.48-1.54.62-2.79,1.9-5.47,2-8.4,0-.87,1.8-1.45.4-2.46s-2.07.38-2.87.93C129.81,145,126,147.78,121.5,151Z"/><path class="cls-1" d="M285.27,214.56A93.67,93.67,0,0,1,269,219.73c0-1.59,1.3-2.33,2.23-3.27,7.59-7.63,15.22-15.22,22.81-22.85,1-1,2.4-1.85,2.5-3.54,2-1.17,4.08-2.33,6.1-3.53,8.45-5,15.94-10.87,18.56-21,1.53-.12,2.28-1.36,3.22-2.29q6.13-6.07,12.23-12.22c1.05-1.06,2.05-2.15,3.75-1.89a11,11,0,0,1,2.24,5.22c.26,2-1.24,3.09-2.45,4.3q-26.06,26.07-52.11,52.14C287,211.89,285.47,212.76,285.27,214.56Z"/><path class="cls-1" d="M6.27,178.89a14.85,14.85,0,0,1-3-6.69c1-1.11,1.91-2.27,3-3.32q26.94-27,53.89-53.93c1.09-1.1,2.67-1.93,2.67-3.83h0l.78-.44a85.38,85.38,0,0,1,14-4c1.65,1.76-.4,2.36-1.14,3.11-6.91,7-13.91,14-20.85,20.94-1,1-2.42,1.82-2.46,3.53v0a1.43,1.43,0,0,0-1.47.73c-4.47,2.47-9.16,4.65-13.38,7.5C31.4,147.11,25.87,153,24.72,161.74q-7.59,7.5-15.18,15C8.6,177.65,7.83,178.89,6.27,178.89Z"/><path class="cls-1" d="M1.94,167.72A28.58,28.58,0,0,1,2,158.77c.7-.55.62-1.33.59-2.09v-.09c1.26,0,2-1,2.75-1.73l30.49-30.5c.78-.78,1.69-1.5,1.67-2.77h0l.73-.5a98.92,98.92,0,0,1,17.9-7.68c1.34,1.83-.62,2.37-1.39,3.15q-24.5,24.62-49.08,49.15C4.64,166.76,3.68,168,1.94,167.72Z"/><path class="cls-1" d="M343.83,169.45l-.6,1.25c-.2.45-.4.9-.59,1.36l-.06.15a3.35,3.35,0,0,0-2.48,1.4L313.68,200c-.79.79-1.66,1.53-1.48,2.82l-1,.61a.65.65,0,0,0-.5.38,101,101,0,0,1-19.31,8.57c-.16-1.64,1.16-2.38,2.09-3.31q23.75-23.79,47.54-47.55c.86-.85,1.57-2,3-2A33.52,33.52,0,0,1,343.83,169.45Z"/><path class="cls-1" d="M84.39,104.76c4.15-1,8.26-2.24,12.56-2.58,1.65,1.77-.42,2.36-1.16,3.11-6,6.1-12,12.09-18,18.14-.94.94-2.18,1.7-2.29,3.24L59.9,131.32c-.09-1.75,1.35-2.54,2.35-3.55,6.33-6.38,12.7-12.7,19-19.08,1-1,2.43-1.8,2.33-3.56l0,0Z"/><path class="cls-1" d="M103,100.91c3.7-.7,7.35-1.67,11.15-1.65,3,1.09.43,2.09-.2,2.74-5.36,5.49-10.82,10.88-16.23,16.32-.94,1-2.19,1.72-2.17,3.3l-14.83,3.46c.06-1.56,1.36-2.27,2.28-3.2,5.89-5.94,11.82-11.83,17.71-17.76C101.66,103.19,102.92,102.45,103,100.91Z"/><path class="cls-1" d="M122.35,98c3.47-.36,6.9-1.21,10.43-1,0,1.57-1.24,2.34-2.17,3.27-4.16,4.2-8.4,8.31-12.49,12.56-1.68,1.74-3.94,3-4.74,5.52a36.12,36.12,0,0,1-11.81,1.73c-1.49-1.8.52-2.35,1.27-3.11,5-5.13,10.09-10.15,15.13-15.23.93-.93,2.19-1.7,2.14-3.29h0A2.25,2.25,0,0,0,122.35,98Z"/><path class="cls-1" d="M148.5,96.16c-.78.89-.74,2-1,3.09L147,100v0c-3.45,1-5.18,4.08-7.45,6.4-3.34,3.41-7.43,6.17-9.7,10.56-4-.36-7.87,1-11.84.93-.12-1.61,1.16-2.37,2.09-3.31,4.6-4.64,9.26-9.22,13.83-13.89,1.26-1.29,3-2.22,3.39-4.24C141,96.53,144.72,95.05,148.5,96.16Z"/><path class="cls-3" d="M1.94,167.72c1.74.25,2.7-1,3.75-2q24.55-24.56,49.08-49.15c.77-.78,2.73-1.32,1.39-3.15a18.29,18.29,0,0,1,6.64-2.29c0,1.9-1.58,2.73-2.67,3.83q-26.93,27-53.89,53.93c-1,1.05-2,2.21-2.95,3.32l-1.2-2.7Z"/><path class="cls-3" d="M37.53,121.59c0,1.27-.89,2-1.67,2.77L5.37,154.86c-.79.78-1.49,1.69-2.75,1.73.85-5.57,3.76-10.15,7.24-14.34C17.4,133.15,26.85,126.53,37.53,121.59Z"/><path class="cls-3" d="M344,159.55c-1.42,0-2.13,1.15-3,2q-23.79,23.76-47.54,47.55c-.93.93-2.25,1.67-2.09,3.31a15.07,15.07,0,0,1-6.1,2.15c.2-1.8,1.69-2.67,2.8-3.78q26-26.09,52.11-52.14c1.21-1.21,2.71-2.26,2.45-4.3A11.14,11.14,0,0,1,344,159.55Z"/><path class="cls-4" d="M207.22,115.76c-1.3,2.82-2.66,5.62-3.87,8.47-.85,2-1.89,2.59-3.9,1.34-4.78-3-10.56-3.93-15.14-7.37a3.9,3.9,0,0,0-2.5-.3c-3,.36-2.87-1.21-2.09-3.24C188.9,114.8,198.07,115,207.22,115.76Z"/><path class="cls-1" d="M264.55,105.94a23.83,23.83,0,0,1,6.64,1.63c-.26,2.07-2.14,2.91-3.3,4.28-3.46,4.09-8.19,7-10.85,11.85l-8.91-2.22c3.91-6,9.55-10.38,14.64-15.27C263.12,105.87,263.94,106,264.55,105.94Z"/><path class="cls-1" d="M333.87,140.12a16.5,16.5,0,0,1,4.27,5.33q-7.15,7.34-14.31,14.66a3.19,3.19,0,0,1-2.67.91c-.78-2.23-1.56-4.45-2.33-6.68,3.47-3.61,6.9-7.26,10.45-10.8C330.63,142.2,331.63,140.31,333.87,140.12Z"/><path class="cls-1" d="M275.61,109a20.85,20.85,0,0,1,6.77,2.15c-.05,1.84-1.63,2.62-2.64,3.79-3.47,4-8.14,7-10.8,11.78l-8.91-2.8c3.08-4,7-7.28,10.5-10.86C272.05,111.48,273.17,109.35,275.61,109Z"/><path class="cls-1" d="M286.87,112.64a25,25,0,0,1,6.64,2.37c-.06,1.55-1.32,2.27-2.23,3.22-3.71,3.87-7.45,7.71-11.18,11.56-2.88-.2-5.4-1.68-8.15-2.35,2.32-4.63,6.76-7.34,10.1-11C283.39,114.9,284.52,112.93,286.87,112.64Z"/><path class="cls-1" d="M296.51,116.35a29.26,29.26,0,0,1,7.42,3.16c-.17,1.81-1.77,2.57-2.79,3.75-3.18,3.7-7.44,6.41-9.9,10.78-2.94-.31-5.32-2.22-8.13-2.88,0-1.56,1.31-2.28,2.21-3.23Q290.9,122.13,296.51,116.35Z"/><path class="cls-1" d="M307.82,121.52a18.21,18.21,0,0,1,5.78,3.08c-3.46,5.61-8.53,9.67-13.44,13.88a26.34,26.34,0,0,1-6.67-3.43c2.57-3.49,5.9-6.26,8.95-9.29C304,124.16,305.22,121.89,307.82,121.52Z"/><path class="cls-1" d="M325.69,132.67A16.39,16.39,0,0,1,330.8,137a50.8,50.8,0,0,1-14.24,14.31l-3.66-3.88c0-1.23-.12-2.43.92-3.4C317.83,140.33,321.31,136,325.69,132.67Z"/><path class="cls-1" d="M317.31,126.8a17.74,17.74,0,0,1,5.3,3.55c0,1.68-1.36,2.52-2.35,3.56-3.45,3.6-6.93,7.2-10.39,10.79L304,140.82C306.83,134.65,312,130.67,317.31,126.8Z"/><path class="cls-3" d="M83.61,105.13c.1,1.76-1.33,2.55-2.33,3.56-6.33,6.38-12.7,12.7-19,19.08-1,1-2.44,1.8-2.35,3.55v0l-.76.6a18,18,0,0,1-6,2.34c0-1.71,1.45-2.51,2.46-3.53,6.94-7,13.94-13.92,20.85-20.94.74-.75,2.79-1.35,1.14-3.11A14.24,14.24,0,0,1,83.61,105.13Z"/><path class="cls-3" d="M103,100.91c-.1,1.54-1.36,2.28-2.29,3.21-5.89,5.93-11.82,11.82-17.71,17.76-.92.93-2.22,1.64-2.28,3.2l-5.28,1.59c.11-1.54,1.35-2.3,2.29-3.24,6-6.05,12.08-12,18-18.14.74-.75,2.81-1.34,1.16-3.11C98.87,101.24,101,101.23,103,100.91Z"/><path class="cls-1" d="M243,120.13l9.33-17.23,6.95,1.67c-.18,2-1.93,2.75-3,4-3.56,4.17-8.38,7.19-11.13,12.12C244.28,121,243.69,120.39,243,120.13Z"/><path class="cls-3" d="M120.11,98.48c0,1.59-1.21,2.36-2.14,3.29-5,5.08-10.15,10.1-15.13,15.23-.75.76-2.76,1.31-1.27,3.11-1.64,2-3.93,1.29-6,1.51,0-1.58,1.23-2.35,2.17-3.3,5.41-5.44,10.87-10.83,16.23-16.32.63-.65,3.17-1.65.2-2.74C116.06,98.35,118.09,98.43,120.11,98.48Z"/><path class="cls-3" d="M137.26,96.49c-.36,2-2.13,3-3.39,4.24-4.57,4.67-9.23,9.25-13.83,13.89-.93.94-2.21,1.7-2.09,3.31v-.05l-.77.63-3.8-.13c.8-2.5,3.06-3.78,4.74-5.52,4.09-4.25,8.33-8.36,12.49-12.56.93-.93,2.18-1.7,2.17-3.27A10,10,0,0,1,137.26,96.49Z"/><path class="cls-3" d="M321.16,161a3.19,3.19,0,0,0,2.67-.91q7.14-7.34,14.31-14.66a7.93,7.93,0,0,1,2.25,3.67c-1.7-.26-2.7.83-3.75,1.89q-6.11,6.13-12.23,12.22c-.94.93-1.69,2.17-3.22,2.28Z"/><path class="cls-3" d="M245.13,120.72c2.75-4.93,7.57-8,11.13-12.12,1.09-1.28,2.84-2.07,3-4a13.81,13.81,0,0,1,5.27,1.37c-.61.08-1.43-.07-1.78.27-5.09,4.89-10.73,9.26-14.64,15.27A3.44,3.44,0,0,1,245.13,120.72Z"/><path class="cls-3" d="M275.61,109c-2.44.4-3.56,2.53-5.08,4.06-3.54,3.58-7.42,6.84-10.5,10.86l-3-.17c2.66-4.82,7.39-7.76,10.85-11.85,1.16-1.37,3-2.21,3.3-4.28A12.32,12.32,0,0,1,275.61,109Z"/><path class="cls-3" d="M286.87,112.64c-2.35.29-3.48,2.26-4.82,3.75-3.34,3.71-7.78,6.42-10.1,11l-3-.77c2.66-4.79,7.33-7.73,10.8-11.78,1-1.17,2.59-2,2.64-3.79A8.92,8.92,0,0,1,286.87,112.64Z"/><path class="cls-3" d="M316.56,151.35A50.8,50.8,0,0,0,330.8,137a9.23,9.23,0,0,1,3.07,3.08c-2.24.19-3.24,2.08-4.59,3.42-3.55,3.54-7,7.19-10.45,10.8C318.07,153.34,317.31,152.35,316.56,151.35Z"/><path class="cls-3" d="M296.51,116.35q-5.6,5.79-11.19,11.58c-.9.95-2.17,1.67-2.21,3.23-.93-.61-2.25-.37-3-1.37,3.73-3.85,7.47-7.69,11.18-11.56.91-1,2.17-1.67,2.23-3.22A5.78,5.78,0,0,1,296.51,116.35Z"/><path class="cls-3" d="M317.31,126.8c-5.3,3.87-10.48,7.85-13.36,14-1.52-.36-2.56-1.49-3.79-2.34,4.91-4.21,10-8.27,13.44-13.88A9.06,9.06,0,0,1,317.31,126.8Z"/><path class="cls-3" d="M309.87,144.7c3.46-3.59,6.94-7.19,10.39-10.79,1-1,2.32-1.88,2.35-3.56a6.52,6.52,0,0,1,3.08,2.32c-4.38,3.36-7.86,7.66-11.87,11.4-1,1-.95,2.17-.92,3.4A9.67,9.67,0,0,1,309.87,144.7Z"/><path class="cls-3" d="M307.82,121.52c-2.6.37-3.78,2.64-5.38,4.24-3.05,3-6.38,5.8-8.95,9.29l-2.25-1c2.46-4.36,6.72-7.07,9.9-10.77,1-1.18,2.62-1.94,2.79-3.75A10,10,0,0,1,307.82,121.52Z"/><path class="cls-3" d="M2.61,156.68c0,.76.11,1.54-.59,2.09A2.73,2.73,0,0,1,2.61,156.68Z"/><path class="cls-3" d="M122.35,98a2.25,2.25,0,0,1-2.26.49A2.81,2.81,0,0,1,122.35,98Z"/><path class="cls-3" d="M84.39,104.76l-.81.39Z"/><path class="cls-3" d="M63.56,110.69l-.78.44Z"/><path class="cls-3" d="M38.26,121.09l-.73.5Z"/><path class="cls-4" d="M173.34,261.43A22.38,22.38,0,1,1,150.8,283.8,22.46,22.46,0,0,1,173.34,261.43Z"/><path class="cls-1" d="M263.75,221.11a117.12,117.12,0,0,1-14.11,3.09c0-1.59,1.29-2.33,2.22-3.26,6.18-6.22,12.4-12.41,18.58-18.62.94-.94,2.18-1.71,2.27-3.25l17.75-6.29c-.3,1.45-1.52,2.2-2.46,3.14-7,7.06-14.08,14.08-21.1,21.15-1,1-2.45,1.78-2.33,3.55h0Z"/><path class="cls-1" d="M245.09,224.94a64.37,64.37,0,0,1-13.29,2.26c-.05-1.6,1.25-2.33,2.17-3.26,5.47-5.51,11-11,16.44-16.48.94-.94,2.19-1.7,2.17-3.28h0l1.47-.57,14.13-3.22c-6.4,7.47-13.79,14-20.56,21.06C246.63,222.49,245.26,223.29,245.09,224.94Z"/><path class="cls-1" d="M227.25,227.88l-12.59,1.51c.05-1.71,1.49-2.48,2.49-3.5q9.14-9.39,18.33-18.72l13.37-2.29c-5.9,6.93-12.78,12.92-19,19.51C228.81,225.43,227.42,226.22,227.25,227.88Z"/><path class="cls-1" d="M210.85,229.5c-2.85,1.23-5.86.65-8.8.77l-3.71-.25,20-20.63A70.86,70.86,0,0,1,231,207.86c-5.47,6.45-11.87,12-17.69,18.12C212.33,227,211,227.84,210.85,229.5Z"/><path class="cls-1" d="M194.51,230.85l-2.37.08c-1.6,0-3.21.07-4.81,0-1.17-.07-2.89.68-3.4-.53-.64-1.48,1.21-2.19,2.09-3.09,4.3-4.42,8.71-8.75,13-13.13.94-.94,2.17-1.72,2.19-3.28,3.37-1,6.84-.75,10.28-.8,2.6,0,1.9.93.66,2.16-4.89,4.85-9.78,9.7-14.6,14.62C196.42,228,194.79,228.94,194.51,230.85Z"/><path class="cls-1" d="M153.78,230.93l-.85-.05c.9-1,1.76-2.06,2.71-3q7.91-8.11,15.84-16.19l11.17-.07c-3.53,4.44-8.19,7.84-11.7,12.23C166.42,229.47,161.06,232.31,153.78,230.93Z"/><path class="cls-1" d="M143.87,230.28l-5.1-.17c4.92-5,9.84-10,14.74-15.05,1-1,2.38-1.86,2.36-3.58l11.89.14c-4.66,4.79-9.5,9.42-13.92,14.42C151.07,229.18,148,230.85,143.87,230.28Z"/><path class="cls-1" d="M134.9,229.54a28.16,28.16,0,0,1-8.77-.84c.12-.46.1-1.08.4-1.37,5.55-5.58,10.81-11.46,16.84-16.54l8.75.2a3.17,3.17,0,0,1-.92,2.68C145.72,218.91,140.74,224.66,134.9,229.54Z"/><path class="cls-1" d="M120.78,228.05c-2.75.24-5.38-.61-8.07-.91,0-1.56,1.31-2.29,2.22-3.23q7-7.24,14.14-14.44l10.4.78q-8.21,8.34-16.41,16.68A3.6,3.6,0,0,1,120.78,228.05Z"/><path class="cls-1" d="M109.65,226.44c-3.53.13-6.87-1-10.3-1.56l16.32-16.95c2.79-.32,5.43.75,8.17.84,1.75,1.07.66,1.87-.23,2.74-2.71,2.67-5.48,5.28-8,8.08C113.54,221.82,110.7,223.37,109.65,226.44Z"/><path class="cls-1" d="M97,224.21a34.73,34.73,0,0,1-9.67-2c4.33-5.36,9.62-9.8,14.33-14.79a4.34,4.34,0,0,1,3-1.1l8,1c-3.52,3.59-7.1,7.13-10.52,10.81C100.34,220.07,97.81,221.43,97,224.21Z"/><path class="cls-1" d="M84.27,221.44a32.59,32.59,0,0,1-8.85-2.23c3.23-4.25,7.44-7.57,11-11.49,1.21-1.33,3.06-2.22,3.22-4.35,3.3,0,6.42,1.14,9.63,1.7-.06,1.55-1.33,2.27-2.24,3.22Q90.68,214.89,84.27,221.44Z"/><path class="cls-1" d="M13.09,187.76a18.55,18.55,0,0,1-4.68-5.67A194.29,194.29,0,0,1,24.79,165.5c.63,2.89,2.09,5.45,3.24,8.13-1,.86-2.11,1.66-3.07,2.59C21,180.05,17,183.91,13.09,187.76Z"/><path class="cls-3" d="M153.78,230.93c7.28,1.38,12.64-1.46,17.17-7.11,3.51-4.39,8.17-7.79,11.7-12.23h3c0,1.72-1.43,2.54-2.45,3.56-5,5-10.09,10-15.89,15.81,3,0,4.76.08,6.56,0,2-.12,4.19.62,6-1.2,6.11-6.31,12.29-12.55,18.45-18.82l3,0c0,1.56-1.25,2.34-2.19,3.28-4.34,4.38-8.75,8.71-13,13.13-.88.9-2.73,1.61-2.09,3.09.51,1.21,2.23.46,3.4.53,1.6.1,3.21,0,4.81,0A236.21,236.21,0,0,1,153.78,230.93Z"/><path class="cls-1" d="M73.11,218.5c-3.08-.29-5.89-1.51-8.76-2.5,2.13-4.41,6.44-6.87,9.43-10.5,1.36-1.66,3.62-2.62,4-5.08a44,44,0,0,1,9.66,2.32c-3.34,3.45-6.73,6.85-10,10.37C75.83,214.78,73.59,216,73.11,218.5Z"/><path class="cls-1" d="M60.59,214.6a29,29,0,0,1-7.54-2.67,117.23,117.23,0,0,1,14.47-14.58,30.58,30.58,0,0,1,8,2.36A166.18,166.18,0,0,1,60.59,214.6Z"/><path class="cls-3" d="M312.2,202.85c-.18-1.29.69-2,1.48-2.82l26.42-26.42a3.35,3.35,0,0,1,2.48-1.4c-1.17,5.79-4.64,10.31-8.49,14.47A70.52,70.52,0,0,1,312.2,202.85Z"/><path class="cls-1" d="M50.81,210.92a24.76,24.76,0,0,1-7.29-3.06c-.33-1.73.85-2.69,1.88-3.74Q50.79,198.6,56.13,193l8.18,3.05c-2.28,2.38-4.65,4.69-6.83,7.17S52.09,207.54,50.81,210.92Z"/><path class="cls-1" d="M39,205.69a19.64,19.64,0,0,1-5.87-3.08c3.46-5.64,8.7-9.61,13.4-14.08l6.64,3.1c-1.83,4.08-5.66,6.38-8.56,9.49C43,202.86,41.68,205.2,39,205.69Z"/><path class="cls-1" d="M20.94,194.6c-2.09-.93-3.55-2.61-5.09-4.19,3.52-6,8.61-10.42,14.1-14.49l4.6,4.57C30.92,186.08,25.81,190.23,20.94,194.6Z"/><path class="cls-1" d="M29.78,200.58a17.4,17.4,0,0,1-5.72-3.65c0-1.69,1.37-2.52,2.35-3.58,3.41-3.68,7.37-6.82,10.41-10.86l6.74,4.4A103.64,103.64,0,0,1,29.78,200.58Z"/><path class="cls-3" d="M264.57,220.62c-.12-1.77,1.33-2.55,2.33-3.55C273.92,210,281,203,288,195.92c.94-.94,2.16-1.69,2.46-3.14a21.22,21.22,0,0,1,6.07-2.71c-.1,1.69-1.48,2.51-2.5,3.54-7.59,7.63-15.22,15.22-22.81,22.85-.93.94-2.23,1.68-2.23,3.27A9.23,9.23,0,0,1,264.57,220.62Z"/><path class="cls-3" d="M245.09,224.94c.17-1.65,1.54-2.45,2.54-3.49,6.77-7.1,14.16-13.59,20.56-21a10.61,10.61,0,0,1,4.52-1.33c-.09,1.54-1.33,2.31-2.27,3.25-6.18,6.21-12.4,12.4-18.58,18.62-.93.93-2.22,1.67-2.22,3.26C248.15,224.62,246.7,225.28,245.09,224.94Z"/><path class="cls-3" d="M227.25,227.88c.17-1.66,1.56-2.45,2.55-3.49,6.27-6.59,13.15-12.58,19-19.51,1.11-1,2.45-.67,3.73-.7,0,1.58-1.23,2.34-2.17,3.28-5.47,5.5-11,11-16.44,16.48-.92.93-2.22,1.66-2.17,3.26A10.39,10.39,0,0,1,227.25,227.88Z"/><path class="cls-3" d="M194.51,230.84c.28-1.9,1.91-2.8,3.09-4,4.82-4.92,9.71-9.77,14.6-14.62,1.24-1.23,1.94-2.16-.66-2.16,2.18-1.18,4.54-.52,6.82-.68l-20,20.63,3.71.25C199.59,231.23,197,231,194.51,230.84Z"/><path class="cls-3" d="M210.85,229.5c.13-1.66,1.48-2.48,2.47-3.52,5.82-6.11,12.22-11.67,17.69-18.12a8.2,8.2,0,0,1,4.47-.69q-9.16,9.36-18.33,18.72c-1,1-2.44,1.79-2.49,3.5Z"/><path class="cls-3" d="M143.87,230.28c4.17.57,7.2-1.1,10-4.24,4.42-5,9.26-9.63,13.92-14.42l3.72,0q-7.92,8.09-15.84,16.19c-.95,1-1.81,2-2.71,3C149.9,230.93,146.84,231.33,143.87,230.28Z"/><path class="cls-3" d="M134.9,229.54c5.84-4.88,10.82-10.63,16.3-15.87a3.17,3.17,0,0,0,.92-2.68,6.44,6.44,0,0,1,3.75.49c0,1.72-1.35,2.55-2.36,3.58-4.9,5-9.82,10-14.74,15.05A6.24,6.24,0,0,1,134.9,229.54Z"/><path class="cls-3" d="M120.78,228.05a3.6,3.6,0,0,0,2.28-1.12q8.19-8.34,16.41-16.68c1.33,0,2.69-.29,3.9.54-6,5.08-11.29,11-16.84,16.54-.3.29-.28.91-.4,1.37C124.32,228.75,122.48,229,120.78,228.05Z"/><path class="cls-3" d="M109.65,226.44c1-3.07,3.89-4.62,5.92-6.85,2.56-2.8,5.33-5.41,8-8.08.89-.87,2-1.67.23-2.74,1.82-.33,3.47.57,5.23.7q-7.08,7.22-14.14,14.44c-.91.94-2.19,1.67-2.22,3.23A5.1,5.1,0,0,1,109.65,226.44Z"/><path class="cls-3" d="M24.79,165.5A194.29,194.29,0,0,0,8.41,182.09a6.31,6.31,0,0,1-2.14-3.2c1.56,0,2.33-1.24,3.27-2.16q7.61-7.48,15.18-15C24.74,163,24.77,164.24,24.79,165.5Z"/><path class="cls-3" d="M97,224.21c.81-2.78,3.34-4.14,5.15-6.08,3.42-3.68,7-7.22,10.52-10.81a4.77,4.77,0,0,1,3,.61L99.35,224.88Z"/><path class="cls-3" d="M84.27,221.44q6.39-6.57,12.77-13.15c.91-.95,2.18-1.67,2.24-3.22l5.41,1.23a4.34,4.34,0,0,0-3,1.1c-4.71,5-10,9.43-14.33,14.79C86.28,222,85.13,222.31,84.27,221.44Z"/><path class="cls-3" d="M73.11,218.5c.48-2.55,2.72-3.72,4.28-5.39,3.27-3.52,6.66-6.92,10-10.37a2.45,2.45,0,0,1,2.26.63c-.16,2.13-2,3-3.22,4.35-3.57,3.92-7.78,7.24-11,11.49C74.61,219.11,73.72,219.25,73.11,218.5Z"/><path class="cls-3" d="M60.59,214.6a166.18,166.18,0,0,0,14.9-14.89,2.48,2.48,0,0,1,2.24.71c-.33,2.46-2.59,3.42-4,5.08-3,3.63-7.3,6.09-9.43,10.5A8.24,8.24,0,0,1,60.59,214.6Z"/><path class="cls-3" d="M39,205.69c2.7-.49,4-2.83,5.61-4.57,2.9-3.11,6.73-5.41,8.56-9.49l3,1.41q-5.35,5.55-10.73,11.08c-1,1-2.21,2-1.88,3.74A10.93,10.93,0,0,1,39,205.69Z"/><path class="cls-3" d="M30,175.92c-5.49,4.07-10.58,8.52-14.1,14.49a6.53,6.53,0,0,1-2.76-2.65C17,183.91,21,180.05,25,176.22c1-.93,2-1.73,3.07-2.59Z"/><path class="cls-3" d="M50.81,210.92c1.28-3.38,4.43-5.13,6.67-7.66s4.55-4.79,6.83-7.17a6,6,0,0,1,3.21,1.25,118,118,0,0,0-14.47,14.59C52.27,211.67,51.34,211.74,50.81,210.92Z"/><path class="cls-3" d="M36.82,182.49c-3,4-7,7.18-10.41,10.86-1,1.06-2.32,1.89-2.35,3.58a6.51,6.51,0,0,1-3.12-2.33c4.87-4.37,10-8.52,13.61-14.11Z"/><path class="cls-3" d="M29.78,200.58a103.64,103.64,0,0,0,13.78-13.69,6.4,6.4,0,0,1,2.95,1.64c-4.7,4.47-9.94,8.44-13.4,14.08A7,7,0,0,1,29.78,200.58Z"/><path class="cls-3" d="M342.64,172.06c.19-.46.39-.91.59-1.36A1.32,1.32,0,0,1,342.64,172.06Z"/><path class="cls-3" d="M310.68,203.84a.65.65,0,0,1,.5-.38A.43.43,0,0,1,310.68,203.84Z"/><path class="cls-3" d="M263.75,221.11l.78-.5C264.47,221.1,264.15,221.17,263.75,221.11Z"/><path class="cls-4" d="M46.51,188.53a6.4,6.4,0,0,0-2.95-1.64l-6.74-4.4-2.27-2L30,175.92,28,173.63c-1.15-2.68-2.61-5.24-3.24-8.13,0-1.26-.05-2.51-.07-3.76,1.15-8.79,6.68-14.63,13.57-19.27,4.22-2.85,8.91-5,13.38-7.5.58-.07,1.19-.07,1.47-.73v0a18,18,0,0,0,6-2.34l.76-.6v0l15.56-4.65,5.28-1.59,14.83-3.46c2.07-.22,4.36.44,6-1.51a36.12,36.12,0,0,0,11.81-1.73l3.8.13.77-.63v.05c4,.06,7.84-1.29,11.84-.93,1.67.51,3-1,4.56-.86,3.17,1,6.13-1.16,9.27-.64-.54,2.32-1.23,4.62-1.58,7a7.53,7.53,0,0,1-4.19,6,144.52,144.52,0,0,0-37.15,29.35,90.35,90.35,0,0,0-19.43,33.45c-.79,2.49-.09,3.4,2.16,3.82a28.89,28.89,0,0,1,2.89.69c2.37.69,3.91.23,4.67-2.47,1.27-4.55,3.53-8.71,5.67-12.91.76-1.49,1.49-2.11,3.44-1.7,14,2.94,25.72,8.81,31.76,22.77.83,1.92,8.49,3.72,10,2.41,1.09-.94.33-2,0-3.07-2.57-8.94-8.15-15.73-15.36-21.33a55.53,55.53,0,0,0-19.22-9.43c-2.81-.8-2.62-1.39-1.18-3.85,4.07-6.92,9.69-6.89,16.44-5.22,22.05,5.44,36.53,18.83,43.43,40.45.92,2.91,7.65,5.08,10.07,3.23,1-.78.46-1.77.21-2.7a69.91,69.91,0,0,0-13.59-27c-1-1.26-1.59-2.21-1-3.91q2.68-7.7,5-15.53c.65-2.21,1.34-3,3.47-1.4,15.54,11.47,26.93,25.78,31.2,45.06.32,1.43-.13,3.79,1.79,4.07a21.42,21.42,0,0,0,7.74-.24c1.54-.35.92-2.42.66-3.64a60.79,60.79,0,0,0-2.6-10,9.51,9.51,0,0,1,.85-9.08q6-10.22,11.42-20.71c1.34-2.57,2-2,3.34-.1,7.65,11.14,11.85,23.6,13.79,36.84.38,2.6.88,3.2,3.63,2.82a26.69,26.69,0,0,0,13.26-5.77c12.68-9.92,27.21-15.05,43.43-14.51,5.93.2,9.15-3.73,12.67-7.25,1.67-1.67-.54-2.13-1.5-2.2-4.93-.34-9.83-1.28-14.8-.85-10.92.95-21.51,3.14-31.44,8a76.93,76.93,0,0,0-14.23,8.68c-1.83,1.45-3.28,2.32-3.7-1.2a21,21,0,0,0-1.91-6.37c-1.51-3.19-.51-5.27,2.11-7.26,10.76-8.16,23-12.3,36.28-13.86a128.39,128.39,0,0,1,29.26,0,5.05,5.05,0,0,0,3.25-.24,14.32,14.32,0,0,0-13.57-10.19c-12.81-.36-25.44.52-37.76,4.44a69.16,69.16,0,0,0-22.64,11.63c-1.85,1.47-2.89,1.92-4-.69a21.22,21.22,0,0,0-3.5-5.67c-2.62-2.93-1.47-4.43,1.41-6.15a83.6,83.6,0,0,1,37.87-11.79c5.8-.4,11.55-1,18.16.34-2.53-2.36-5-2.86-7.22-3.69-5-1.87-10-3.59-15.14-5-5.8-1.61-11.21.93-16.66,2.3a71.78,71.78,0,0,0-14.51,5.65c-1.21.61-2.34,1.46-3.81,1.31l-.07-.07c1.31-4.39,4.15-8,6.08-12.07.74-1.56,2.21-1.3,3.54-1.33s2.93,0,4.11,0c.34-3.06-7.85,1-3.94-5.14.69.26,1.28.89,2.13.59a3.44,3.44,0,0,0,3,.76L257,123.7l3,.17,8.91,2.8,3,.77c2.75.67,5.27,2.15,8.15,2.35.76,1,2.08.76,3,1.37,2.81.66,5.19,2.57,8.13,2.88l2.25,1a26.34,26.34,0,0,0,6.67,3.43c1.23.85,2.27,2,3.79,2.34l5.92,3.88a9.67,9.67,0,0,0,3,2.77l3.66,3.88c.75,1,1.51,2,2.27,3,.77,2.23,1.55,4.45,2.33,6.68l0,4.49c-2.62,10.16-10.11,16-18.56,21-2,1.2-4.06,2.36-6.1,3.53a21.22,21.22,0,0,0-6.07,2.71l-17.75,6.29a10.61,10.61,0,0,0-4.52,1.33l-14.13,3.21a1.39,1.39,0,0,0-1.47.57h0c-1.28,0-2.62-.27-3.73.7l-13.37,2.29a8.2,8.2,0,0,0-4.47.69,70.86,70.86,0,0,0-12.65,1.53c-2.28.16-4.64-.5-6.82.68-3.44.05-6.91-.18-10.28.8l-3,0c-4.24-.38-8.41.62-12.63.67h-3l-11.17.07-3.72,0-11.89-.14a6.44,6.44,0,0,0-3.75-.49l-8.75-.2c-1.21-.83-2.57-.57-3.9-.54l-10.4-.78c-1.76-.13-3.41-1-5.23-.7-2.74-.09-5.38-1.16-8.17-.84a4.77,4.77,0,0,0-3-.61l-8-1-5.41-1.23c-3.21-.56-6.33-1.65-9.63-1.7a2.45,2.45,0,0,0-2.26-.63,44,44,0,0,0-9.66-2.32,2.48,2.48,0,0,0-2.24-.71,30.58,30.58,0,0,0-8-2.36,5.9,5.9,0,0,0-3.21-1.26L56.13,193l-3-1.41Zm28.23-58C68,131.38,62,134.25,55.93,137c-3.56,1.61-7.62,2.6-10.16,5.89-4.55,5.87-8.65,12-11.39,19s-2.49,8.11,3.19,12.91c1.77,1.5,2.44,1.4,3.1-1,3.16-11.74,9.43-21.6,18.1-30.14,4.95-4.88,10.68-8.7,16-13.11l1-.28c-.07-.09-.2-.27-.21-.27C75.27,130.14,75,130.33,74.74,130.51Zm62.33-11A223.49,223.49,0,0,0,108,122.85c-3.61.63-7.43.55-10.72,2.57C77,137.91,61.71,154.78,52,176.6c-2.79,6.29-2.64,6.18,3.32,9.09,2.56,1.24,3.11.51,4-1.84a102.12,102.12,0,0,1,31-41.95C104.12,130.61,120,123.85,137.07,119.53Z"/><path class="cls-4" d="M187.84,155.79c-5.07-4.1-9.83-8.59-15.43-12a2.15,2.15,0,0,1-1-3c1.38-4.08,2.61-8.21,3.85-12.33.47-1.57,1.16-2.17,2.91-1.63a102.11,102.11,0,0,1,17.74,7.33c1.23.65,2.07,1.46,1.35,2.93-1.89,3.84-3.83,7.66-5.75,11.49l-.68,1.33.06-.09c-.26.53-.53,1.06-.8,1.58l.06-.09c-.27.53-.53,1.06-.8,1.58l.05-.09-.79,1.58.05-.09Z"/><path class="cls-4" d="M121.5,151c4.5-3.18,8.31-5.93,12.2-8.56.8-.55,1.54-1.89,2.87-.93s-.38,1.59-.4,2.46c-.06,2.93-1.34,5.61-2,8.4-.43,1.94-.8,2.08-2.48,1.54C128.59,152.84,125.37,152.05,121.5,151Z"/><path class="cls-1" d="M143.62,115.5c-3.14-.52-6.1,1.59-9.27.64,3-5,7.66-8.43,11.75-12.39Z"/><path class="cls-3" d="M146.1,103.75c-4.09,4-8.75,7.39-11.75,12.39-1.6-.15-2.89,1.37-4.56.86,2.27-4.39,6.36-7.15,9.7-10.56,2.27-2.32,4-5.41,7.45-6.4C147.71,101.51,147.05,102.66,146.1,103.75Z"/><path class="cls-5" d="M233.28,138.75l-.39.34c.11-.14.21-.28.32-.41Z"/><path class="cls-3" d="M147,100l.55-.77C147.6,99.71,147.34,99.91,147,100Z"/><path class="cls-3" d="M53.14,134.24c-.28.66-.89.66-1.47.73A1.43,1.43,0,0,1,53.14,134.24Z"/><path class="cls-1" d="M59.91,131.28l-.76.6Z"/><path class="cls-1" d="M118,117.88l-.77.63Z"/><path class="cls-3" d="M252.59,204.18a1.39,1.39,0,0,1,1.47-.57Z"/><path class="cls-1" d="M185.63,211.59c4.22-.05,8.39-1.05,12.63-.67-6.16,6.27-12.34,12.51-18.45,18.82-1.77,1.82-3.93,1.08-6,1.2-1.8.1-3.61,0-6.56,0,5.8-5.76,10.87-10.77,15.89-15.81C184.2,214.13,185.6,213.31,185.63,211.59Z"/><path class="cls-2" d="M137.07,119.53c-17.06,4.32-32.95,11.08-46.71,22.37a102.12,102.12,0,0,0-31,41.95c-.94,2.35-1.49,3.08-4,1.84-6-2.91-6.11-2.8-3.32-9.09,9.68-21.82,25-38.69,45.24-51.18,3.29-2,7.11-1.94,10.72-2.57A223.49,223.49,0,0,1,137.07,119.53Z"/><path class="cls-2" d="M74.74,130.52c-5.29,4.41-11,8.23-16,13.11-8.67,8.54-14.94,18.4-18.1,30.14-.66,2.44-1.33,2.54-3.1,1-5.68-4.8-5.94-5.88-3.19-12.91s6.84-13.14,11.39-19c2.54-3.29,6.6-4.28,10.16-5.89,6-2.75,12.09-5.62,18.81-6.49Z"/><path class="cls-6" d="M74.74,130.51c.26-.18.53-.37.8-.54,0,0,.14.18.21.27l-1,.28Z"/><text class="cls-7" transform="translate(56.13 344.23)">Noodles</text></g></g></svg>