<svg xmlns="http://www.w3.org/2000/svg" viewBox="0 0 418.7 171.85"><title>Logo ITM</title><g id="Capa_2" data-name="Capa 2"><g id="Capa_1-2" data-name="Capa 1"><path d="M366.6,54q-8.5,38.09-16.94,76.15c-.47,2.15-1.29,2.8-3.59,2.76-10.23-.13-20.47-.09-30.7,0-1.91,0-2.11-.4-1.66-2.11,3.05-11.34,5.91-22.73,9-34.07,1.23-4.58,3.52-8.86,4.47-13.53.12-.58.21-1.15.3-1.68-.33-.25-.46-.12-.58.07-9.77,16-21.65,30.58-32.06,46.11-2.68,4-5.53,5.65-10.4,5.14a128,128,0,0,0-13.71-.31c-1.36,0-1.66-.38-1.56-1.64.76-8.88,1.41-17.77,2.14-26.64.6-7.31.9-14.65,2.34-22-1.1.13-1.06.84-1.28,1.32-7.53,16.18-16.36,31.76-24.59,47.61-.33.64-.52,1.32-1.58,1.32h-34c-.46-1.12.17-1.61.48-2.14q26-44.82,51.94-89.63A3.31,3.31,0,0,1,268,38.83q16.5.27,33,.29c1.93,0,2.28.55,2.13,2.23-1.39,15.82-2.14,31.7-5.56,47.3a6.76,6.76,0,0,0,0,.9c2.15-3.48,4.21-6.71,6.2-10,8-13.33,17.94-25.45,26.86-38.19.47-.68.92-1.37,1.38-2h35.53c1.55,0,2.4.15,1.86,2.12C368.29,45.58,367.52,49.84,366.6,54Z" style="fill:#0e365f"/><path d="M366.6,54c.92-4.19,1.69-8.42,2.82-12.57.54-2-.31-2.13-1.86-2.13H332a254.69,254.69,0,0,0-28.21-7.1c-10.48-2.13-21.06-3.75-31.7-5-11.27-1.3-22.57-2.18-33.91-2.73-13.84-.68-27.69-1-41.53-.71-8.26.15-16.5.82-24.75,1.26a1.18,1.18,0,0,1,.79-.95c4.13-.35,7.92-1.92,11.84-3,19.81-5.43,39.87-10,60.17-13.53C256,5.66,267.4,4,278.82,2.78c8.36-.86,16.76-1.47,25.15-2C310.7.3,317.44.19,324.13.21Q337.59,0,351,1.17c8.44.85,16.9,1.38,25.2,3.25,10.44,2.36,20.52,5.51,29.52,11.4,12.64,8.27,16.18,22,10.08,35.06a73.41,73.41,0,0,1-12.85,18.4c-3.13,3.42-6.71,6.35-10.07,9.53-1.28,1.2-1.81,1.21-2.34-.65a28.23,28.23,0,0,0-6.74-11.31A64.16,64.16,0,0,0,368.3,54.53,2.71,2.71,0,0,0,366.6,54Z" style="fill:#c9c9c8"/><path d="M52.28,120.12c.16,1,1,1,1.7,1.35,16,7.94,33,12.9,50.49,16.85,10.3,2.34,20.7,4.14,31.15,5.6,7.33,1,14.69,1.8,22.08,2.42,11.71,1,23.45,1.37,35.18,1.92,10.79.49,21.51-.26,32.27-.29,6.62,0,13.25-.79,19.88-1.21a9.09,9.09,0,0,1,2.33.16c-3,1.42-6.35,2.06-9.57,2.88-20.37,5.21-40.86,9.95-61.57,13.74-11.29,2.07-22.64,3.83-34.06,5.13-8.13,1-16.26,1.64-24.42,2.27a310.09,310.09,0,0,1-35.29.69c-15.51-.57-31-2-46.06-5.75-10.3-2.54-20-6.38-27.82-13.6C-.49,143.87-1.82,133.7,2,122.57c2.85-8.25,8.54-14.72,14.41-21.08,2.36-2.54,5-4.87,7.57-7.41,5,11.5,14.13,18.79,24.9,24.52-.27.79-.6,1.58.88,1.45A23,23,0,0,1,52.28,120.12Z" style="fill:#c9c9c8"/><path d="M252.52,39c-3.93,9.94-7.8,19.7-11.59,29.47-.48,1.22-1.35,1-2.24,1-5.5,0-11,.07-16.51,0a2.6,2.6,0,0,0-3,1.92C211.53,91,203.76,110.6,196.1,130.22a2.81,2.81,0,0,1-3.15,2.09c-10.77-.09-21.55-.11-32.33,0-2.14,0-2.41-.43-1.67-2.28q11.67-29.13,23.24-58.32c.27-.68.51-1.36.94-2.51H164.48c-1.58,0-1.81-.32-1.24-1.74,3.72-9.1,7.36-18.21,11-27.37.34-.87.69-1.45,1.92-1.45q37.91.18,75.81.23A2,2,0,0,0,252.52,39Z" style="fill:#0e365f"/><path d="M86.52,120.37c1.59-4,3.08-7.67,4.55-11.4.35-.88,1.09-.67,1.76-.66q4.65.06,9.3.16c.91,0,1.56-.09,1.94-1.11,1.27-3.32,2.67-6.6,4.14-10.18-3.7,0-7.15-.07-10.6,0-1.64,0-1.8-.41-1.22-1.76,1.24-3,2.39-6,3.48-9a1.91,1.91,0,0,1,2.2-1.41c3,.08,6.05,0,9.07.06a2.17,2.17,0,0,0,2.5-1.67C114.7,80.58,116,77.8,117,75a1.91,1.91,0,0,1,2.18-1.41c3.1.09,6.2,0,9.3,0a2,2,0,0,0,2.23-1.39c1.09-2.77,2.25-5.52,3.52-8.21.65-1.38.47-1.82-1.17-1.79-3.56.07-7.12,0-10.82,0a16.08,16.08,0,0,1,1.53-4.45c2.33-6,4.71-11.91,7.06-17.87.3-.75.4-1.53,1.6-1.53h35.92c-2.84,7.14-5.47,13.78-8.1,20.41L132,130.34c-.34.87-.41,1.78-1.87,1.78-11.78-.06-23.56,0-35.62,0,1.36-3.42,2.55-6.71,4-9.88.72-1.62.2-1.85-1.36-1.81C93.66,120.43,90.27,120.37,86.52,120.37Zm41-23.37c1.4,0,2.8-.09,4.19,0a2.23,2.23,0,0,0,2.67-1.59l0-.14c.91-2.87,2-5.62,3.12-8.38.42-1,.39-1.49-.93-1.47q-4.77.06-9.54,0a1.57,1.57,0,0,0-1.69,1.11c-1.19,3.06-2.43,6.1-3.66,9.13-.37,1-.17,1.38,1,1.34,1.6,0,3.23,0,4.86,0Z" style="fill:#0e365f"/><path d="M172.72,24.09a1.18,1.18,0,0,0-.79.95c-5,4.59-10.63,7.88-17.64,8.7a18.91,18.91,0,0,1-6.91-.4c-6.11-1.54-9.5-6.76-8.38-12.79C141.1,9.13,154.64-.87,166.68.06c8.5.66,13.17,7,11,15.07A24.68,24.68,0,0,1,172.72,24.09Z" style="fill:#0e365f"/><path d="M87.57,85.12c-1.5,3.88-2.92,7.53-4.32,11.2a1.23,1.23,0,0,1-1.38.87H70.17L74.35,86a1.26,1.26,0,0,1,1.36-1C79.57,85.13,83.44,85.12,87.57,85.12Z" style="fill:#0e365f"/><path d="M99.73,38.43h4.89c1,0,1.46.23,1,1.27-1.33,3.24-2.66,6.48-3.93,9.74a1.33,1.33,0,0,1-1.6.9c-3.25-.11-6.5-.24-9.76-.26-1.4,0-1.53-.39-1-1.56,1.25-2.87,2.4-5.75,3.52-8.71a1.91,1.91,0,0,1,2.22-1.39C96.63,38.51,98.18,38.43,99.73,38.43Z" style="fill:#0e365f"/><path d="M66.93,73.35c-1.62,4-3,7.4-4.4,10.85a1.41,1.41,0,0,1-1.53,1H49.45c1.5-3.77,2.94-7.34,4.33-10.93.35-1,1-1,1.83-1C59.24,73.36,62.87,73.35,66.93,73.35Z" style="fill:#0e365f"/><path d="M92.17,73.56c1.47-3.67,2.91-7.16,4.25-10.69a1.37,1.37,0,0,1,1.56-1h11.45c-1.45,4-2.81,7.72-4.18,11.5a.94.94,0,0,1-1.12.57C100.24,73.41,96.3,73.88,92.17,73.56Z" style="fill:#0e365f"/><path d="M52.28,120.12a20.69,20.69,0,0,0-2.49,0c-1.48.12-1.15-.66-.88-1.46,1.11-2.87,2.29-5.63,3.31-8.5a2.1,2.1,0,0,1,2.41-1.7h0c3.08.12,6.18.08,9.27,0,1.34,0,1.58.29,1.08,1.51-1.22,3-2.34,5.94-3.42,8.94a1.65,1.65,0,0,1-1.87,1.2C57.23,120,54.75,120.1,52.28,120.12Z" style="fill:#0e365f"/><path d="M248.53,146.48l.17,0v.22h-.17A.92.92,0,0,0,248.53,146.48Z" style="fill:#c9c9c8"/></g></g></svg>