<svg xmlns="http://www.w3.org/2000/svg" viewBox="0 0 182.12 177.4"><defs><style>.cls-1{fill:aqua;}.cls-2{fill:#fff;}</style></defs><title>Recurso 4</title><g id="Capa_2" data-name="Capa 2"><g id="Capa_1-2" data-name="Capa 1"><path class="cls-1" d="M83.69,79.09,34.21,164.63l-5.74-5.35c-1.38-1.29-2.73-2.61-4.13-3.86a.76.76,0,0,1-.28-1l.09-.12q13.17-23,26.29-46c1.69-3,3.56-5.83,5-8.91,1.34-2.81,0-6.62-3.88-6.62q-15.67,0-31.38.07-9.57,0-19.18.12c-.74,0-.91-.2-.91-.91,0-4-.07-7.9-.11-11.82C0,78.84-.14,79,1.16,79H82.71A1.51,1.51,0,0,1,83.69,79.09Z"/><path class="cls-1" d="M91.13,93.31l10.06,16.86L137,170.22c.39.65.41.91-.33,1.3-3.64,1.82-7.27,3.77-10.91,5.7-.59.32-.83.24-1.18-.35-9.78-16.66-19.62-33.28-29.34-50a4.68,4.68,0,0,0-6.43-1.53,4.83,4.83,0,0,0-.68.51,2.76,2.76,0,0,0-.52.71Q72.81,151.6,58,176.65c-.44.75-.75.8-1.47.43-3.44-1.73-6.9-3.4-10.39-5.05-.63-.3-.78-.5-.38-1.18q13-22.14,25.85-44.34L90.54,94.06A1.74,1.74,0,0,1,91.13,93.31Z"/><path class="cls-1" d="M99.33,79.09H181c.91,0,1.11.23,1.1,1.1-.05,3.92,0,7.85,0,11.76,0,.64-.13.86-.81.85l-47.82-.19h-3a4.23,4.23,0,0,0-4.07,3.7,6,6,0,0,0,.83,4Q142.86,127.15,158.4,154a.85.85,0,0,1-.08,1.2l-.11.09q-4.8,4.25-9.53,8.57c-.5.45-.7.47-1.05-.16Q134.81,141.2,122,118.72,110.83,99.2,99.69,79.64A3,3,0,0,1,99.33,79.09Z"/><path class="cls-1" d="M91.8,39.23a19.62,19.62,0,1,1,19.58-19.71A19.61,19.61,0,0,1,91.8,39.23Z"/><path class="cls-2" d="M98.09,54.59V71c0,.5-.08.74-.67.73H87.79c-.57,0-.69-.18-.69-.71V46.86c0-.56.16-.69.7-.69h13.26a1.27,1.27,0,0,1,1,.56L116,62l1,1.12a1.81,1.81,0,0,0,.12-1v-15c0-.66.12-.91.86-.91,3.09,0,6.18,0,9.27,0,.66,0,.84.16.84.83V70.83c0,.66-.17.84-.83.84H113.68a1.44,1.44,0,0,1-1.17-.6q-6.89-7.95-13.82-15.86A7.46,7.46,0,0,0,98.09,54.59Z"/><path class="cls-2" d="M14.67,62.82h4.94c.41,0,.63,0,.57.56a2.2,2.2,0,0,0,1.3,2.22,7.54,7.54,0,0,0,3,.83,18.37,18.37,0,0,0,6.23-.25c1.51-.39,2.32-1.07,2.23-1.91-.14-1.3-1.28-1.52-2.25-1.81-2.34-.59-4.74-.91-7.11-1.27a44.91,44.91,0,0,1-9.16-2.1,7.42,7.42,0,0,1-4.55-3.8,5.63,5.63,0,0,1,2.38-7.1,16.8,16.8,0,0,1,7-2.38,55.17,55.17,0,0,1,14.18-.16,17.93,17.93,0,0,1,6.83,1.9,6,6,0,0,1,3.29,4.84c.05.52,0,.73-.62.73H33.63c-.27,0-.64.09-.72-.32-.28-1.45-1.46-1.81-2.64-2.1a18.29,18.29,0,0,0-6.76-.08,4.6,4.6,0,0,0-1.08.37,1.38,1.38,0,0,0-.91,1.28,1.43,1.43,0,0,0,.91,1.31,16.27,16.27,0,0,0,4.34,1.09c4.12.72,8.31,1.18,12.32,2.49A9.84,9.84,0,0,1,43,59.32a5.65,5.65,0,0,1,.5,8,5.89,5.89,0,0,1-1,.9,14.84,14.84,0,0,1-6.64,2.73,52.36,52.36,0,0,1-19.57-.13,9.3,9.3,0,0,1-6-3.31,7.57,7.57,0,0,1-1.3-4c-.05-.5.19-.59.62-.58C11.3,62.83,13,62.82,14.67,62.82Z"/><path class="cls-2" d="M130,71.75,132.6,68l14.63-21.12a1.36,1.36,0,0,1,1.28-.68h11.13a1.24,1.24,0,0,1,1.2.66q7.92,12.06,15.88,24.08c.16.23.49.46.33.75s-.5.1-.75.1h-11a1.21,1.21,0,0,1-1.22-.75c-.58-1.13-1.23-2.21-1.81-3.33a1,1,0,0,0-1-.58H144.8a1,1,0,0,0-1,.6c-.68,1.17-1.38,2.33-2.09,3.48-.15.28-.29.57-.71.57C137.42,71.74,133.79,71.75,130,71.75ZM158.9,61.52l-5.46-9.25c-2,3.13-3.85,6.15-5.81,9.25Z"/><path class="cls-2" d="M65.76,71.67H51c-.65,0-.86-.13-.85-.81V47c0-.72.23-.85.91-.85H79.8c.62,0,.91.11.85.81-.06,1.29-.05,2.59,0,3.89,0,.69-.23.81-.85.81H62.65c-.83,0-1.18.17-1.07,1s-.4,2.3.22,2.9,1.82.15,2.82.15H78.41c.65,0,.85.16.82.83,0,1.26,0,2.53,0,3.8,0,.67-.18.83-.84.83H62.66c-.84,0-1.14.19-1.08,1.07a22.76,22.76,0,0,1,0,3.09c0,.72.23.91.91.91H80.34c.78,0,1.08.16,1,1a32.62,32.62,0,0,0,0,3.7c0,.66-.16.85-.83.85C75.61,71.65,70.69,71.67,65.76,71.67Z"/></g></g></svg>