<svg xmlns="http://www.w3.org/2000/svg" viewBox="0 0 200.37 195.15"><defs><style>.cls-1{fill:#ec6824;}</style></defs><title>LogoSENA</title><g id="Capa_2" data-name="Capa 2"><g id="Capa_1-2" data-name="Capa 1"><path class="cls-1" d="M92.08,87,37.65,181.1l-6.32-5.88c-1.51-1.42-3-2.87-4.54-4.25a.84.84,0,0,1-.21-1.28q14.49-25.27,28.92-50.6c1.86-3.26,3.92-6.42,5.53-9.8C62.5,106.2,61,102,56.76,102q-17.25,0-34.52.08-10.54,0-21.1.13c-.82,0-1-.22-1-1,0-4.35-.08-8.69-.12-13,0-1.49-.16-1.32,1.27-1.32H91A1.67,1.67,0,0,1,92.08,87Z"/><path class="cls-1" d="M100.27,102.64l11.07,18.55q19.69,33,39.42,66.06c.43.72.45,1-.36,1.43-4,2-8,4.15-12,6.27-.65.35-.92.27-1.3-.38-10.76-18.33-21.58-36.61-32.28-55A5.14,5.14,0,0,0,97,138.45a3,3,0,0,0-.57.78q-16.32,27.54-32.6,55.1c-.48.82-.82.88-1.62.47-3.78-1.9-7.59-3.74-11.42-5.56-.7-.33-.86-.55-.42-1.29q14.25-24.37,28.44-48.78l20.81-35.7A1.84,1.84,0,0,1,100.27,102.64Z"/><path class="cls-1" d="M109.29,87h1.18q44.34,0,88.69,0c1,0,1.22.25,1.21,1.21-.06,4.31,0,8.63,0,12.94,0,.7-.14.94-.89.93l-52.61-.21c-1.11,0-2.21,0-3.31,0a4.66,4.66,0,0,0-4.48,4.07,6.71,6.71,0,0,0,.91,4.43q17.18,29.5,34.28,59a.94.94,0,0,1-.21,1.42q-5.28,4.68-10.48,9.43c-.55.5-.77.52-1.16-.17q-14.1-24.73-28.22-49.45-12.27-21.48-24.52-43C109.57,87.49,109.48,87.32,109.29,87Z"/><path class="cls-1" d="M101,43.15a21.58,21.58,0,1,1,21.55-21.69A21.62,21.62,0,0,1,101,43.15Z"/><path class="cls-1" d="M107.92,60.05V72.61c0,1.81,0,3.63,0,5.44,0,.55-.08.82-.73.81-3.53,0-7.07,0-10.6,0-.62,0-.75-.2-.75-.78q0-13.27,0-26.54c0-.61.17-.76.77-.76q7.29,0,14.58,0a1.44,1.44,0,0,1,1.13.62Q120,59.8,127.66,68.19l1.13,1.23a2,2,0,0,0,.14-1.14c0-5.51,0-11,0-16.53,0-.73.13-1,.94-1,3.4.05,6.8,0,10.2,0,.73,0,.93.17.93.91q0,13.13,0,26.25c0,.73-.19.93-.92.92q-7.49,0-15,0a1.55,1.55,0,0,1-1.29-.66q-7.57-8.73-15.2-17.44C108.45,60.55,108.26,60.38,107.92,60.05Z"/><path class="cls-1" d="M16.15,69.1h5.44c.45,0,.69,0,.63.62a2.41,2.41,0,0,0,1.43,2.44,8.33,8.33,0,0,0,3.34.91,20.47,20.47,0,0,0,6.85-.27c1.66-.43,2.56-1.18,2.46-2.1-.16-1.44-1.41-1.68-2.48-2-2.57-.65-5.21-1-7.82-1.39A49.84,49.84,0,0,1,15.92,65c-2.12-.81-4.05-2-5-4.19A6.19,6.19,0,0,1,13.53,53a18.54,18.54,0,0,1,7.74-2.61,60.35,60.35,0,0,1,15.6-.18,19.8,19.8,0,0,1,7.51,2.09A6.61,6.61,0,0,1,48,57.63c.06.57,0,.8-.68.8-3.43,0-6.87,0-10.31,0-.3,0-.7.1-.79-.35-.31-1.6-1.61-2-2.91-2.31a20,20,0,0,0-7.43-.09,4.66,4.66,0,0,0-1.19.41,1.5,1.5,0,0,0-1,1.4,1.56,1.56,0,0,0,1,1.44,17.77,17.77,0,0,0,4.77,1.2c4.54.8,9.15,1.3,13.56,2.74a11,11,0,0,1,4.3,2.38A6.2,6.2,0,0,1,46.74,75,16.38,16.38,0,0,1,39.43,78a57.73,57.73,0,0,1-21.53-.14c-2.53-.52-4.9-1.45-6.55-3.64a8.33,8.33,0,0,1-1.43-4.45c-.06-.55.21-.65.68-.64C12.45,69.11,14.3,69.1,16.15,69.1Z"/><path class="cls-1" d="M143,78.92l2.89-4.16q8.06-11.61,16.09-23.23a1.51,1.51,0,0,1,1.41-.75q6.12,0,12.25,0a1.38,1.38,0,0,1,1.32.73Q185.67,64.77,194.43,78c.17.25.54.5.36.82s-.55.11-.83.11c-4,0-8,0-12.06,0a1.31,1.31,0,0,1-1.34-.82c-.64-1.24-1.36-2.43-2-3.66a1.06,1.06,0,0,0-1.06-.64q-9.11,0-18.19,0a1.09,1.09,0,0,0-1.06.66c-.74,1.29-1.51,2.56-2.29,3.83-.17.3-.32.62-.78.62C151.19,78.91,147.2,78.92,143,78.92Zm31.82-11.25-6-10.18c-2.16,3.45-4.24,6.77-6.39,10.18Z"/><path class="cls-1" d="M72.36,78.83c-5.41,0-10.82,0-16.23,0-.71,0-.94-.14-.93-.89q0-13.12,0-26.25c0-.8.25-.94,1-.94q15.79,0,31.6,0c.69,0,1,.12.94.89-.07,1.42-.06,2.85,0,4.28,0,.76-.25.89-.94.89-6.29,0-12.57,0-18.86,0-.92,0-1.3.19-1.18,1.15s-.44,2.52.24,3.19,2,.16,3.1.16q7.59,0,15.17,0c.72,0,.94.18.91.91-.06,1.39-.06,2.79,0,4.18,0,.74-.2.92-.93.92-5.76,0-11.53,0-17.3,0-.93,0-1.26.21-1.19,1.17a25.72,25.72,0,0,1,0,3.4c0,.8.25,1,1,1,6.55,0,13.1,0,19.64,0,.86,0,1.19.18,1.13,1.1a37,37,0,0,0,0,4.08c0,.72-.17.93-.91.93C83.19,78.81,77.78,78.83,72.36,78.83Z"/></g></g></svg>