<svg xmlns="http://www.w3.org/2000/svg" viewBox="0 0 443.5 106.14"><defs><style>.cls-1{fill:#f0d443;}.cls-2{fill:#228292;}.cls-3{fill:#fff;}</style></defs><title>LogoPoliandino</title><g id="Capa_2" data-name="Capa 2"><g id="Capa_1-2" data-name="Capa 1"><path class="cls-1" d="M76.73,66.11c0,3.2-1.61,5.62-2.93,8.07Q67.41,86.06,60.72,97.75c-2.84,5-5.23,5.71-10.21,2.87A56.68,56.68,0,0,1,32.79,85.51c-1.69-2.25-2.1-4.45-.81-7,2.52-4.88,4.94-9.82,8.2-14.27,2.12-2.88,4.55-4.36,8-2.08s5.61,4.86,3.73,9.12c-1.07,2.44-2.42,4.75-3.51,7.17-.65,1.48-1.73,3.41.15,4.48,2.21,1.26,2.63-1.17,3.49-2.43.56-.83,1.05-1.7,1.57-2.55C60,67.83,57.38,59.94,46.16,55c-2.34-1-4-.65-5.6,1.45C35.65,62.8,32.19,70,28.31,77,24,84.69,20,92.53,15.54,100.15,12.19,105.93,9,107.3,5.3,105.23A9.65,9.65,0,0,1,1.15,92,469.78,469.78,0,0,1,35.16,34c2.68-3.84,5.36-3.69,8.79-1.16A218.22,218.22,0,0,1,74.06,59.68C75.83,61.59,77.25,63.53,76.73,66.11Z"/><path class="cls-2" d="M131.48,92.16c-.62,3.41-1.32,7.4-5.15,8.3-4.09,1-7.82-.82-10.15-4.7-9.82-16.4-19.51-32.88-28.66-49.67A99.74,99.74,0,0,0,81.4,35.84c-2.61-3.65-5.25-3.46-7.92.15a26.46,26.46,0,0,0-1.54,2.57c-3.94,6.88-7.21,7.33-13.15,1.79-5.6-5.2-5.37-5.44-1.53-12.31C61,21.38,63.87,14.25,68.05,7.83c5.39-8.28,9.28-12,16.34.13,13.67,23.59,28,46.79,42.1,70.13A33.38,33.38,0,0,1,131.48,92.16Z"/><path class="cls-2" d="M175.4,25.45c-.23,5.1-1.57,10.92-6.25,15.25-4.83,4.47-10.53,5.67-16.57,2.67-2.69-1.34-3.84-1.17-4.22,2-.28,2.29-1.22,4.5-1.5,6.8s-1.45,2.88-3.63,2.94c-6.13.2-6.16.29-4.85-5.86,2.24-10.55,5-21,6.59-31.68.85-5.76,4-5.8,7.89-5a12.87,12.87,0,0,0,6.55-.35C168.63,9.64,175.33,14.86,175.4,25.45Zm-24,5.61c0,4.53,2.14,7,5.94,6.9,4.75-.11,9-5.81,8.94-12,0-4.08-2.63-7.38-5.87-7.44C155.73,18.39,151.4,24.44,151.42,31.06Z"/><path class="cls-2" d="M236.65,67.58c1-4.51,1.81-8.06,2.63-11.6.65-2.81,6.13-4.95,8.55-3.33,1.26.84.76,2.06.53,3.16-2.62,12.35-5.28,24.69-7.85,37.06-.49,2.36-1.56,3.41-4.06,3.24a50.79,50.79,0,0,0-12.59.5c-6.92,1.25-11.36-2.48-12.9-9.37-2.52-11.33,5.18-22.95,15.63-23.52C230.17,63.52,233.53,64.14,236.65,67.58Zm-2.17,9.7c.24-3.68-1.33-6.41-5.35-6.82-4.74-.48-9.52,5.73-9.44,12.1.05,3.83,1.38,7,5.76,7.35C230.16,90.27,234.41,84.25,234.48,77.28Z"/><path class="cls-2" d="M195.61,11.76c9.12,0,14.41,4.82,14.55,13.32.17,11.31-7.69,19.83-18.4,19.94-9,.09-14.56-4.94-14.63-13.28C177,19.61,184.23,11.8,195.61,11.76Zm5.15,14.57c.17-5.13-1.61-7.68-5.46-7.86-4.56-.21-8.81,5.41-9,11.85-.12,4.68,2.14,7.63,5.85,7.62C196.74,37.94,200.55,32.79,200.76,26.33Z"/><path class="cls-2" d="M351.19,44.09c-3.49.7-4.13-.93-3.17-4.47,1.27-4.64,2.11-9.41,3.06-14.13.42-2.15.86-4.64-1.4-5.87s-4.78-.51-6.82,1.39a11.94,11.94,0,0,0-3.51,6.45c-.92,4.22-1.83,8.45-2.76,12.67-.75,3.39-5.14,5.4-8.31,3.88-1.49-.72-1.09-2-.89-3,1.69-8.65,3.39-17.29,5.27-25.89.62-2.81,6.41-4.29,8.52-1.77,1.39,1.65,1.87,1,2.9.42a12.73,12.73,0,0,1,5.11-1.84c9.26-1,12.82,2.61,11.3,11.76-.9,5.4-2.12,10.76-3.26,16.12C356.3,44.17,356.26,44.16,351.19,44.09Z"/><path class="cls-2" d="M207.67,74.06c-1.17,5.65-2.34,13.06-4.36,20.24-1,3.67-4.94,1.62-7.44,1.64-2.81,0-1.3-2.48-1.06-3.82.91-5.07,2-10.1,3.08-15.15.44-2.06.56-4.1-1.44-5.36s-4.12-.56-6,.75a9.68,9.68,0,0,0-3.94,6.15c-1.06,4.7-2.07,9.4-3.07,14.11-.45,2.13-1.18,3.47-3.86,3.54-5.87.14-6.13,0-4.88-5.83,1.52-7.15,3.09-14.29,4.6-21.44.84-4,5.79-6.62,8.55-3.94,1.77,1.71,2.4,1.11,3.74.38a14.37,14.37,0,0,1,8.18-1.65C205.5,64.16,207.74,66.61,207.67,74.06Z"/><path class="cls-2" d="M443.5,25.33c0,11.64-7.67,19.79-18.57,19.66-9.11-.11-14.35-5.33-14.3-14.25.07-11.12,7.52-18.85,18.18-18.88C438.61,11.84,443.48,16.31,443.5,25.33Zm-9.08.77c.14-4.93-1.9-7.62-5.75-7.61-4.61,0-9.1,5.8-8.95,12,.1,3.64,1.21,7.06,5.73,7.38S434.24,32.7,434.42,26.1Z"/><path class="cls-2" d="M329.51,77.72c-.2,11.43-7.8,19.22-18.62,19.09-9.2-.1-14.63-5.44-14.38-14.14.32-11.38,8.14-19.34,18.74-19.06C324.73,63.85,329.68,68.74,329.51,77.72Zm-9.12-.48c.26-3.64-1.37-6.41-5.66-6.77-4.62-.39-9.17,5.94-9.09,12.37.05,3.91,2.84,7.15,6.12,7.1C316.27,89.86,320.31,84.13,320.39,77.24Z"/><path class="cls-2" d="M282.35,30.41c-2.49,0-5-.1-7.48,0-1.36.08-3.37-.89-3.91,1A4.75,4.75,0,0,0,273,36.72c2.77,1.94,5.62,1.69,8.31-.27,1.06-.76,2-2.28,3-2.37,2.52-.22,6.12-1.47,7.36.62,1.06,1.79-1.52,4.4-3.31,6.14-4.39,4.27-13.64,5.41-19.65,2.47-4.92-2.4-7-7.15-6.48-14.4.93-11.8,10.08-18.9,21.67-16.83a13.37,13.37,0,0,1,10.35,15.77c-.46,2.09-1.6,2.64-3.5,2.59-2.82-.06-5.65,0-8.47,0ZM272.2,24.86c3.44,0,6.43.11,9.41-.05,1.27-.06,3.24,1,3.66-1.27.33-1.86-.87-3.16-2.28-4.12C279.54,17.08,275.14,19.16,272.2,24.86Z"/><path class="cls-2" d="M160,63.67c2.33.35,4.82.16,7.24,1.07,4.32,1.63,5.73,4.79,5.21,9.06-.85,6.91-2.87,13.61-4,20.5-.62,3.69-5.39,2.18-7.54,1.26a4.79,4.79,0,0,0-4.34,0,13.69,13.69,0,0,1-2.85.84c-7.18,1.22-12.5-1.6-13.31-7C139.57,83.72,143.93,79,151,77.92c2.95-.43,6-.5,8.89-1.12,1.81-.4,4.34-.87,4.14-3.48s-2.46-3.25-4.78-3.37c-2.1-.11-4.26.24-5.27,2.12-2,3.7-5.25,2.09-8,2.14-2.31.05-1.3-1.62-.87-2.83C147,66.1,152,63.47,160,63.67ZM162,82.11a30.33,30.33,0,0,0-9.19,1.12c-2.32.75-3.83,2.42-3.05,4.85s2.93,3.07,5.26,2.54C159.27,89.65,161,86.42,162,82.11Z"/><path class="cls-2" d="M284.83,96.06c-4.1.68-4.94-.76-3.8-4.67,1.39-4.76,2-9.73,3-14.6.43-2.08.47-4.19-1.53-5.32-1.81-1-3.82-.58-5.66.51-3.35,2-4.3,5.37-5.11,8.77-.89,3.71-1.53,7.47-2.3,11.21-.72,3.51-5.63,5.73-8.69,4-.92-.53-.86-1.25-.69-2.1,1.84-9.1,3.6-18.21,5.56-27.28.48-2.21,7-3.59,8.41-1.43s2.09.84,3.26.38A23.24,23.24,0,0,1,282,63.94c8.68-1.5,12.86,2.39,11.5,11-1,6.22-2.71,12.31-3.77,18.52C289.1,96.88,286.73,95.84,284.83,96.06Z"/><path class="cls-2" d="M408.33,32.35c-2.51,11.81-15.08,14.83-23.49,11a10.19,10.19,0,0,1-4.49-3.82c-3.9-6-2.21-17.31,3.44-23.16,4.79-5,15.29-6.3,21.33-2.59a8.51,8.51,0,0,1,3.22,3c1,2,3.61,4.94.85,6.39-2.27,1.19-6.17,2.56-8.34-1.88-1.8-3.72-7.15-3.81-10.1-.31a14.88,14.88,0,0,0-3.09,12.68c.83,4.45,7.18,6.09,9.7,2.15C400.35,31.22,404,32.13,408.33,32.35Z"/><path class="cls-2" d="M313.55,11.87c5.28-.16,10,1,12.78,6,1,1.8,2.56,4.7.11,5.57s-5.89,1.92-8-1.36c-2.9-4.48-6.9-4.88-10.41-.89-2.68,3-3.29,6.84-3.26,10.72,0,2.69,1.16,5,3.9,5.79s5.21-.32,7-2.58c.89-1.1,1.11-3.06,3-2.89,2.21.19,5.19-1.25,6.46.85,1.14,1.88-1,4-2.3,5.65-4.7,6.2-15,8.17-21.67,4.24-3.84-2.26-5-5.93-5.5-10.08C294.38,21.26,302.27,11.91,313.55,11.87Z"/><path class="cls-2" d="M252.09,44.33c-7.65-.08-9.57-2.38-8.1-9.79.68-3.41,1.62-6.79,2.09-10.23.3-2.26,2.72-5.83-2.71-5.69-1.65,0-1.15-1.65-1.06-2.76.15-1.77.57-3.59,2.76-3.4,3.58.31,4-1.86,4.41-4.56.71-4.58,4-6.26,8.46-4.81,2.48.8,1,2.41.85,3.64-.31,2.79-2.16,6.23,3.29,5.79,1.32-.1,1.59,1.13,1.23,2.15-.56,1.58-.21,4.2-2.82,4-4.12-.34-5,1.86-5.31,5.32-.22,2.62-1.11,5.19-1.63,7.79-.55,2.84-1.5,6,3.38,5.55,1.33-.11,2,.78,1.49,1.86-.78,1.78.21,4.66-2.84,5.12A23.88,23.88,0,0,1,252.09,44.33Z"/><path class="cls-2" d="M215.06,44c-3.43.68-4.73-.24-3.82-4.19,2.76-12,5.14-24,7.73-36.06.62-2.83,6.5-4.79,8.74-3,1,.78.64,1.76.43,2.72-2.67,12.5-5.42,25-8,37.51C219.54,44.13,217.65,44.38,215.06,44Z"/><path class="cls-2" d="M229.8,44c-4.16.78-4.81-.74-3.81-4.64,2-7.88,3.65-15.87,5.12-23.87,1-5.35,5-2.9,7.52-2.89,3.68,0,1.37,2.91,1.08,4.43-1.5,7.67-3.42,15.26-4.73,23C234.4,43.37,233.12,44.75,229.8,44Z"/><path class="cls-2" d="M249.6,96c-4.19.85-4.6-1.06-3.61-5,1.85-7.4,3.15-14.93,4.74-22.4.78-3.64,5.45-5.82,8.66-4.15,1.43.74,1,1.9.76,3-1.84,8.6-3.85,17.17-5.45,25.81C254.08,96.67,252,96,249.6,96Z"/><path class="cls-2" d="M367.4,44c-3.89.77-5.1-.46-4.13-4.46,1.91-7.9,3.57-15.87,5-23.87.94-5.18,4.84-3.24,7.48-3.11,3.73.18,1.27,2.51.92,4.23-1.5,7.49-2.87,15-4.17,22.55C372,42.36,371.47,45.12,367.4,44Z"/><path class="cls-2" d="M236.19,7.92c-.55-.38-3.18,1.68-3.37-1.45-.25-4.36,1.6-6.18,6.18-6,1.51.07,4.13-1.08,3.85,2.12C242.54,6.07,241.94,9.52,236.19,7.92Z"/><path class="cls-2" d="M374.37,8.16c-1.38-.47-4.44,1.52-4-2.25.41-3.14.91-6.53,5.54-5.48,1.62.37,4.68-1.39,4.35,2.13C380,5.76,379.66,9.68,374.37,8.16Z"/><path class="cls-2" d="M259.26,52.66c.7.64,3.9-2.07,3.55,1.94-.29,3.42-1.05,6.53-5.58,5.42-1.45-.36-4.51,1.9-4.13-2.11C253.42,54.55,253.91,51.32,259.26,52.66Z"/><path class="cls-2" d="M279.71,8.78c3.63-9,4.07-9.26,13.26-8.52C290.29,6.4,285.35,9.57,279.71,8.78Z"/><path class="cls-3" d="M151.42,31.06c0-6.62,4.31-12.67,9-12.59,3.24.06,5.85,3.36,5.87,7.44,0,6.24-4.19,11.94-8.94,12.05C153.56,38.05,151.44,35.59,151.42,31.06Z"/><path class="cls-3" d="M234.48,77.28c-.07,7-4.32,13-9,12.63-4.38-.33-5.71-3.52-5.76-7.35-.08-6.37,4.7-12.58,9.44-12.1C233.15,70.87,234.72,73.6,234.48,77.28Z"/><path class="cls-3" d="M200.76,26.33c-.21,6.46-4,11.61-8.58,11.61-3.71,0-6-2.94-5.85-7.62.16-6.44,4.41-12.06,9-11.85C199.15,18.65,200.93,21.2,200.76,26.33Z"/><path class="cls-3" d="M434.42,26.1c-.18,6.6-4.32,12.15-9,11.81s-5.63-3.74-5.73-7.38c-.15-6.24,4.34-12,8.95-12C432.52,18.48,434.56,21.17,434.42,26.1Z"/><path class="cls-3" d="M320.39,77.24c-.08,6.89-4.12,12.62-8.63,12.7-3.28,0-6.07-3.19-6.12-7.1-.08-6.43,4.47-12.76,9.09-12.37C319,70.83,320.65,73.6,320.39,77.24Z"/><path class="cls-3" d="M272.2,24.86c2.94-5.7,7.34-7.78,10.79-5.44,1.41,1,2.61,2.26,2.28,4.12-.42,2.31-2.39,1.21-3.66,1.27C278.63,25,275.64,24.86,272.2,24.86Z"/><path class="cls-3" d="M162,82.11c-.95,4.31-2.7,7.54-7,8.51-2.33.53-4.51-.22-5.26-2.54s.73-4.1,3.05-4.85A30.33,30.33,0,0,1,162,82.11Z"/></g></g></svg>