<svg xmlns="http://www.w3.org/2000/svg" viewBox="0 0 728.53 174.24"><defs><style>.cls-1{fill:aqua;}.cls-2{fill:#fff;}</style></defs><title>Recurso 3</title><g id="Capa_2" data-name="Capa 2"><g id="Capa_1-2" data-name="Capa 1"><path class="cls-1" d="M126.07,108.49c0,5.25-2.64,9.23-4.81,13.25q-10.5,19.52-21.48,38.72c-4.67,8.21-8.6,9.38-16.78,4.71a93,93,0,0,1-29.1-24.82c-2.78-3.69-3.45-7.3-1.33-11.49,4.14-8,8.11-16.13,13.47-23.44,3.48-4.73,7.47-7.17,13.14-3.42s9.21,8,6.12,15c-1.75,4-4,7.8-5.76,11.78-1.07,2.43-2.84,5.6.24,7.36,3.64,2.07,4.32-1.92,5.74-4,.92-1.37,1.72-2.8,2.58-4.19,10.49-16.63,6.19-29.59-12.24-37.7-3.84-1.64-6.57-1.07-9.2,2.38-8.06,10.43-13.75,22.26-20.12,33.76-7.08,12.63-13.65,25.51-21,38-5.5,9.5-10.74,11.75-16.82,8.35a15.85,15.85,0,0,1-7-21.28c.08-.15.15-.3.24-.45A771.75,771.75,0,0,1,57.79,55.74c4.4-6.3,8.8-6.06,14.44-1.9a358.86,358.86,0,0,1,49.46,44.09C124.6,101.06,126.93,104.25,126.07,108.49Z"/><path class="cls-1" d="M216,151.28c-1,5.6-2.17,12.15-8.46,13.63-6.72,1.64-12.85-1.35-16.68-7.72-16.13-26.94-32-54-47.07-81.59a162.59,162.59,0,0,0-10.06-16.83c-4.28-6-8.62-5.69-13,.24a43.92,43.92,0,0,0-2.52,4.22c-6.48,11.31-11.85,12-21.6,2.94-9.2-8.54-8.83-8.93-2.52-20.22C100.24,35,105,23.3,111.82,12.76c8.85-13.6,15.24-19.71,26.84.21,22.45,38.75,46,76.86,69.15,115.2A54.9,54.9,0,0,1,216,151.28Z"/><path class="cls-2" d="M288.15,41.7c-.38,8.38-2.58,17.94-10.27,25-7.93,7.34-17.29,9.31-27.22,4.39-4.41-2.21-6.3-1.93-6.93,3.28-.46,3.76-2,7.39-2.46,11.17s-2.38,4.73-6,4.83c-10.07.33-10.12.48-8-9.63,3.68-17.33,8.21-34.49,10.82-52,1.4-9.46,6.57-9.53,13-8.22A21.12,21.12,0,0,0,261.88,20C277,15.73,288,24.3,288.15,41.7Zm-39.42,9.22c0,7.44,3.51,11.49,9.75,11.33,7.81-.18,14.79-9.54,14.69-19.71,0-6.7-4.32-12.12-9.64-12.22-7.69-.22-14.8,9.72-14.77,20.6Z"/><path class="cls-2" d="M388.76,110.9c1.64-7.41,3-13.24,4.32-19.05,1.07-4.62,10.07-8.13,14-5.47,2.07,1.38,1.25,3.38.87,5.19-4.3,20.29-8.67,40.56-12.89,60.87-.81,3.88-2.56,5.61-6.67,5.33a83.26,83.26,0,0,0-20.68.82c-11.37,2-18.66-4.08-21.19-15.39-4.14-18.61,8.51-37.7,25.67-38.64C378.11,104.23,383.63,105.25,388.76,110.9Zm-3.57,15.94c.4-6-2.18-10.53-8.78-11.21-7.79-.78-15.64,9.42-15.51,19.88.08,6.29,2.27,11.5,9.46,12.07C378.1,148.17,385.08,138.29,385.19,126.84Z"/><path class="cls-2" d="M321.35,19.21c15,0,23.67,7.92,23.9,21.88.27,18.58-12.64,32.58-30.23,32.76C300.24,74,291.11,65.73,291,52,290.78,32.11,302.65,19.28,321.35,19.21Zm8.46,23.94c.27-8.43-2.65-12.62-9-12.92-7.49-.34-14.47,8.89-14.79,19.47-.19,7.69,3.52,12.53,9.61,12.52C323.2,62.22,329.46,53.76,329.81,43.15Z"/><path class="cls-2" d="M576.9,72.32c-5.73,1.15-6.78-1.53-5.21-7.34,2.09-7.63,3.47-15.46,5-23.21.69-3.54,1.41-7.63-2.3-9.65s-7.85-.83-11.2,2.29A19.58,19.58,0,0,0,557.45,45c-1.51,6.93-3,13.88-4.53,20.81-1.23,5.57-8.44,8.87-13.65,6.38-2.45-1.19-1.79-3.29-1.46-4.93,2.77-14.21,5.57-28.4,8.65-42.53,1-4.61,10.53-7,14-2.91,2.28,2.71,3.07,1.65,4.76.69a20.87,20.87,0,0,1,8.4-3c15.21-1.64,21,4.29,18.56,19.32-1.48,8.87-3.48,17.67-5.36,26.48C585.3,72.45,585.23,72.43,576.9,72.32Z"/><path class="cls-2" d="M341.16,121.55c-1.93,9.28-3.85,21.45-7.17,33.24-1.64,6-8.11,2.66-12.22,2.7-4.61,0-2.13-4.08-1.74-6.28,1.5-8.33,3.29-16.59,5.06-24.88.72-3.39.92-6.74-2.36-8.81s-6.77-.92-9.86,1.23a15.91,15.91,0,0,0-6.47,10.11c-1.74,7.72-3.4,15.44-5,23.17-.74,3.5-1.94,5.7-6.35,5.82-9.64.23-10.06,0-8-9.58,2.5-11.74,5.07-23.47,7.56-35.22,1.37-6.57,9.51-10.87,14-6.47,2.91,2.81,3.94,1.83,6.14.63a23.51,23.51,0,0,1,13.44-2.71C337.59,105.29,341.27,109.31,341.16,121.55Z"/><path class="cls-2" d="M728.53,41.5c0,19.12-12.6,32.51-30.5,32.3-15-.18-23.57-8.76-23.49-23.41.11-18.27,12.35-31,29.86-31C720.5,19.34,728.5,26.69,728.53,41.5Zm-14.91,1.27c.23-8.1-3.13-12.52-9.45-12.5-7.57,0-14.95,9.52-14.7,19.71.16,6,2,11.6,9.41,12.12S713.32,53.61,713.62,42.77Z"/><path class="cls-2" d="M541.29,127.56c-.33,18.77-12.81,31.57-30.58,31.36-15.12-.17-24-8.94-23.63-23.23.53-18.69,13.38-31.77,30.79-31.31C533.44,104.78,541.57,112.81,541.29,127.56Zm-15-.79c.43-6-2.25-10.53-9.3-11.12C509.42,115,502,125.41,502.08,136c.08,6.42,4.67,11.74,10.05,11.66C519.54,147.5,526.18,138.09,526.31,126.77Z"/><path class="cls-2" d="M463.83,49.85c-4.09,0-8.22-.17-12.29,0-2.24.13-5.54-1.46-6.42,1.64a7.79,7.79,0,0,0,3.35,8.72c4.55,3.19,9.23,2.78,13.65-.44,1.74-1.25,3.28-3.75,4.92-3.89,4.14-.37,10.06-2.42,12.09,1,1.75,2.94-2.49,7.23-5.43,10.09-7.21,7-22.41,8.89-32.28,4.06-8.08-4-11.5-11.75-10.64-23.66,1.52-19.38,16.55-31,35.59-27.64a22,22,0,0,1,17,25.9c-.75,3.44-2.63,4.34-5.75,4.26-4.63-.1-9.28,0-13.91,0Zm-16.68-9.12c5.65,0,10.56.18,15.46-.08,2.09-.1,5.32,1.64,6-2.09.54-3.05-1.43-5.19-3.74-6.76C459.21,28,452,31.37,447.15,40.73Z"/><path class="cls-2" d="M262.85,104.48c3.83.58,7.92.26,11.9,1.76,7.09,2.68,9.41,7.87,8.55,14.88-1.39,11.35-4.71,22.36-6.57,33.67-1,6.06-8.85,3.58-12.38,2.07a7.86,7.86,0,0,0-7.13,0,22.64,22.64,0,0,1-4.68,1.38c-11.8,2-20.54-2.63-21.87-11.5-1.38-9.33,5.79-17.08,17.4-18.85,4.85-.71,9.86-.82,14.6-1.84,3-.66,7.13-1.43,6.8-5.72s-4-5.34-7.85-5.53c-3.45-.18-7,.39-8.66,3.48-3.28,6.08-8.62,3.43-13.14,3.51-3.79.09-2.13-2.66-1.43-4.65C241.5,108.47,249.71,104.15,262.85,104.48Zm3.29,30.29a50,50,0,0,0-15.1,1.84c-3.81,1.23-6.29,4-5,8s4.82,5,8.64,4.17C261.65,147.16,264.5,141.85,266.14,134.77Z"/><path class="cls-2" d="M467.9,157.68c-6.74,1.12-8.12-1.24-6.24-7.67,2.28-7.82,3.28-16,4.92-24,.71-3.42.78-6.88-2.51-8.74-3-1.64-6.27-1-9.3.84-5.5,3.29-7.06,8.82-8.39,14.41-1.46,6.09-2.51,12.27-3.78,18.41-1.18,5.77-9.25,9.41-14.27,6.57-1.51-.87-1.41-2.05-1.13-3.45,3-14.95,5.91-29.91,9.13-44.81.79-3.63,11.5-5.9,13.81-2.35s3.44,1.38,5.36.63a37.84,37.84,0,0,1,7.75-2.62c14.26-2.46,21.12,3.93,18.89,18.07-1.64,10.22-4.45,20.22-6.19,30.42C474.91,159,471,157.32,467.9,157.68Z"/><path class="cls-2" d="M670.76,53C666.64,72.43,646,77.39,632.18,71.1a16.74,16.74,0,0,1-7.38-6.27c-6.41-9.86-3.63-28.44,5.65-38,7.87-8.22,25.12-10.35,35-4.26a14,14,0,0,1,5.29,4.93c1.64,3.28,5.93,8.11,1.39,10.49-3.73,2-10.13,4.21-13.7-3.08-3-6.11-11.74-6.26-16.59-.51a24.42,24.42,0,0,0-5.07,20.83c1.36,7.31,11.79,10,15.93,3.53C657.65,51.18,663.65,52.67,670.76,53Z"/><path class="cls-2" d="M515.07,19.39c8.68-.26,16.43,1.65,21,9.86,1.64,3,4.2,7.72.18,9.15s-9.68,3.15-13.14-2.24c-4.77-7.35-11.34-8-17.1-1.46-4.41,4.93-5.41,11.24-5.36,17.61,0,4.42,1.91,8.21,6.41,9.51s8.56-.52,11.5-4.24c1.46-1.8,1.82-5,4.92-4.74,3.63.31,8.53-2.06,10.62,1.39,1.87,3.09-1.65,6.57-3.78,9.28-7.72,10.19-24.64,13.42-35.6,7-6.31-3.71-8.21-9.74-9-16.56C483.59,34.82,496.55,19.46,515.07,19.39Z"/><path class="cls-2" d="M414.12,72.71c-12.57-.13-15.72-3.91-13.31-16.08,1.12-5.6,2.67-11.15,3.44-16.8.49-3.71,4.47-9.58-4.45-9.35-2.71,0-1.89-2.71-1.74-4.53.24-2.91.93-5.9,4.53-5.59,5.88.51,6.57-3.05,7.24-7.49C411,5.35,416.4,2.59,423.73,5c4.07,1.32,1.64,4,1.4,6-.51,4.58-3.55,10.23,5.4,9.51,2.17-.16,2.61,1.86,2,3.53-.92,2.6-.34,6.9-4.63,6.57-6.77-.56-8.22,3.06-8.72,8.74-.37,4.31-1.83,8.53-2.68,12.8-.91,4.66-2.47,9.85,5.55,9.11,2.18-.18,3.29,1.29,2.45,3.06-1.28,2.92.34,7.65-4.67,8.41A39.13,39.13,0,0,1,414.12,72.71Z"/><path class="cls-2" d="M353.29,72.17c-5.63,1.12-7.77-.39-6.27-6.88,4.53-19.71,8.44-39.42,12.7-59.23,1-4.65,10.67-7.87,14.35-4.93,1.65,1.28,1.05,2.89.71,4.47-4.39,20.53-8.9,41.06-13.14,61.61C360.65,72.38,357.55,72.79,353.29,72.17Z"/><path class="cls-2" d="M377.51,72.17c-6.84,1.28-7.9-1.22-6.26-7.62,3.28-12.95,6-26.07,8.41-39.21,1.64-8.79,8.21-4.76,12.35-4.75,6.05,0,2.25,4.78,1.77,7.28-2.46,12.6-5.61,25.07-7.76,37.78C385.06,71.14,383,73.4,377.51,72.17Z"/><path class="cls-2" d="M410,157.59c-6.88,1.39-7.56-1.75-5.93-8.22,3-12.15,5.17-24.52,7.79-36.79,1.28-6,8.95-9.56,14.22-6.82,2.35,1.22,1.64,3.12,1.25,4.93-3,14.13-6.32,28.2-8.95,42.39C417.39,158.69,414,157.59,410,157.59Z"/><path class="cls-2" d="M603.53,72.17c-6.39,1.27-8.38-.76-6.79-7.33q4.71-19.46,8.22-39.2c1.54-8.51,7.95-5.33,12.28-5.11,6.13.29,2.09,4.12,1.52,7-2.47,12.3-4.72,24.63-6.85,37C611.08,69.48,610.21,74,603.53,72.17Z"/><path class="cls-2" d="M425.9,86.4c1.15,1,6.4-3.4,5.83,3.18-.48,5.62-1.73,10.73-9.17,8.9-2.38-.59-7.41,3.13-6.78-3.46C416.3,89.5,417.11,84.19,425.9,86.4Z"/></g></g></svg>