<svg xmlns="http://www.w3.org/2000/svg" viewBox="0 0 366.98 361"><defs><style>.cls-1{fill:#6ec6d9;}.cls-2{fill:#262a51;stroke:#5bc5f2;stroke-miterlimit:10;stroke-width:2px;}.cls-3{font-size:148.75px;}.cls-3,.cls-4,.cls-5{fill:#f8f7f7;font-family:RiverRocksFree-Regular, River Rocks Free;}.cls-4{font-size:175.44px;}.cls-5{font-size:104.01px;}</style></defs><title>rockroll</title><g id="Capa_2" data-name="Capa 2"><g id="Capa_1-2" data-name="Capa 1"><path class="cls-1" d="M5.69,213V193.42c1.55-3.48,1.55-7.32,2.47-11,5.21-20.51,15.87-38,30.49-52.92,30.82-31.4,62.08-62.38,93.21-93.49A134.41,134.41,0,0,1,167.62,10.1c16.92-8.3,34.72-12,53.48-9.13S256,12.72,269.77,25.73c18.55,17.49,31,39,39.1,62.8,15.74,46.45,31,93.08,46.13,139.72,7.46,23,11.88,46.46,7.87,70.79-4.71,28.57-22.13,49.59-51.42,56.83-4.53,1.12-9.14,1.91-13.7,2.84H274.63c-.21-.74-.83-.66-1.39-.7a148.62,148.62,0,0,1-33.06-6.67c-45.19-14.64-90.3-29.53-135.47-44.23-22.94-7.47-44.56-17.4-63.12-33.14-16.93-14.37-29.25-31.72-34.2-53.75C6.85,217.82,7.08,215.23,5.69,213Z"/><path class="cls-2" d="M1,214.32V194.71c1.55-3.49,1.54-7.33,2.47-11,5.21-20.51,15.87-38,30.49-52.92C64.78,99.42,96,68.44,127.17,37.34a134,134,0,0,1,35.76-25.95c16.92-8.3,34.72-12,53.48-9.14S251.29,14,265.08,27c18.54,17.49,31,39,39.09,62.81,15.75,46.45,31,93.07,46.14,139.72,7.46,23,11.88,46.45,7.87,70.78-4.71,28.57-22.13,49.59-51.43,56.84-4.52,1.12-9.13,1.9-13.7,2.84H269.94c-.21-.74-.83-.66-1.39-.71a147.39,147.39,0,0,1-33.06-6.67C190.3,338,145.19,323.09,100,308.39,77.08,300.93,55.46,291,36.9,275.25,20,260.88,7.65,243.54,2.69,221.51,2.15,219.11,2.38,216.52,1,214.32Z"/><text class="cls-3" transform="translate(59.38 196.49) rotate(-5.72)">Rock</text><text class="cls-4" transform="matrix(0.99, -0.16, 0.16, 0.99, 147.09, 302.66)">Roll</text><text class="cls-5" transform="translate(208.72 199.28) rotate(-10.9)">and</text></g></g></svg>